<svg xmlns="http://www.w3.org/2000/svg" xmlns:xlink="http://www.w3.org/1999/xlink" viewBox="0 0 500 500"><defs><clipPath id="freepik--clip-path--inject-53"><circle cx="263.28" cy="108.9" r="27.9" style="fill:none"></circle></clipPath><clipPath id="freepik--clip-path-2--inject-53"><path d="M269.42,190.17c1.86,3.48,3.45,6.37,7.59,7.13,5.67,1,7.76-6.3,8.52-13.7a2.16,2.16,0,0,0,.59.16,4.7,4.7,0,0,0,3.94-1.25c.46-.47-.24-1.37-1.16-2.34-2.7-2.86-2.93-5.07-2.9-9a19.56,19.56,0,0,0-.44-5.24,10.15,10.15,0,0,0-.37-1.1c-4.13-10.1-24.8-10.47-25.92,2a35.1,35.1,0,0,0,1.52,13.06" style="fill:#fff;stroke:#263238;stroke-linecap:round;stroke-linejoin:round"></path></clipPath><clipPath id="freepik--clip-path-3--inject-53"><path d="M258.28,176.84l28.8-9.71s-3.76-10-8.64-12.56-16.48,0-20.44,5.08S256.41,168.41,258.28,176.84Z" style="fill:#0C62CC;stroke:#263238;stroke-linecap:round;stroke-linejoin:round"></path></clipPath><clipPath id="freepik--clip-path-4--inject-53"><path d="M278.12,226c-.49-2.26-1.13-4.5-1.82-6.73-.92-2.93-1.94-5.84-2.88-8.73a14.3,14.3,0,0,0-.81-1.92v-1.48c0-1.6,1.87-4.53,1.87-4.53a37.71,37.71,0,0,0-4.53-4.27c-3.46-2.93-9.59-6.92-9.59-6.92l-2.88,3.14c-5.46,1.23-12.62,8.81-16.56,16.81-4.4,8.92-2.15,22.1-4.19,31.62-1.06,5-6.72,10.49-11.33,17.51a88.13,88.13,0,0,0,34.91,11.16c.86-6.3,1.59-12.42,2.69-16.78a28.38,28.38,0,0,1,6.67-12.15C274.28,237.7,279.79,233.67,278.12,226Z" style="fill:#0C62CC;stroke:#263238;stroke-linecap:round;stroke-linejoin:round"></path></clipPath><clipPath id="freepik--clip-path-5--inject-53"><path d="M260.28,201.56a15.36,15.36,0,0,0-9-.4c-7.29,1.93-25.19,17.16-28.17,19.33-4.39,3.19-17.53,16.56-16.77,17.61s7.2,5.21,17.31,13.88,31,16.52,31,16.52,5.12,5.33,8.65,6.49c1.06.35,1.92.58,2.63.74.2.07.41.14.61.19a4.06,4.06,0,0,0,4.12-.81,3.91,3.91,0,0,0,1.21-1.58,9.8,9.8,0,0,0,1.55-4c.14-1.67-2.34-2-2.94-3.17a7.53,7.53,0,0,0-3.59-3.09c-1-.22-6.68,1.66-6.68,1.66s-12.8-7-20.93-17.77c-7.32-9.66-9.58-11.23-9.58-11.23s23.84-14.51,31.09-18.17" style="fill:#0C62CC;stroke:#263238;stroke-linecap:round;stroke-linejoin:round"></path></clipPath></defs><g id="freepik--background-simple--inject-53"><path d="M321.18,113.44S266.84,88.65,209,115.62s-91,87.56-119.29,136-19,100.91,21,127.95,71.55-5,130.64-1.57,74.21,13.21,126-15.84,67.48-106.9,33.95-168.41S321.18,113.44,321.18,113.44Z" style="fill:#0C62CC"></path><path d="M321.18,113.44S266.84,88.65,209,115.62s-91,87.56-119.29,136-19,100.91,21,127.95,71.55-5,130.64-1.57,74.21,13.21,126-15.84,67.48-106.9,33.95-168.41S321.18,113.44,321.18,113.44Z" style="fill:#fff;opacity:0.7000000000000001"></path><path d="M355.75,357.76c-3.81-2.64-8.77,1.93-10.66,5.09-1.57,2.62-3.59,6.66-4.06,7.61l-.06-.23.11-.09-.11.06a44.27,44.27,0,0,0-3.7-9.52c.83-1,4.2-2.19,5-2.51,3.12-1.35,6.13-2.43,8-5.5,1.44-2.43,2.09-5.85-1.06-7.22-4.25-1.86-8.22,3.59-9.47,7.05-1,2.72-2.09,6.76-2.45,8.06a60.93,60.93,0,0,0-4.69-7.47,23.5,23.5,0,0,1,4-3.42c2.68-2.1,5.3-3.91,6.29-7.35.77-2.72.52-6.19-2.87-6.71-4.58-.71-7,5.58-7.35,9.24-.22,2.57-.28,6.19-.3,7.89-1.32-1.8-2.62-3.43-3.81-4.92s-2.36-3-3.23-4.23l.31-.14a.73.73,0,0,1-.37.05l-.05-.06c.63-1.12,3.73-2.93,4.41-3.39,2.82-1.9,5.57-3.52,6.8-6.87,1-2.66,1-6.14-2.37-6.91-4.52-1-7.42,5.06-8,8.69-.46,2.84-.81,7-.92,8.36-.15-.22-.29-.43-.41-.64a67.33,67.33,0,0,1-4.25-8.12l.33-.06a.81.81,0,0,1-.37,0c-.05-.1-.09-.21-.14-.31a23.38,23.38,0,0,1,3.37-4c2.3-2.51,4.6-4.72,5-8.27.32-2.81-.48-6.19-3.91-6.16-4.64,0-6.05,6.64-5.77,10.31.17,2.24.59,5.26.87,7.11-.79-1.86-1.37-3.42-1.73-4.45h0a0,0,0,0,0,0,0c-.18-.51-.31-.88-.38-1.11a30.44,30.44,0,0,1,.11-4.72c.15-3.39.49-6.57-1.48-9.55-1.55-2.37-4.35-4.44-7-2.21-3.53,3-.36,9,2.21,11.6,1.81,1.85,4.52,4.27,5.8,5.39.34,1,1.14,3.29,2.35,6.07a28.22,28.22,0,0,1-3.73-3.12c-2.55-2.25-4.81-4.51-8.37-4.85-2.81-.28-6.18.6-6.08,4,.13,4.63,6.76,5.91,10.42,5.56,2.65-.26,6.37-.88,8-1.15a66.3,66.3,0,0,0,4.32,8.28c.09.16.2.32.3.47a27,27,0,0,1-4.43-2.11c-3-1.56-5.77-3.19-9.3-2.65-2.8.43-5.85,2.11-4.91,5.4,1.27,4.47,8,4.07,11.47,2.83,2.5-.9,5.95-2.41,7.43-3.08.89,1.29,2,2.72,3.3,4.32s2.72,3.42,4.16,5.41v0c-1,.42-4.62-1.77-5.43-2.18-3-1.56-5.76-3.19-9.3-2.65-2.79.43-5.84,2.11-4.9,5.4,1.27,4.47,8,4.07,11.46,2.83,3.23-1.16,8-3.34,8.17-3.4v.16a.4.4,0,0,1,0-.15,61.33,61.33,0,0,1,4.55,7.28c-1.29.29-4.67-.66-5.46-.83-3.32-.71-6.4-1.56-9.67-.11-2.58,1.14-5.08,3.56-3.31,6.5,2.39,4,8.79,1.82,11.8-.28,2.39-1.67,5.68-4.35,6.69-5.18a44.52,44.52,0,0,1,3.64,9.39c-1.4.17-4.5-.7-5.25-.86-3.32-.7-6.4-1.56-9.67-.11-2.58,1.15-5.08,3.56-3.31,6.5,2.39,4,8.79,1.82,11.8-.28,2.25-1.58,5.3-4.05,6.49-5a41.09,41.09,0,0,1,1.07,13.75l.45,0a41.57,41.57,0,0,0-1.05-13.83c.81-.86,4.63-1.43,5.46-1.61,3.33-.71,6.48-1.19,8.87-3.85C357.27,363,358.56,359.72,355.75,357.76Z" style="fill:#fff"></path><path d="M386,374.4c-3.52.61-5.6,3-8,5.47-.54.55-2.63,3-3.89,3.63a43.54,43.54,0,0,1-2.19-9.83c1.3.13,5.52.53,8.43.59,3.68.07,10.19-1.7,10-6.33-.16-3.42-3.58-4-6.36-3.56-3.53.61-5.61,3-8,5.46-.57.58-2.85,3.25-4.08,3.72a61.41,61.41,0,0,1-.26-8.58l.11.11-.09-.13c.15,0,5.35-.88,8.68-1.71,3.57-.89,9.39-4.31,8-8.72-1.05-3.26-4.52-3-7.08-1.77-3.24,1.52-4.61,4.4-6.26,7.37-.44.79-2.26,4.64-3.3,4.83l0,0c.09-2.46.28-4.75.46-6.81s.32-3.86.34-5.42c1.6-.28,5.31-.94,7.89-1.58,3.57-.89,9.39-4.31,8-8.72-1-3.26-4.52-3-7.08-1.77C378,342.15,376.65,345,375,348a27.73,27.73,0,0,1-2.51,4.23c0-.19,0-.38,0-.56a67.74,67.74,0,0,0-1-9.29c1.48-.66,4.92-2.21,7.26-3.48,3.24-1.74,8-6.48,5.57-10.41-1.82-2.9-5.1-1.76-7.29,0-2.77,2.27-3.39,5.4-4.26,8.68a28.57,28.57,0,0,1-1.37,4.68c-.54-3-1.13-5.32-1.42-6.36.44-1.64,1.35-5.16,1.83-7.7.68-3.62,0-10.33-4.61-10.88-3.4-.4-4.58,2.87-4.56,5.7,0,3.58,2.08,6,4.09,8.76a30.67,30.67,0,0,1,2.71,3.87c.07.23.17.61.3,1.13v0h0c.27,1.06.65,2.68,1,4.66-.8-1.69-2.12-4.43-3.23-6.39-1.81-3.21-6.64-7.92-10.52-5.37-2.87,1.88-1.66,5.14.17,7.29,2.32,2.72,5.46,3.29,8.77,4.09a24,24,0,0,1,5,1.44l.06.33a.79.79,0,0,1-.29.24l.31-.13a65.72,65.72,0,0,1,1,9.11c0,.25,0,.5,0,.76-.84-1.06-3.45-4.33-5.41-6.44-2.5-2.7-8.3-6.15-11.48-2.77-2.35,2.49-.41,5.39,1.87,7,2.89,2.11,6.08,1.92,9.47,1.94.82,0,4.41-.22,5.55.36v.08a.83.83,0,0,1-.34.17l.34-.06c0,1.53-.17,3.31-.34,5.31s-.33,4-.43,6.21c-1-1.4-3-4.37-4.64-6.39-2.3-2.87-7.83-6.73-11.24-3.6-2.53,2.32-.81,5.35,1.34,7.17,2.73,2.31,5.92,2.36,9.31,2.62a23,23,0,0,1,5.21.63,61.82,61.82,0,0,0,.25,8.82c-1-.89-4.19-3.62-6.51-5.34-3-2.18-9.29-4.51-11.8-.6-1.85,2.89.59,5.37,3.14,6.59,3.23,1.53,6.33.76,9.67.15.8-.15,4.28-1,5.52-.66a44.31,44.31,0,0,0,2.21,10h0l.08.23c-.92-.53-4.84-2.77-7.6-4.07-3.33-1.58-10-2.63-11.69,1.69-1.25,3.19,1.61,5.16,4.35,5.85,3.47.89,6.36-.47,9.52-1.72.79-.31,4.28-2,5.44-1.7a41.83,41.83,0,0,0,6.8,12.08l.36-.28a41.16,41.16,0,0,1-6.75-12c1.52.15,5.43.51,8.18.57,3.68.07,10.19-1.69,10-6.33C392.23,374.54,388.81,373.92,386,374.4Z" style="fill:#fff"></path><path d="M115.65,362.93c-3.51-.7-6.32.81-9.41,2.22-.7.32-3.53,1.84-4.94,2a43.83,43.83,0,0,1,1.5-10c1.16.59,5,2.48,7.66,3.59,3.4,1.39,10.11,2.09,11.58-2.31,1.08-3.26-1.89-5.07-4.66-5.62-3.51-.7-6.32.81-9.41,2.23-.74.33-3.83,2-5.14,2a60.36,60.36,0,0,1,2.84-8.1.53.53,0,0,1,.06.14l0-.16c.14,0,5.31,1.11,8.71,1.53,3.65.46,10.31-.63,10.57-5.26.19-3.42-3.15-4.39-6-4.2-3.57.25-5.89,2.44-8.49,4.62-.7.57-3.78,3.52-4.82,3.31v0c1-2.26,2-4.33,2.87-6.19s1.7-3.49,2.28-4.94c1.6.33,5.29,1.05,7.93,1.38,3.65.45,10.31-.64,10.57-5.27.19-3.42-3.15-4.39-6-4.2-3.57.25-5.89,2.44-8.5,4.62a27.38,27.38,0,0,1-3.86,3c.07-.17.13-.35.19-.52a67.42,67.42,0,0,0,2.4-9c1.63-.08,5.39-.29,8-.62,3.65-.46,9.84-3.16,9-7.71-.66-3.37-4.13-3.48-6.82-2.6-3.39,1.12-5.1,3.81-7.1,6.57a27.85,27.85,0,0,1-3,3.86c.57-3,.86-5.36,1-6.44,1-1.37,3.12-4.33,4.48-6.53,1.93-3.13,3.72-9.64-.39-11.8-3-1.61-5.3,1-6.3,3.67-1.26,3.35-.24,6.37.66,9.65a31.68,31.68,0,0,1,1.13,4.58c0,.24-.06.63-.12,1.16a0,0,0,0,0,0,0v0c-.13,1.09-.36,2.74-.71,4.73-.14-1.87-.39-4.9-.72-7.13-.53-3.64-3.34-9.78-7.88-8.8-3.35.72-3.4,4.2-2.46,6.87,1.18,3.37,3.91,5,6.7,7a23.56,23.56,0,0,1,4.16,3.15,3,3,0,0,1-.07.32.89.89,0,0,1-.35.13l.33,0a65.67,65.67,0,0,1-2.36,8.86c-.08.23-.17.47-.26.71-.41-1.3-1.66-5.28-2.73-8-1.36-3.41-5.53-8.72-9.71-6.72-3.09,1.49-2.33,4.88-.8,7.26,1.93,3,5,4,8.14,5.21.76.3,4.18,1.39,5,2.34l0,.08a1,1,0,0,1-.37,0l.33.07c-.57,1.42-1.35,3-2.23,4.83s-1.74,3.59-2.63,5.64c-.39-1.66-1.25-5.17-2-7.63-1.11-3.51-4.88-9.11-9.2-7.41-3.19,1.25-2.67,4.69-1.32,7.17,1.71,3.14,4.67,4.34,7.74,5.8a23.89,23.89,0,0,1,4.64,2.46,61.24,61.24,0,0,0-2.95,8.32c-.63-1.19-2.61-4.89-4.15-7.33-2-3.1-7-7.55-10.79-4.81-2.76,2-1.39,5.22.56,7.28,2.45,2.59,5.62,3,9,3.62.8.15,4.36.59,5.38,1.37a44.42,44.42,0,0,0-1.52,10.1l-.13,0,.13.07c0,.08,0,.16,0,.24-.66-.82-3.52-4.33-5.62-6.54-2.54-2.66-8.38-6.05-11.52-2.63-2.32,2.52-.35,5.39,2,7,2.91,2.07,6.1,1.85,9.49,1.82.86,0,4.71-.29,5.69.37a41.82,41.82,0,0,0,2,13.73l.43-.14a41.29,41.29,0,0,1-2-13.65c1.37.69,4.89,2.43,7.43,3.47,3.41,1.4,10.12,2.09,11.58-2.31C121.39,365.29,118.42,363.48,115.65,362.93Z" style="fill:#fff"></path><path d="M163.54,388.2c-2.33-.46-4.19.54-6.24,1.48A15,15,0,0,1,154,391a29.14,29.14,0,0,1,1-6.61c.77.39,3.29,1.65,5.08,2.38,2.25.92,6.71,1.39,7.68-1.53.72-2.16-1.25-3.36-3.09-3.73-2.33-.46-4.19.54-6.24,1.48-.49.22-2.54,1.33-3.41,1.32a42.12,42.12,0,0,1,1.88-5.37.26.26,0,0,1,0,.1l0-.11c.1,0,3.52.74,5.78,1,2.42.3,6.84-.42,7-3.49.13-2.27-2.09-2.92-4-2.79-2.36.17-3.9,1.62-5.63,3.06-.46.39-2.51,2.34-3.2,2.2h0c.64-1.5,1.3-2.87,1.9-4.11s1.12-2.31,1.51-3.27c1.06.21,3.51.69,5.26.91,2.42.3,6.84-.42,7-3.5.13-2.27-2.09-2.91-4-2.78-2.36.16-3.9,1.62-5.63,3.06a18.29,18.29,0,0,1-2.57,2c0-.12.09-.24.13-.35a44,44,0,0,0,1.59-6c1.08-.05,3.58-.19,5.33-.41,2.42-.31,6.52-2.1,5.93-5.12-.43-2.23-2.74-2.31-4.52-1.72-2.25.74-3.38,2.53-4.71,4.35a18.5,18.5,0,0,1-2,2.57c.38-2,.57-3.56.64-4.27.66-.91,2.07-2.87,3-4.33,1.28-2.08,2.47-6.4-.25-7.83-2-1.07-3.52.68-4.18,2.43-.84,2.22-.16,4.23.43,6.4a19.8,19.8,0,0,1,.76,3c0,.16-.05.42-.09.77v0h0c-.08.72-.23,1.82-.47,3.13-.09-1.24-.26-3.25-.47-4.73-.36-2.41-2.22-6.48-5.23-5.83-2.22.48-2.26,2.78-1.64,4.55.79,2.24,2.6,3.34,4.45,4.63a15.28,15.28,0,0,1,2.76,2.09c0,.07,0,.14,0,.21a.52.52,0,0,1-.24.08h.22a43.17,43.17,0,0,1-1.57,5.88c-.05.15-.11.31-.17.47-.27-.86-1.1-3.5-1.81-5.28-.9-2.26-3.67-5.78-6.44-4.45-2,1-1.55,3.23-.53,4.81,1.28,2,3.3,2.64,5.4,3.46.51.19,2.77.92,3.34,1.55l0,.05a.7.7,0,0,1-.24,0l.22.05c-.38.94-.9,2-1.48,3.2s-1.16,2.38-1.75,3.74c-.26-1.1-.83-3.43-1.34-5.06-.74-2.33-3.24-6-6.1-4.92-2.12.83-1.78,3.12-.88,4.76,1.13,2.08,3.1,2.88,5.13,3.85a14.81,14.81,0,0,1,3.08,1.63,41.7,41.7,0,0,0-2,5.51c-.41-.78-1.73-3.23-2.75-4.85-1.31-2.06-4.67-5-7.16-3.19-1.83,1.34-.92,3.46.37,4.82,1.63,1.72,3.73,2,5.95,2.41.53.1,2.89.39,3.57.9a29.37,29.37,0,0,0-1,6.7l-.09,0,.09,0c0,.05,0,.11,0,.16-.44-.54-2.33-2.87-3.73-4.34-1.68-1.76-5.55-4-7.63-1.74-1.54,1.67-.24,3.58,1.29,4.66,1.93,1.38,4.05,1.23,6.3,1.21.57,0,3.12-.19,3.77.25a27.83,27.83,0,0,0,1.33,9.1l.29-.09a27.26,27.26,0,0,1-1.31-9.06c.91.46,3.24,1.62,4.93,2.31,2.25.92,6.71,1.39,7.68-1.53C167.35,389.77,165.38,388.57,163.54,388.2Z" style="fill:#fff"></path><path d="M156.27,387.61c-2,1.2-2.77,3.19-3.67,5.26A14.32,14.32,0,0,1,151,396a29.12,29.12,0,0,1-3.67-5.58c.84-.23,3.55-1,5.38-1.62,2.3-.81,5.92-3.43,4.7-6.26-.9-2.08-3.17-1.67-4.78-.71-2,1.2-2.77,3.19-3.67,5.26a13.05,13.05,0,0,1-1.66,3.26,41.63,41.63,0,0,1-2.17-5.26l.09,0-.09-.06c.09-.05,3.12-1.8,5-3.1s4.81-4.87,2.89-7.27c-1.41-1.78-3.49-.78-4.8.56-1.66,1.7-1.84,3.81-2.16,6-.09.59-.32,3.41-.92,3.77h0c-.53-1.55-.94-3-1.32-4.33s-.7-2.47-1.06-3.45c.94-.55,3.08-1.82,4.53-2.83,2-1.38,4.82-4.87,2.9-7.27-1.42-1.78-3.5-.78-4.81.56-1.65,1.7-1.83,3.81-2.16,6a18.4,18.4,0,0,1-.57,3.21c0-.12-.09-.23-.13-.34a44.44,44.44,0,0,0-2.81-5.53c.77-.76,2.54-2.53,3.7-3.86,1.6-1.84,3.46-5.91,1-7.77-1.81-1.37-3.58.11-4.52,1.73-1.18,2.06-.84,4.15-.6,6.39a20,20,0,0,1,.24,3.22c-1-1.73-1.95-3-2.37-3.62-.11-1.11-.37-3.51-.67-5.2-.43-2.4-2.42-6.41-5.41-5.67-2.21.55-2.17,2.85-1.49,4.6.85,2.22,2.7,3.26,4.59,4.48a21.27,21.27,0,0,1,2.59,1.77l.45.63h0c.42.6,1,1.51,1.74,2.65-.89-.86-2.36-2.25-3.51-3.21-1.87-1.56-6-3.35-7.78-.86-1.34,1.84.17,3.58,1.82,4.48,2.07,1.15,4.15.76,6.39.48a15.55,15.55,0,0,1,3.45-.27,1.74,1.74,0,0,1,.11.18.57.57,0,0,1-.12.22l.16-.15a45.53,45.53,0,0,1,2.75,5.42l.18.47c-.77-.46-3.15-1.88-4.87-2.73-2.18-1.09-6.59-1.87-7.77,1-.87,2.1,1,3.44,2.81,3.94,2.29.63,4.22-.23,6.33-1,.51-.19,2.69-1.16,3.53-1.07l0,0a.5.5,0,0,1-.17.18l.2-.11c.34.95.67,2.09,1,3.37s.73,2.55,1.19,4c-.93-.64-2.9-2-4.38-2.87-2.1-1.25-6.43-2.35-7.82.4-1,2,.75,3.5,2.52,4.13,2.23.8,4.22.08,6.39-.55a15.39,15.39,0,0,1,3.38-.84,40.54,40.54,0,0,0,2.22,5.42c-.84-.31-3.45-1.26-5.29-1.79-2.35-.66-6.83-.62-7.46,2.39-.47,2.23,1.62,3.2,3.49,3.36,2.36.19,4.1-1,6-2.18.47-.28,2.42-1.63,3.27-1.7a29.77,29.77,0,0,0,3.71,5.67l-.08,0,.09,0,.11.12c-.7-.11-3.66-.58-5.68-.74-2.43-.2-6.81.71-6.85,3.79,0,2.27,2.21,2.82,4.07,2.61,2.36-.26,3.83-1.78,5.5-3.3.42-.38,2.2-2.22,3-2.33a27.71,27.71,0,0,0,7.05,5.9l.16-.26a27.23,27.23,0,0,1-7-5.88c1-.26,3.49-.95,5.21-1.56,2.3-.82,5.92-3.44,4.7-6.27C160.15,386.24,157.88,386.65,156.27,387.61Z" style="fill:#fff"></path></g><g id="freepik--Icons--inject-53"><path d="M131.05,274.4a16.88,16.88,0,0,0-16.18-16.87v-.18h8.76a9.56,9.56,0,0,0-18.93,0h8.77v.18a16.88,16.88,0,0,0-8.42,31.08l-2.23,6.61a1.16,1.16,0,0,0,.73,1.47,1.19,1.19,0,0,0,.37.06A1.18,1.18,0,0,0,105,296l2.09-6.22a16.87,16.87,0,0,0,13.84.13l2,6.09a1.16,1.16,0,1,0,2.19-.74L123,288.78A16.88,16.88,0,0,0,131.05,274.4Zm-16.88,13.44a13.44,13.44,0,1,1,13.45-13.44A13.46,13.46,0,0,1,114.17,287.84Z" style="fill:#263238"></path><path d="M114.17,272.84h-.06l-4.48-7.09a.77.77,0,1,0-1.3.82l4.47,7.09a1.61,1.61,0,0,0-.19.73,1.56,1.56,0,0,0,.79,1.35v5.91a.78.78,0,0,0,1.55,0v-5.91a1.56,1.56,0,0,0-.78-2.91Z" style="fill:#263238"></path><circle cx="114.49" cy="273.67" r="32.73" transform="translate(-57.61 32.04) rotate(-12.76)" style="fill:none;stroke:#0C62CC;stroke-linecap:round;stroke-linejoin:round;stroke-width:2px"></circle><path d="M399.45,267V256.92a2.51,2.51,0,0,0-2.72-2.24H379.52a2.51,2.51,0,0,0-2.72,2.24V267a2.24,2.24,0,0,0,1.46,2,2.22,2.22,0,0,0-1.46,2v5.68a2.32,2.32,0,0,0,1.85,2.11,7.88,7.88,0,0,0-1.85,4.42v13.32a2.51,2.51,0,0,0,2.72,2.23h17.21a2.51,2.51,0,0,0,2.72-2.23V283.14a7.88,7.88,0,0,0-1.85-4.42,2.32,2.32,0,0,0,1.85-2.11v-5.68a2.22,2.22,0,0,0-1.46-2A2.24,2.24,0,0,0,399.45,267Z" style="fill:#263238"></path><path d="M386.42,248.65h3.4a1.52,1.52,0,0,1,1.52,1.52v3.26a0,0,0,0,1,0,0H384.9a0,0,0,0,1,0,0v-3.26A1.52,1.52,0,0,1,386.42,248.65Z" style="fill:#263238"></path><rect x="385.63" y="252.03" width="5" height="4.78" style="fill:#263238"></rect><path d="M378.11,267.93a2.1,2.1,0,0,0,1.28,1.73,2.08,2.08,0,0,0-1.29,1.84v5.32a2.14,2.14,0,0,0,1.63,2,7.58,7.58,0,0,0-1.63,4.14v12.46a2.27,2.27,0,0,0,2.41,2.09h15.23a2.27,2.27,0,0,0,2.41-2.09V282.93a7.58,7.58,0,0,0-1.63-4.14,2.14,2.14,0,0,0,1.63-2V271.5a2.08,2.08,0,0,0-1.29-1.84,2.1,2.1,0,0,0,1.28-1.73h0s0-.08,0-.12v-5.63a32.41,32.41,0,0,1-7.39,1.8c-4.72.49-6.05-1.15-10.21-1.15a5.39,5.39,0,0,0-2.45.62v4.36s0,.08,0,.12Z" style="fill:#fff"></path><path d="M393.24,277.64a5.32,5.32,0,1,1-10.63,0c0-2.94,5.31-9,5.31-9S393.24,274.7,393.24,277.64Z" style="fill:#263238"></path><circle cx="388.12" cy="273.67" r="32.73" transform="translate(-79.83 354.6) rotate(-45)" style="fill:none;stroke:#0C62CC;stroke-linecap:round;stroke-linejoin:round;stroke-width:2px"></circle><ellipse cx="137.53" cy="198.67" rx="12.9" ry="14.78" style="fill:#263238"></ellipse><path d="M137.53,213.92c-7.38,0-13.37-6.84-13.37-15.25s6-15.25,13.37-15.25,13.37,6.84,13.37,15.25S144.9,213.92,137.53,213.92Zm0-29.56c-6.86,0-12.44,6.42-12.44,14.31S130.67,213,137.53,213,150,206.56,150,198.67,144.38,184.36,137.53,184.36Z" style="fill:#fff"></path><ellipse cx="133.31" cy="198.67" rx="12.9" ry="14.78" style="fill:#263238"></ellipse><path d="M133.31,213.92c-7.38,0-13.38-6.84-13.38-15.25s6-15.25,13.38-15.25,13.37,6.84,13.37,15.25S140.68,213.92,133.31,213.92Zm0-29.56c-6.86,0-12.44,6.42-12.44,14.31S126.45,213,133.31,213s12.43-6.42,12.43-14.31S140.16,184.36,133.31,184.36Z" style="fill:#fff"></path><path d="M134.71,200.31H108.2v-4.22h26.51a2.1,2.1,0,0,1,2.11,2.11h0A2.11,2.11,0,0,1,134.71,200.31Z" style="fill:#263238"></path><path d="M134.71,200.78h-27v-5.16h27a2.58,2.58,0,1,1,0,5.16Zm-26-.94h26a1.64,1.64,0,1,0,0-3.28h-26Z" style="fill:#fff"></path><ellipse cx="114.54" cy="198.67" rx="12.9" ry="14.78" style="fill:#263238"></ellipse><path d="M114.54,213.92c-7.38,0-13.38-6.84-13.38-15.25s6-15.25,13.38-15.25,13.37,6.84,13.37,15.25S121.91,213.92,114.54,213.92Zm0-29.56c-6.86,0-12.44,6.42-12.44,14.31S107.68,213,114.54,213,127,206.56,127,198.67,121.39,184.36,114.54,184.36Z" style="fill:#fff"></path><ellipse cx="110.31" cy="198.67" rx="12.9" ry="14.78" style="fill:#263238"></ellipse><path d="M110.31,213.92c-7.37,0-13.37-6.84-13.37-15.25s6-15.25,13.37-15.25,13.38,6.84,13.38,15.25S117.69,213.92,110.31,213.92Zm0-29.56c-6.85,0-12.43,6.42-12.43,14.31S103.46,213,110.31,213s12.44-6.42,12.44-14.31S117.17,184.36,110.31,184.36Z" style="fill:#fff"></path><path d="M115,198.67c0,3-2.11,5.39-4.71,5.39s-4.71-2.41-4.71-5.39,2.11-5.4,4.71-5.4S115,195.69,115,198.67Z" style="fill:#263238"></path><path d="M110.31,204.53c-2.85,0-5.18-2.63-5.18-5.86s2.33-5.87,5.18-5.87,5.18,2.63,5.18,5.87S113.17,204.53,110.31,204.53Zm0-10.79c-2.34,0-4.24,2.21-4.24,4.93s1.9,4.92,4.24,4.92,4.24-2.21,4.24-4.92S112.65,193.74,110.31,193.74Z" style="fill:#fff"></path><path d="M113.15,198.67c0,3-2.11,5.39-4.71,5.39s-4.71-2.41-4.71-5.39,2.1-5.4,4.71-5.4S113.15,195.69,113.15,198.67Z" style="fill:#263238"></path><path d="M108.44,204.53c-2.86,0-5.18-2.63-5.18-5.86s2.32-5.87,5.18-5.87,5.18,2.63,5.18,5.87S111.29,204.53,108.44,204.53Zm0-10.79c-2.34,0-4.25,2.21-4.25,4.93s1.91,4.92,4.25,4.92,4.24-2.21,4.24-4.92S110.77,193.74,108.44,193.74Z" style="fill:#fff"></path><circle cx="124.59" cy="197.89" r="32.73" transform="translate(-106.53 233.52) rotate(-66.57)" style="fill:none;stroke:#0C62CC;stroke-linecap:round;stroke-linejoin:round;stroke-width:2px"></circle><path d="M403.72,182.9s3.77-4.5.84-5.66-5.56,7.87-5.56,7.87.59-4.81-1.38-7-2.55,2.58-1.87,6.49a24.3,24.3,0,0,0,1.41,5.06,21.29,21.29,0,0,0-2.65-2.37c-6.34-4.86-12.68,6-12.68,6s-15.47,13-18.05,22,24.55-5.57,32-11.26c5.37-4.09,5.62-8.45,3-12.39,2.65.23,8.14.52,9.69-.72,2.07-1.66-3.59-2.5-3.59-2.5s8.7-2.66,9.81-6.6S403.72,182.9,403.72,182.9Z" style="fill:#263238"></path><path d="M373.11,208.68a.5.5,0,0,1-.44-.08,4.13,4.13,0,0,0-1.87-.74.49.49,0,0,1-.46-.53.49.49,0,0,1,.53-.46,5,5,0,0,1,2.39.93.5.5,0,0,1,.11.69A.48.48,0,0,1,373.11,208.68Z" style="fill:#fff"></path><path d="M389.25,205.34a.51.51,0,0,1-.63-.33,14,14,0,0,0-3.2-5.75.5.5,0,0,1,.71-.69,14.82,14.82,0,0,1,3.45,6.14A.51.51,0,0,1,389.25,205.34Z" style="fill:#fff"></path><path d="M383.85,197.74a.51.51,0,0,1-.4,0,6.83,6.83,0,0,0-2.44-.94.51.51,0,0,1-.44-.56.5.5,0,0,1,.55-.44,7.86,7.86,0,0,1,2.84,1.08.5.5,0,0,1-.11.9Z" style="fill:#fff"></path><path d="M395.54,202.38a.58.58,0,0,1-.23,0,.51.51,0,0,1-.41-.58,5.69,5.69,0,0,0-2.48-5.85.5.5,0,0,1,.51-.87,6.82,6.82,0,0,1,3,6.89A.48.48,0,0,1,395.54,202.38Z" style="fill:#fff"></path><path d="M381.45,209.27a.51.51,0,0,1-.63-.33,5.45,5.45,0,0,0-3-3,.51.51,0,0,1-.28-.65.49.49,0,0,1,.64-.29,6.46,6.46,0,0,1,3.64,3.67A.51.51,0,0,1,381.45,209.27Z" style="fill:#fff"></path><circle cx="388.88" cy="197.89" r="32.73" transform="translate(-34.72 93.26) rotate(-13.1)" style="fill:none;stroke:#0C62CC;stroke-linecap:round;stroke-linejoin:round;stroke-width:2px"></circle><path d="M186.57,134.51a2.55,2.55,0,0,0,1.46-1.09c1.17-1.85.63-5.33-.06-7.8a16.91,16.91,0,0,0-12.8-7C181.21,121.22,185.67,127.27,186.57,134.51Z" style="fill:#263238"></path><path d="M169.29,140.1a40.21,40.21,0,0,0,15.84-.81,20.58,20.58,0,0,0,.12-2.09q0-.51,0-1h-.05c-3.73,0-7.12-2.34-10.7-4.8a62.82,62.82,0,0,0-5.32-3.41,17.22,17.22,0,0,0-8.7-2.2,16.86,16.86,0,0,0-3.13,9.75C158.51,136.71,161.77,139.1,169.29,140.1Z" style="fill:#263238"></path><path d="M190.19,129.81a7.66,7.66,0,0,1-.91,4.41,4.08,4.08,0,0,1-2.58,1.8c0,.39,0,.78,0,1.18s0,1.07-.06,1.6a17.41,17.41,0,0,0,4.5-2.29c0-.32,0-.63,0-.94A16.89,16.89,0,0,0,190.19,129.81Z" style="fill:#263238"></path><path d="M186,142.94a4.69,4.69,0,0,1,3.17.74,17,17,0,0,0,1.8-5.23,21.26,21.26,0,0,1-4.46,2A20.34,20.34,0,0,1,186,142.94Z" style="fill:#263238"></path><path d="M183.62,145.18c-.89.43-1.87,1-2.93,1.62-2.69,1.57-5.73,3.35-9.13,3.89a15.87,15.87,0,0,1-2.34.18,16.12,16.12,0,0,1-2.68-.23,16.78,16.78,0,0,0,12.07,1.29A18.12,18.12,0,0,0,183.62,145.18Z" style="fill:#263238"></path><path d="M185.77,144.44l-.28.06a20.19,20.19,0,0,1-3.47,6.12,16.92,16.92,0,0,0,6.35-5.67A3.48,3.48,0,0,0,185.77,144.44Z" style="fill:#263238"></path><path d="M169.86,126.67a63.77,63.77,0,0,1,5.46,3.49c3.49,2.4,6.54,4.5,9.77,4.53-1-8.17-6.88-14.71-14.33-15.71a17,17,0,0,0-9.12,5.3A18.82,18.82,0,0,1,169.86,126.67Z" style="fill:#263238"></path><path d="M171.33,149.22c3.12-.49,6-2.2,8.6-3.7a26.29,26.29,0,0,1,4.4-2.25,20.84,20.84,0,0,0,.58-2.36,37.61,37.61,0,0,1-9.34,1.11,49.89,49.89,0,0,1-6.47-.44c-6.23-.83-9.75-2.59-11.65-4a16.92,16.92,0,0,0,5.12,10.22A15.17,15.17,0,0,0,171.33,149.22Z" style="fill:#263238"></path><circle cx="174.27" cy="135.59" r="32.73" transform="translate(-26.19 43.01) rotate(-13.1)" style="fill:none;stroke:#0C62CC;stroke-linecap:round;stroke-linejoin:round;stroke-width:2px"></circle><path d="M355.2,136.71c0,8.78-7.18,18.1-14.06,18.1-1.68,0-6.07,0-7.63-.6-8.52-3.29-11.81-11.45-11.81-18.55,0-3.68,1.1-7.7,4-10.16,3.87-3.25,8.13-1.2,12.62-1.2,3.91,0,9.39-1.6,12.37.59C354.47,127.67,355.2,132.34,355.2,136.71Z" style="fill:#263238"></path><path d="M337.89,125.49a59.94,59.94,0,0,1,2.35-6.13,7.14,7.14,0,0,1,2.85-3l1.79.75a15.16,15.16,0,0,0-3.44,3.14,38.22,38.22,0,0,0-3.14,6.28" style="fill:#263238"></path><path d="M339.05,122.8a3,3,0,0,0-1.05-2.39,44.66,44.66,0,0,0-5.83-3.29s-.45,2.54,1,4S339.05,122.8,339.05,122.8Z" style="fill:#263238"></path><path d="M350.59,130.81c-.56,1-2.27,1.06-3.81.17s-2.34-2.41-1.77-3.39,2.27-1.06,3.82-.17S351.16,129.83,350.59,130.81Z" style="fill:#fff"></path><circle cx="338.45" cy="135.59" r="32.73" transform="translate(92.19 404.46) rotate(-69.35)" style="fill:none;stroke:#0C62CC;stroke-linecap:round;stroke-linejoin:round;stroke-width:2px"></circle><g style="clip-path:url(#freepik--clip-path--inject-53)"><path d="M281.49,106.67l-.15-.08c-.1,0-10.17-5.44-12.56-5.92a57.37,57.37,0,0,0-8.75-.26l-1.1,0c-1.52,0-2.78.31-2.94.71-.06.18.1.58.77,1.19,2,1.82,5.88,2.1,7.74,2.24a6.82,6.82,0,0,1,1.3.15,10.66,10.66,0,0,1,2.69,2.38l.62.7-25.91,2.66a1.21,1.21,0,0,0,.13,2.42h0l19.5-.3-21.93,4.91a1,1,0,0,0-.65.47,1,1,0,0,0-.12.8,1.06,1.06,0,0,0,1.08.76l16.41-1.39.18.94-14.67,4.29a1.15,1.15,0,0,0,.52,2.23l14.18-2.48.25.93-8.53,3.11a.49.49,0,0,0-.3.37.47.47,0,0,0,.19.44.4.4,0,0,0,.31.08c2.37-.24,14.28-1.5,16.27-1.94,2.17-.48,13.49-5.15,13.6-5.2l.17,0,22.75-.49-5.18-16.73-.05,0Z" style="fill:#263238"></path><path d="M246.25,121.45l4.76-1.39.29-.43L247,120Z" style="fill:#263238"></path><polygon points="251.47 119.62 251.36 119.95 252.94 119.49 251.47 119.62" style="fill:#263238"></polygon><path d="M244.81,113.82c-.38.58-.69,1-.89,1.33s-.31.51-.45.78l10-2.24Z" style="fill:#263238"></path><path d="M248.65,116.64,247.48,119l10.16-.86.18.94-6.83,2-1.15,3.44,5.2-.91c1.46-1.48,2.81-3,2.81-3a23.3,23.3,0,0,0-1.9,2.82l1.9-.33.25.93-2.56.93a.4.4,0,0,0,.07.13c.75.75,2,1.49,2.74.75s6.72-8.46,8-9.21a60.64,60.64,0,0,0,8.71-6c.83-.71,2.57-2.55,4.73-4.92-3-1.54-9.16-4.72-11-5.08a57.37,57.37,0,0,0-8.75-.26l-1.1,0c-1.52,0-2.78.31-2.94.71-.06.18.1.58.77,1.19,2,1.82,5.88,2.1,7.74,2.24a6.82,6.82,0,0,1,1.3.15,10.66,10.66,0,0,1,2.69,2.38l.62.7L247.33,110c-.68,1-1.32,2-1.87,2.81l17.39-.27L243,117a17.35,17.35,0,0,0-.75,2.4l4.06-.34C247.47,117.83,248.65,116.64,248.65,116.64Z" style="fill:#263238"></path><path d="M243.92,121.87a11.65,11.65,0,0,1,1.39-1.73l-3.3.28-.08.45S243.42,122.86,243.92,121.87Z" style="fill:#263238"></path><path d="M248.4,101.47a24,24,0,0,1,5-.5L248,109l19.11-2a7.35,7.35,0,0,0-1.64-1.4,8.52,8.52,0,0,0-1.06-.1c-2.12-.16-6.07-.45-8.31-2.49-.35-.31-1.4-1.27-1-2.25.44-1.15,2.59-1.32,3.83-1.32l1.08,0a57.79,57.79,0,0,1,9,.28c2,.4,8.56,3.77,11.45,5.29,6.86-7.6,17.24-19.72,17.24-19.72L281,79.08c-.75,0-8.46,15.17-8.46,15.17s-13.43-2-15.17-1.74-9.46,4.48-11.2,5.23-3.73,1.49-2.74,2.49A5.7,5.7,0,0,0,248.4,101.47Z" style="fill:#263238"></path><path d="M252,126.25l-.7.26a1.73,1.73,0,0,0,.54-.16Z" style="fill:#263238"></path><path d="M252.7,125l-2.87.5a2.7,2.7,0,0,0,.31.43Z" style="fill:#263238"></path><path d="M250.16,121.31l-4.5,1.31-.25.49a8,8,0,0,0,.55,2.08l1.62-.29C248.32,124,249.33,122.51,250.16,121.31Z" style="fill:#263238"></path></g><path d="M255.12,92.29s-3.54-7.55-6.17-5C246.15,90.08,255.12,92.29,255.12,92.29Z" style="fill:#263238"></path><path d="M266,92.29s3.54-7.55,6.18-5C275,90.08,266,92.29,266,92.29Z" style="fill:#263238"></path><path d="M256.85,91.75a.49.49,0,0,1-.48-.49V74.7a.49.49,0,0,1,.48-.48.48.48,0,0,1,.48.48V91.26A.48.48,0,0,1,256.85,91.75Z" style="fill:#263238"></path><path d="M260.37,97.77a.48.48,0,0,1-.48-.48V93.77a.48.48,0,0,1,.48-.48.49.49,0,0,1,.48.48v3.52A.49.49,0,0,1,260.37,97.77Z" style="fill:#fff"></path><path d="M260.37,94.26a.48.48,0,0,1-.48-.49v-9a.47.47,0,0,1,.48-.48.48.48,0,0,1,.48.48v9A.49.49,0,0,1,260.37,94.26Z" style="fill:#263238"></path><path d="M264.63,96.26a.48.48,0,0,1-.48-.48V81a.49.49,0,0,1,.48-.49.48.48,0,0,1,.48.49v14.8A.47.47,0,0,1,264.63,96.26Z" style="fill:#263238"></path><path d="M264.63,80a.48.48,0,0,1-.48-.48V75.71a.49.49,0,0,1,.48-.49.48.48,0,0,1,.48.49v3.76A.47.47,0,0,1,264.63,80Z" style="fill:#263238"></path><path d="M252.34,103.31a8.17,8.17,0,0,0-6.28-.25c-3.51,1.25-2,3.76.25,3.26S252.34,103.31,252.34,103.31Z" style="fill:#263238"></path><path d="M253.59,108.81a.48.48,0,0,1-.48-.48v-4.52a.49.49,0,0,1,.48-.48.48.48,0,0,1,.48.48v4.52A.47.47,0,0,1,253.59,108.81Z" style="fill:#fff"></path><circle cx="261.83" cy="109.26" r="32.73" transform="translate(-0.57 217.14) rotate(-45)" style="fill:none;stroke:#0C62CC;stroke-linecap:round;stroke-linejoin:round;stroke-width:2px"></circle></g><g id="freepik--Floor--inject-53"><ellipse cx="241" cy="425.5" rx="87.57" ry="13.5" style="fill:#263238"></ellipse></g><g id="freepik--Character--inject-53"><path d="M226.48,278.49a175.75,175.75,0,0,0-3.4,19.54c-1.44,11.71.94,30,.94,30s-17-8.72-26.25-7.57-46.5,14.37-51.41,13.91c0,0-3.67,6.51-.1,6.42,4.88-.12,56.89,1,65.3,1.95,8.59,1,20.76,3.6,25-.28,2.9-2.63,13.51-35.63,13.67-46.45a148.68,148.68,0,0,1,1.28-18.19" style="fill:#fff;stroke:#263238;stroke-linecap:round;stroke-linejoin:round"></path><path d="M223.07,298c-1.43,11.71,1,30,1,30s-17-8.72-26.25-7.57a81.12,81.12,0,0,0-9.69,2.29c-2.32,4.51-4.39,11.42-1.16,18.86,11.28.34,21.33.74,24.64,1.13,8.59,1,20.76,3.6,25-.28,2.9-2.63,13.51-35.63,13.67-46.45a148.68,148.68,0,0,1,1.28-18.19l-25.06.63A177,177,0,0,0,223.07,298Z" style="fill:#263238;stroke:#263238;stroke-linecap:round;stroke-linejoin:round"></path><path d="M239.28,283.35l-5.57,2.81s-1.86-.2,1.67-5.08" style="fill:#fff;stroke:#263238;stroke-linecap:round;stroke-linejoin:round"></path><path d="M257.94,167.14s-5.6-3.88-15.06-4.31S227,175.31,228.25,183.49s.86,16.78-10.33,15.49-24.95,0-28,12,10.32,27.11,25.38,21.52,11.43-16.65,18.5-18.94,14.2-2.15,15.06-10.75-4.73-16.35-.86-24.1A31.53,31.53,0,0,1,257.94,167.14Z" style="fill:#263238;stroke:#263238;stroke-linecap:round;stroke-linejoin:round"></path><path d="M251.82,168.9s-11.74-2.28-15.66,7.5,4.9,18.26,2,28-14,17.28-23.15,14S197,212,196.38,217.17s6.19,6.52,7.82,5.54-.65-2.93-.65-2.93" style="fill:none;stroke:#fff;stroke-linecap:round;stroke-linejoin:round"></path><path d="M214.23,207.1a23.47,23.47,0,0,0-4.16-.7" style="fill:none;stroke:#fff;stroke-linecap:round;stroke-linejoin:round"></path><path d="M242.69,167.6s-11.09,2-11.09,13.69,5.54,18.92.65,26.42c-3.39,5.2-8,2.88-13.82.75" style="fill:none;stroke:#fff;stroke-linecap:round;stroke-linejoin:round"></path><path d="M264.35,178.74s.39,6.29-1,10-7.6,9.64-7.24,12.8,9.42,9.66,12.31,8.57,5.3-17.51,5.3-17.51S268.64,180.92,264.35,178.74Z" style="fill:#fff;stroke:#263238;stroke-linecap:round;stroke-linejoin:round"></path><path d="M269.42,190.17c1.86,3.48,3.45,6.37,7.59,7.13,5.67,1,7.76-6.3,8.52-13.7a2.16,2.16,0,0,0,.59.16,4.7,4.7,0,0,0,3.94-1.25c.46-.47-.24-1.37-1.16-2.34-2.7-2.86-2.93-5.07-2.9-9a19.56,19.56,0,0,0-.44-5.24,10.15,10.15,0,0,0-.37-1.1c-4.13-10.1-24.8-10.47-25.92,2a35.1,35.1,0,0,0,1.52,13.06" style="fill:#fff"></path><g style="clip-path:url(#freepik--clip-path-2--inject-53)"><path d="M286,171.2a19.56,19.56,0,0,0-.44-5.24,10.15,10.15,0,0,0-.37-1.1c-4.13-10.1-24.8-10.47-25.92,2a34.85,34.85,0,0,0,1.51,13,151.24,151.24,0,0,1,25.28-6C286,173.05,286,172.18,286,171.2Z" style="fill:#0C62CC"></path><path d="M286,171.2a19.56,19.56,0,0,0-.44-5.24,10.15,10.15,0,0,0-.37-1.1c-4.13-10.1-24.8-10.47-25.92,2a34.85,34.85,0,0,0,1.51,13,151.24,151.24,0,0,1,25.28-6C286,173.05,286,172.18,286,171.2Z" style="fill:#fff;opacity:0.5"></path></g><path d="M269.42,190.17c1.86,3.48,3.45,6.37,7.59,7.13,5.67,1,7.76-6.3,8.52-13.7a2.16,2.16,0,0,0,.59.16,4.7,4.7,0,0,0,3.94-1.25c.46-.47-.24-1.37-1.16-2.34-2.7-2.86-2.93-5.07-2.9-9a19.56,19.56,0,0,0-.44-5.24,10.15,10.15,0,0,0-.37-1.1c-4.13-10.1-24.8-10.47-25.92,2a35.1,35.1,0,0,0,1.52,13.06" style="fill:none;stroke:#263238;stroke-linecap:round;stroke-linejoin:round"></path><path d="M283.14,175.78c0,.76-.21,1.39-.57,1.41s-.68-.58-.73-1.34.21-1.39.57-1.41S283.1,175,283.14,175.78Z" style="fill:#263238"></path><path d="M283,186.61s-3.07.2-3.69-2.05" style="fill:none;stroke:#263238;stroke-linecap:round;stroke-linejoin:round"></path><path d="M284,162.84c-5.87-8.06-24.88-2.17-25.92,9.37-.52,5.83-.74,13.66,4.86,14.57,1.73-5.43,7.32-5.58,7.14-8.37-.25-4.14,8-4,6.9-10.26C276.11,162.72,280.42,166,284,162.84Z" style="fill:#263238;stroke:#263238;stroke-linecap:round;stroke-linejoin:round"></path><path d="M258.28,176.84l28.8-9.71s-3.76-10-8.64-12.56-16.48,0-20.44,5.08S256.41,168.41,258.28,176.84Z" style="fill:#0C62CC"></path><g style="clip-path:url(#freepik--clip-path-3--inject-53)"><path d="M263.24,162.53c.32-4.78,5.31-7.91,6.68-8.68-4.67.73-9.6,2.83-11.92,5.8-4,5.08-1.59,8.76.28,17.19l8.88-3C265.51,170.6,263,166,263.24,162.53Z" style="opacity:0.2"></path></g><path d="M258.28,176.84l28.8-9.71s-3.76-10-8.64-12.56-16.48,0-20.44,5.08S256.41,168.41,258.28,176.84Z" style="fill:none;stroke:#263238;stroke-linecap:round;stroke-linejoin:round"></path><path d="M277.46,170.6s12.4-.43,18.51.2,2.32-2.5-8.89-3.67C287.08,167.13,279.6,169.79,277.46,170.6Z" style="fill:#fff;stroke:#263238;stroke-linecap:round;stroke-linejoin:round"></path><path d="M259.3,194.32s11.62,8.5,14.12,16.17c3.12,9.59,1.81,17.33-1.18,26s-6.9,9.07-9.24,18.29c-2.58,10.18-3.09,30.07-8.1,39.14-9.3,16.85-35.29,1.81-35.73-14.35-.48-17.47,15.69-27.9,17.56-36.68,2-9.52-.21-22.7,4.19-31.62S253.73,194,259.3,194.32Z" style="fill:#263238;stroke:#263238;stroke-linecap:round;stroke-linejoin:round"></path><path d="M255.88,202.64a15.26,15.26,0,0,0-7.61,4.87c-4.85,5.78-10.72,28.53-11.91,32-1.75,5.14-4.8,23.64-3.57,24s8.89.12,22.14,1.39,38.05-5.7,38.05-5.7,4.09,2.75,7.65,1.67c.46-.14.87-.28,1.25-.41a5,5,0,0,0,2.63-2.14,4.48,4.48,0,0,0,.55-1.22,3.87,3.87,0,0,0,.08-2,9.76,9.76,0,0,0-1-4.16c-.85-1.45-1.39-.65-2.57-1.28a7.61,7.61,0,0,0-4.71-.46c-1,.41-4.51,5.21-4.51,5.21S277.79,256.1,265,252c-11.55-3.69-14.3-3.67-14.3-3.67s11.14-25.59,15-32.75" style="fill:#0C62CC;stroke:#263238;stroke-linecap:round;stroke-linejoin:round"></path><path d="M300.63,260.94l.91-.3a5.45,5.45,0,0,0,3.24-2.74,3,3,0,0,0,.28-.73,3.87,3.87,0,0,0,.08-2,9.76,9.76,0,0,0-1-4.16c-.85-1.45-1.39-.65-2.57-1.28a7.61,7.61,0,0,0-4.71-.46c-1,.41-4.51,5.21-4.51,5.21a78.44,78.44,0,0,1-10.1.26l.13,7.13c6.16-1.35,10.64-2.61,10.64-2.61S297.07,262,300.63,260.94Z" style="fill:#fff;stroke:#263238;stroke-linecap:round;stroke-linejoin:round"></path><path d="M301.53,249.74s1.23,3.4.47,5.19-3.32-2.55-3.32-2.55" style="fill:none;stroke:#263238;stroke-linecap:round;stroke-linejoin:round"></path><path d="M300.47,258l-.51-3.32s-4.08,4.34-5.87,2.55" style="fill:none;stroke:#263238;stroke-linecap:round;stroke-linejoin:round"></path><path d="M278.12,226c-.49-2.26-1.13-4.5-1.82-6.73-.92-2.93-1.94-5.84-2.88-8.73a14.3,14.3,0,0,0-.81-1.92v-1.48c0-1.6,1.87-4.53,1.87-4.53a37.71,37.71,0,0,0-4.53-4.27c-3.46-2.93-9.59-6.92-9.59-6.92l-2.88,3.14c-5.46,1.23-12.62,8.81-16.56,16.81-4.4,8.92-2.15,22.1-4.19,31.62-1.06,5-6.72,10.49-11.33,17.51a88.13,88.13,0,0,0,34.91,11.16c.86-6.3,1.59-12.42,2.69-16.78a28.38,28.38,0,0,1,6.67-12.15C274.28,237.7,279.79,233.67,278.12,226Z" style="fill:#0C62CC"></path><g style="clip-path:url(#freepik--clip-path-4--inject-53)"><path d="M241.42,265c0-1.48,10.36-12.94,12.58-15.9s-9.25-.74-11.1-.74,5.18-8.51,10-17.38,3.69-11.1,3.69-11.1L244,214.31s-2,.95-4.92,2.37c-1.88,8.33-.7,18.51-2.36,26.26-1.06,5-6.72,10.49-11.33,17.51a82,82,0,0,0,15.74,7A18.33,18.33,0,0,0,241.42,265Z" style="opacity:0.2"></path></g><path d="M278.12,226c-.49-2.26-1.13-4.5-1.82-6.73-.92-2.93-1.94-5.84-2.88-8.73a14.3,14.3,0,0,0-.81-1.92v-1.48c0-1.6,1.87-4.53,1.87-4.53a37.71,37.71,0,0,0-4.53-4.27c-3.46-2.93-9.59-6.92-9.59-6.92l-2.88,3.14c-5.46,1.23-12.62,8.81-16.56,16.81-4.4,8.92-2.15,22.1-4.19,31.62-1.06,5-6.72,10.49-11.33,17.51a88.13,88.13,0,0,0,34.91,11.16c.86-6.3,1.59-12.42,2.69-16.78a28.38,28.38,0,0,1,6.67-12.15C274.28,237.7,279.79,233.67,278.12,226Z" style="fill:none;stroke:#263238;stroke-linecap:round;stroke-linejoin:round"></path><path d="M260.28,201.56a15.36,15.36,0,0,0-9-.4c-7.29,1.93-25.19,17.16-28.17,19.33-4.39,3.19-17.53,16.56-16.77,17.61s7.2,5.21,17.31,13.88,31,16.52,31,16.52,5.12,5.33,8.65,6.49c1.06.35,1.92.58,2.63.74.2.07.41.14.61.19a4.06,4.06,0,0,0,4.12-.81,3.91,3.91,0,0,0,1.21-1.58,9.8,9.8,0,0,0,1.55-4c.14-1.67-2.34-2-2.94-3.17a7.53,7.53,0,0,0-3.59-3.09c-1-.22-6.68,1.66-6.68,1.66s-12.8-7-20.93-17.77c-7.32-9.66-9.58-11.23-9.58-11.23s23.84-14.51,31.09-18.17" style="fill:#0C62CC"></path><g style="clip-path:url(#freepik--clip-path-5--inject-53)"><path d="M269.53,274.6c-8.14-2.22-17.75-9.62-24.78-14.06s-26.26-20.71-28.85-21.45.74-1.85,4.81-4.81-5.18,0-7.4,0,32.18-22.19,37-27.73c3.63-4.19-1.18-3.74-3.75-3.27-8.43,4.77-21,15.42-23.47,17.21-4.39,3.19-17.53,16.56-16.77,17.61s7.2,5.21,17.31,13.88,31,16.52,31,16.52,5.12,5.33,8.65,6.49c1.06.35,1.92.58,2.63.74.2.07.41.14.61.19a4.06,4.06,0,0,0,4.12-.81l.16-.14Z" style="opacity:0.2"></path></g><path d="M260.28,201.56a15.36,15.36,0,0,0-9-.4c-7.29,1.93-25.19,17.16-28.17,19.33-4.39,3.19-17.53,16.56-16.77,17.61s7.2,5.21,17.31,13.88,31,16.52,31,16.52,5.12,5.33,8.65,6.49c1.06.35,1.92.58,2.63.74.2.07.41.14.61.19a4.06,4.06,0,0,0,4.12-.81,3.91,3.91,0,0,0,1.21-1.58,9.8,9.8,0,0,0,1.55-4c.14-1.67-2.34-2-2.94-3.17a7.53,7.53,0,0,0-3.59-3.09c-1-.22-6.68,1.66-6.68,1.66s-12.8-7-20.93-17.77c-7.32-9.66-9.58-11.23-9.58-11.23s23.84-14.51,31.09-18.17" style="fill:none;stroke:#263238;stroke-linecap:round;stroke-linejoin:round"></path><path d="M270.49,266.36a7.53,7.53,0,0,0-3.59-3.09c-1-.22-6.68,1.66-6.68,1.66a69.86,69.86,0,0,1-6-3.83l-4.61,5.37c3,1.29,5,2,5,2s5.12,5.33,8.65,6.49c1.06.35,1.92.58,2.63.74.2.07.41.14.61.19a4.06,4.06,0,0,0,4.12-.81,3.91,3.91,0,0,0,1.21-1.58,9.8,9.8,0,0,0,1.55-4C273.57,267.86,271.09,267.55,270.49,266.36Z" style="fill:#fff;stroke:#263238;stroke-linecap:round;stroke-linejoin:round"></path><path d="M268.8,180.52s-3.12-5.68-5.58-3.68.47,5.79,3.74,6.88,1.92-1,1.92-1" style="fill:#fff;stroke:#263238;stroke-linecap:round;stroke-linejoin:round"></path><path d="M233.16,294.05a177.26,177.26,0,0,0,14.45,13.59c9,7.63,25.39,14.6,25.39,14.6s-8.93,20.83-8.6,30.1,10.17,47.6,9.27,52.44c0,0,5.42,4.11,6.39.68,1.58-5.54,4.54-50.57,5.72-59.15,1.16-8.41,4.24-23.55,4.23-27.46,0-7.5-20.16-28.93-29.11-35a149.49,149.49,0,0,1-14.49-11.07" style="fill:#fff;stroke:#263238;stroke-linecap:round;stroke-linejoin:round"></path><path d="M260.9,283.84a149.49,149.49,0,0,1-14.49-11.07l-13.25,21.28a177.26,177.26,0,0,0,14.45,13.59c9,7.63,25.39,14.6,25.39,14.6s-8.93,20.83-8.6,30.1a99.07,99.07,0,0,0,1.91,12.4,52.48,52.48,0,0,0,17.72.62c.71-8.64,1.34-16.06,1.75-19.05,1.16-8.41,4.24-23.55,4.23-27.46C290,311.35,269.85,289.92,260.9,283.84Z" style="fill:#263238;stroke:#263238;stroke-linecap:round;stroke-linejoin:round"></path><path d="M231.06,296.6c4.52,3.66,11.6,9,16.55,11" style="fill:none;stroke:#fff;stroke-linecap:round;stroke-linejoin:round"></path><path d="M226.67,292.94s.77.67,2,1.73" style="fill:none;stroke:#fff;stroke-linecap:round;stroke-linejoin:round"></path><line x1="241.04" y1="271.21" x2="256.47" y2="279.97" style="fill:none;stroke:#fff;stroke-linecap:round;stroke-linejoin:round"></line><path d="M231.23,266s-6.66,3.51-6.31,6.66,8.06-2.1,7.36,1.4-4.5,4.15-.7,5.61,20.68,15.07,31.2,22.09,21.38,16.47,20.33,19.27-10.87,28-8.77,44.52" style="fill:none;stroke:#fff;stroke-linecap:round;stroke-linejoin:round"></path><path d="M186,335s25.24,3.85,35.75,4.9,11.57-1.05,9.82-3.15,1.75.7,2.45-2.46,2.11-22.78,2.46-27.69" style="fill:none;stroke:#fff;stroke-linecap:round;stroke-linejoin:round"></path><path d="M147.32,334.91s-6.49-9.08-8.62-8-7.19,4.62-9.93,6.09-7.64,7.4-7.6,9.32,5.23-1.19,8.67-1.88,16.42.41,16.42.41S145.56,335.86,147.32,334.91Z" style="fill:#0C62CC;stroke:#263238;stroke-linecap:round;stroke-linejoin:round"></path><path d="M140.77,327.56c-.84-.61-1.57-.92-2.07-.67-2.12,1.06-7.19,4.62-9.93,6.09s-7.64,7.4-7.6,9.32c0,.71.74.73,1.81.44,2.09-4.15,6.6-6.31,10.86-10A58.49,58.49,0,0,1,140.77,327.56Z" style="fill:#fff;stroke:#263238;stroke-linecap:round;stroke-linejoin:round"></path><path d="M273.67,404.78S269,414.93,271,416.24s7.58,4,10.22,5.6,10.21,3,11.86,2-3.63-3.95-5.93-6.59-7.07-11.77-7.07-11.77S275.37,405.84,273.67,404.78Z" style="fill:#0C62CC;stroke:#263238;stroke-linecap:round;stroke-linejoin:round"></path><path d="M293.06,423.82c.71-.43.12-1.23-1-2.21a23.42,23.42,0,0,1-4.51.09c-2.9-.29-12.83-5.58-17-7.86-.17,1.16-.1,2.07.4,2.4,2,1.32,7.58,4,10.22,5.6S291.41,424.81,293.06,423.82Z" style="fill:#fff;stroke:#263238;stroke-linecap:round;stroke-linejoin:round"></path></g></svg>