<svg width="499.99999999999994" height="499.99999999999994" xmlns="http://www.w3.org/2000/svg">
 <g>
  <title>Layer 1</title>
  <g id="freepik--background-simple--inject-2">
   <path id="svg_1" fill="#0C62CC" d="m475.79,277.05c-13.49,40.89 -42.56,85.72 -85.35,100.31c-64.64,22.06 -70.44,75.07 -187.73,74.71a236.91,236.91 0 0 1 -50.94,-5.47a197.3,197.3 0 0 1 -24.12,-7c-69.5,-25.07 -107.55,-84.69 -113,-148.4c-7.15,-83.8 49.87,-126.07 87,-151s79.53,-117.45 194.87,-118a228.73,228.73 0 0 1 52.35,5.59c39.16,9 79.46,30.67 103.67,63.7c1.81,2.48 3.55,5 5.23,7.62c32.69,50.83 36.42,122.18 18.02,177.94z"/>
   <path id="svg_2" opacity="0.7" fill="#fff" d="m475.79,277.05c-13.49,40.89 -42.56,85.72 -85.35,100.31c-64.64,22.06 -70.44,75.07 -187.73,74.71a236.91,236.91 0 0 1 -50.94,-5.47a197.3,197.3 0 0 1 -24.12,-7c-69.5,-25.07 -107.55,-84.69 -113,-148.4c-7.15,-83.8 49.87,-126.07 87,-151s79.53,-117.45 194.87,-118a228.73,228.73 0 0 1 52.35,5.59c39.16,9 79.46,30.67 103.67,63.7c1.81,2.48 3.55,5 5.23,7.62c32.69,50.83 36.42,122.18 18.02,177.94z"/>
  </g>
  <g id="freepik--Checklists--inject-2">
   <path id="svg_3" fill="#263238" d="m55.29,80l-13.69,0a0.5,0.5 0 0 1 -0.5,-0.5l0,-13.66a0.5,0.5 0 0 1 0.5,-0.5l13.69,0a0.5,0.5 0 0 1 0.5,0.5l0,13.7a0.5,0.5 0 0 1 -0.5,0.46zm-13.19,-1l12.69,0l0,-12.66l-12.69,0l0,12.66z"/>
   <path id="svg_4" fill="#263238" d="m121,73.19l-60.23,0a0.5,0.5 0 0 1 -0.5,-0.5a0.5,0.5 0 0 1 0.5,-0.5l60.23,0a0.5,0.5 0 0 1 0.5,0.5a0.5,0.5 0 0 1 -0.5,0.5z"/>
   <path id="svg_5" fill="#263238" d="m55.29,99.21l-13.69,0a0.5,0.5 0 0 1 -0.5,-0.5l0,-13.71a0.5,0.5 0 0 1 0.5,-0.5l13.69,0a0.5,0.5 0 0 1 0.5,0.5l0,13.7a0.5,0.5 0 0 1 -0.5,0.51zm-13.19,-1l12.69,0l0,-12.7l-12.69,0l0,12.7z"/>
   <path id="svg_6" fill="#263238" d="m121,92.36l-60.23,0a0.5,0.5 0 1 1 0,-1l60.23,0a0.5,0.5 0 0 1 0,1z"/>
   <path id="svg_7" fill="#263238" d="m55.29,118.38l-13.69,0a0.5,0.5 0 0 1 -0.5,-0.5l0,-13.7a0.5,0.5 0 0 1 0.5,-0.5l13.69,0a0.5,0.5 0 0 1 0.5,0.5l0,13.7a0.5,0.5 0 0 1 -0.5,0.5zm-13.19,-1l12.69,0l0,-12.7l-12.69,0l0,12.7z"/>
   <path id="svg_8" fill="#263238" d="m121,111.53l-60.23,0a0.5,0.5 0 0 1 0,-1l60.23,0a0.5,0.5 0 1 1 0,1z"/>
   <path id="svg_9" fill="#263238" d="m55.29,137.55l-13.69,0a0.5,0.5 0 0 1 -0.5,-0.5l0,-13.7a0.5,0.5 0 0 1 0.5,-0.5l13.69,0a0.5,0.5 0 0 1 0.5,0.5l0,13.7a0.5,0.5 0 0 1 -0.5,0.5zm-13.19,-1l12.69,0l0,-12.7l-12.69,0l0,12.7z"/>
   <path id="svg_10" fill="#263238" d="m121,130.7l-60.23,0a0.5,0.5 0 0 1 -0.5,-0.5a0.5,0.5 0 0 1 0.5,-0.5l60.23,0a0.5,0.5 0 0 1 0.5,0.5a0.5,0.5 0 0 1 -0.5,0.5z"/>
   <path id="svg_11" fill="#263238" d="m55.29,156.72l-13.69,0a0.5,0.5 0 0 1 -0.5,-0.5l0,-13.69a0.5,0.5 0 0 1 0.5,-0.5l13.69,0a0.5,0.5 0 0 1 0.5,0.5l0,13.69a0.5,0.5 0 0 1 -0.5,0.5zm-13.19,-1l12.69,0l0,-12.72l-12.69,0l0,12.72z"/>
   <path id="svg_12" fill="#263238" d="m121,149.87l-60.23,0a0.5,0.5 0 0 1 -0.5,-0.5a0.5,0.5 0 0 1 0.5,-0.5l60.23,0a0.5,0.5 0 0 1 0.5,0.5a0.5,0.5 0 0 1 -0.5,0.5z"/>
   <path id="svg_13" fill="#263238" d="m55.29,175.89l-13.69,0a0.5,0.5 0 0 1 -0.5,-0.5l0,-13.69a0.5,0.5 0 0 1 0.5,-0.5l13.69,0a0.5,0.5 0 0 1 0.5,0.5l0,13.69a0.5,0.5 0 0 1 -0.5,0.5zm-13.19,-1l12.69,0l0,-12.69l-12.69,0l0,12.69z"/>
   <path id="svg_14" fill="#263238" d="m121,169l-60.23,0a0.5,0.5 0 0 1 -0.5,-0.5a0.5,0.5 0 0 1 0.5,-0.5l60.23,0a0.5,0.5 0 0 1 0.5,0.5a0.5,0.5 0 0 1 -0.5,0.5z"/>
   <path id="svg_15" fill="#263238" d="m438.92,317.38l-9.42,0a0.5,0.5 0 0 1 -0.5,-0.5l0,-9.42a0.5,0.5 0 0 1 0.5,-0.5l9.42,0a0.5,0.5 0 0 1 0.5,0.5l0,9.42a0.5,0.5 0 0 1 -0.5,0.5zm-8.92,-1l8.42,0l0,-8.38l-8.42,0l0,8.38z"/>
   <path id="svg_16" fill="#263238" d="m484.13,312.67l-41.45,0a0.5,0.5 0 0 1 0,-1l41.45,0a0.5,0.5 0 0 1 0,1z"/>
   <path id="svg_17" fill="#263238" d="m438.92,330.57l-9.42,0a0.5,0.5 0 0 1 -0.5,-0.5l0,-9.42a0.5,0.5 0 0 1 0.5,-0.5l9.42,0a0.5,0.5 0 0 1 0.5,0.5l0,9.42a0.51,0.51 0 0 1 -0.5,0.5zm-8.92,-1l8.42,0l0,-8.42l-8.42,0l0,8.42z"/>
   <path id="svg_18" fill="#263238" d="m484.13,325.86l-41.45,0a0.51,0.51 0 0 1 -0.5,-0.5a0.5,0.5 0 0 1 0.5,-0.5l41.45,0a0.5,0.5 0 0 1 0.5,0.5a0.5,0.5 0 0 1 -0.5,0.5z"/>
   <path id="svg_19" fill="#263238" d="m438.92,343.76l-9.42,0a0.5,0.5 0 0 1 -0.5,-0.5l0,-9.42a0.5,0.5 0 0 1 0.5,-0.5l9.42,0a0.5,0.5 0 0 1 0.5,0.5l0,9.42a0.51,0.51 0 0 1 -0.5,0.5zm-8.92,-1l8.42,0l0,-8.42l-8.42,0l0,8.42z"/>
   <path id="svg_20" fill="#263238" d="m484.13,339.05l-41.45,0a0.51,0.51 0 0 1 -0.5,-0.5a0.5,0.5 0 0 1 0.5,-0.5l41.45,0a0.5,0.5 0 0 1 0.5,0.5a0.5,0.5 0 0 1 -0.5,0.5z"/>
   <path id="svg_21" fill="#263238" d="m438.92,356.94l-9.42,0a0.5,0.5 0 0 1 -0.5,-0.5l0,-9.44a0.5,0.5 0 0 1 0.5,-0.5l9.42,0a0.51,0.51 0 0 1 0.5,0.5l0,9.42a0.5,0.5 0 0 1 -0.5,0.52zm-8.92,-1l8.42,0l0,-8.42l-8.42,0l0,8.42z"/>
   <path id="svg_22" fill="#263238" d="m484.13,352.23l-41.45,0a0.5,0.5 0 0 1 -0.5,-0.5a0.51,0.51 0 0 1 0.5,-0.5l41.45,0a0.5,0.5 0 0 1 0.5,0.5a0.5,0.5 0 0 1 -0.5,0.5z"/>
   <path id="svg_23" fill="#263238" d="m438.92,370.13l-9.42,0a0.5,0.5 0 0 1 -0.5,-0.5l0,-9.42a0.5,0.5 0 0 1 0.5,-0.5l9.42,0a0.51,0.51 0 0 1 0.5,0.5l0,9.42a0.5,0.5 0 0 1 -0.5,0.5zm-8.92,-1l8.42,0l0,-8.42l-8.42,0l0,8.42z"/>
   <path id="svg_24" fill="#263238" d="m484.13,365.42l-41.45,0a0.5,0.5 0 0 1 -0.5,-0.5a0.51,0.51 0 0 1 0.5,-0.5l41.45,0a0.5,0.5 0 0 1 0.5,0.5a0.5,0.5 0 0 1 -0.5,0.5z"/>
   <path id="svg_25" fill="#263238" d="m438.92,383.32l-9.42,0a0.5,0.5 0 0 1 -0.5,-0.5l0,-9.42a0.5,0.5 0 0 1 0.5,-0.5l9.42,0a0.5,0.5 0 0 1 0.5,0.5l0,9.42a0.5,0.5 0 0 1 -0.5,0.5zm-8.92,-1l8.42,0l0,-8.42l-8.42,0l0,8.42z"/>
   <path id="svg_26" fill="#263238" d="m484.13,378.61l-41.45,0a0.5,0.5 0 1 1 0,-1l41.45,0a0.5,0.5 0 0 1 0,1z"/>
  </g>
  <g id="freepik--Envelopes--inject-2">
   <path id="svg_27" fill="#263238" d="m267.23,107.47l-59.3,0a0.5,0.5 0 0 1 -0.5,-0.5l0,-42.45a0.5,0.5 0 0 1 0.5,-0.5l59.3,0a0.5,0.5 0 0 1 0.5,0.5l0,42.48a0.5,0.5 0 0 1 -0.5,0.47zm-58.8,-1l58.3,0l0,-41.47l-58.3,0l0,41.47z"/>
   <path id="svg_28" fill="#263238" d="m237.58,86.25a0.5,0.5 0 0 1 -0.29,-0.09l-29.65,-21.23a0.5,0.5 0 0 1 -0.12,-0.7a0.51,0.51 0 0 1 0.7,-0.11l29.36,21l29.36,-21a0.5,0.5 0 1 1 0.58,0.81l-29.65,21.23a0.52,0.52 0 0 1 -0.29,0.09z"/>
   <path id="svg_29" fill="#263238" d="m308.32,78l-36.32,0a0.5,0.5 0 0 1 -0.5,-0.5l0,-26a0.5,0.5 0 0 1 0.5,-0.5l36.34,0a0.5,0.5 0 0 1 0.5,0.5l0,26a0.5,0.5 0 0 1 -0.52,0.5zm-35.84,-1l35.34,0l0,-25l-35.34,0l0,25z"/>
   <path id="svg_30" fill="#263238" d="m290.15,65a0.46,0.46 0 0 1 -0.29,-0.1l-18.17,-13a0.5,0.5 0 0 1 -0.12,-0.7a0.51,0.51 0 0 1 0.7,-0.12l17.88,12.8l17.85,-12.78a0.51,0.51 0 0 1 0.7,0.12a0.5,0.5 0 0 1 -0.12,0.7l-18.17,13a0.46,0.46 0 0 1 -0.26,0.08z"/>
   <path id="svg_31" fill="#263238" d="m77,427.25l-36.3,0a0.51,0.51 0 0 1 -0.5,-0.5l0,-26a0.51,0.51 0 0 1 0.5,-0.5l36.3,0a0.5,0.5 0 0 1 0.5,0.5l0,26a0.5,0.5 0 0 1 -0.5,0.5zm-35.84,-1l35.38,0l0,-25l-35.34,0l-0.04,25z"/>
   <path id="svg_32" fill="#263238" d="m58.87,414.24a0.52,0.52 0 0 1 -0.29,-0.09l-18.17,-13a0.51,0.51 0 0 1 -0.11,-0.7a0.5,0.5 0 0 1 0.69,-0.11l17.88,12.8l17.88,-12.8a0.51,0.51 0 0 1 0.7,0.11a0.5,0.5 0 0 1 -0.12,0.7l-18.17,13a0.5,0.5 0 0 1 -0.29,0.09z"/>
  </g>
  <g id="freepik--Floor--inject-2">
   <rect id="svg_33" fill="#263238" height="1" width="464.24" y="458.95" x="19.35"/>
  </g>
  <g id="freepik--Plants--inject-2">
   <path id="svg_34" fill="#263238" d="m17.63,332.22c3.26,-0.53 9.39,-4.69 9.4,-4.69s-4,-3.21 -4.25,-3.38c-3.21,-2 -10.57,-3.9 -13.77,-1.16a5,5 0 0 0 0,7.43c2.18,2.06 5.84,2.25 8.62,1.8z"/>
   <path id="svg_35" fill="#263238" d="m31.41,348.85c2.89,-1.32 7.4,-6.51 7.76,-6.92a88.27,88.27 0 0 0 9.38,7.14c1.9,1.27 3.86,2.5 5.84,3.7c-1,-0.41 -1.87,-0.78 -2,-0.81c-3.61,-1.06 -11.22,-1 -13.59,2.51a5,5 0 0 0 2,7.16c2.62,1.42 6.21,0.64 8.76,-0.53s6.54,-5.54 7.56,-6.7l2.29,1.36c3.68,2.17 7.35,4.31 10.89,6.52c1.25,0.78 2.45,1.59 3.66,2.4c-0.88,-0.36 -1.62,-0.67 -1.74,-0.7c-3.61,-1.06 -11.22,-1 -13.59,2.52a5,5 0 0 0 2,7.16c2.62,1.41 6.2,0.63 8.76,-0.54s6.15,-5.11 7.38,-6.49c1.21,0.86 2.42,1.73 3.55,2.62c0.76,0.63 1.53,1.18 2.26,1.85l2.16,1.9c1.34,1.28 2.73,2.59 4,3.87c0.89,0.89 1.73,1.74 2.57,2.61c-1.23,-0.79 -3.68,-2.29 -3.89,-2.39c-3.42,-1.59 -11,-2.66 -13.82,0.43a5,5 0 0 0 0.88,7.38c2.38,1.79 6,1.57 8.74,0.8c3,-0.85 8,-5.1 8.67,-5.64c1.4,1.44 2.74,2.85 4,4.19c2.76,3 5.14,5.69 7.12,8l2.33,-1.5c-2.11,-2.37 -4.66,-5.16 -7.63,-8.22c-1.41,-1.47 -2.94,-3 -4.53,-4.56a55.66,55.66 0 0 0 3.37,-5.41c3.08,0.8 9.21,0.1 10,0c0.37,2 0.71,3.88 1,5.69c0.63,3.79 1.1,7.2 1.46,10.12l2.52,-1.62c-0.41,-2.65 -0.9,-5.65 -1.51,-8.93c-0.37,-2 -0.81,-4.13 -1.27,-6.3c0.75,-0.29 6.92,-2.71 9.09,-4.92c2,-2 3.92,-5.12 3.49,-8.07a5,5 0 0 0 -6.06,-4.3c-4.09,1 -6.75,8.17 -7,11.93c0,0.22 0.1,2.64 0.2,4.17c-0.19,-0.89 -0.37,-1.75 -0.58,-2.67c-0.41,-1.8 -0.87,-3.6 -1.36,-5.52l-0.81,-2.8c-0.25,-0.94 -0.64,-1.9 -1,-2.87c-0.78,-2.21 -1.68,-4.41 -2.64,-6.62c1.58,-0.36 7.18,-1.72 9.44,-3.41s4.65,-4.47 4.66,-7.44a5,5 0 0 0 -5.33,-5.18c-4.2,0.41 -7.91,7.05 -8.72,10.73c0,0.23 -0.32,2.94 -0.45,4.43c-0.58,-1.32 -1.16,-2.64 -1.8,-3.95c-1.83,-3.8 -3.8,-7.58 -5.75,-11.37c-0.6,-1.16 -1.18,-2.32 -1.77,-3.48c0.56,-0.12 7.25,-1.6 9.79,-3.5c2.25,-1.68 4.65,-4.46 4.66,-7.44a5,5 0 0 0 -5.34,-5.17c-4.19,0.41 -7.91,7.05 -8.71,10.73c-0.06,0.28 -0.46,4.17 -0.51,5.17c-1.29,-2.56 -2.56,-5.12 -3.7,-7.69a89.11,89.11 0 0 1 -4,-10.68c0.26,-0.06 7.25,-1.57 9.85,-3.51c2.25,-1.69 4.65,-4.47 4.66,-7.44a5,5 0 0 0 -5.34,-5.17c-4.19,0.41 -7.91,7.05 -8.71,10.73c-0.06,0.28 -0.49,4.47 -0.51,5.24c-0.06,-0.21 -0.15,-0.42 -0.21,-0.64a64.73,64.73 0 0 1 -2,-11.25c-0.21,-2.09 -0.3,-4.11 -0.33,-6.08c1.33,-0.14 7.4,-0.88 9.93,-2.37s5.11,-3.93 5.45,-6.89a5,5 0 0 0 -4.74,-5.72c-4.21,-0.06 -8.63,6.13 -9.84,9.7c-0.06,0.2 -0.51,2.24 -0.81,3.74c0,-0.89 0,-1.8 0,-2.65c0,-3.19 0.27,-6.11 0.5,-8.69c0.14,-1.47 0.3,-2.79 0.46,-4c1.23,-0.83 6.15,-4.22 7.68,-6.66s2.72,-5.84 1.66,-8.62a5,5 0 0 0 -6.84,-2.9c-3.77,1.89 -4.84,9.42 -4.26,13.15c0,0.32 1.41,5.26 1.48,5.22l0.07,-0.05c-0.18,1.19 -0.35,2.46 -0.52,3.86c-0.29,2.58 -0.58,5.5 -0.69,8.7a88.36,88.36 0 0 0 0.13,10.35a64.35,64.35 0 0 0 1.79,11.44s0,0.08 0,0.13c-0.65,-1.05 -2.58,-3.93 -2.75,-4.13c-2.43,-2.88 -8.82,-7 -12.72,-5.4a5,5 0 0 0 -2.29,7.07c1.4,2.63 4.82,4 7.6,4.39c3.13,0.49 9.76,-1.35 10.29,-1.5a88.83,88.83 0 0 0 3.88,11.14c0.89,2.11 1.85,4.21 2.84,6.31c-0.6,-0.89 -1.13,-1.68 -1.22,-1.79c-2.43,-2.87 -8.83,-7 -12.73,-5.39a5,5 0 0 0 -2.21,7.08c1.41,2.63 4.83,4 7.61,4.4s8.5,-1 10,-1.43c0.39,0.8 0.76,1.61 1.15,2.41c1.87,3.83 3.76,7.64 5.49,11.44c0.61,1.34 1.17,2.68 1.72,4c-0.52,-0.79 -1,-1.45 -1,-1.54c-2.44,-2.88 -8.83,-7 -12.73,-5.4a5,5 0 0 0 -2.34,7.12c1.41,2.62 4.83,3.95 7.61,4.39s7.94,-0.88 9.73,-1.35c0.53,1.38 1.06,2.78 1.51,4.15c0.29,0.94 0.63,1.82 0.87,2.79l0.75,2.81c0.41,1.81 0.85,3.67 1.21,5.44c0.25,1.24 0.48,2.41 0.71,3.6c-0.6,-1.34 -1.81,-3.94 -1.94,-4.14a19.39,19.39 0 0 0 -7.3,-6.52a7,7 0 0 0 -0.65,-0.89a5,5 0 0 0 -7.43,-0.24c-2.84,3.12 -1.13,10.53 0.75,13.8c0.11,0.19 1.55,2.15 2.47,3.37c-0.65,-0.64 -1.28,-1.26 -2,-1.9c-1.33,-1.29 -2.71,-2.53 -4.18,-3.87l-2.22,-1.88c-0.73,-0.65 -1.58,-1.24 -2.37,-1.87c-1.88,-1.41 -3.84,-2.75 -5.86,-4.06c1.13,-1.18 5,-5.4 6,-8.06s1.42,-6.29 -0.21,-8.78a5,5 0 0 0 -7.3,-1.37c-3.28,2.66 -2.72,10.25 -1.35,13.76c0.08,0.22 1.34,2.63 2.06,3.94c-1.22,-0.78 -2.42,-1.56 -3.68,-2.31c-3.62,-2.15 -7.36,-4.22 -11.07,-6.3l-3.4,-1.93c0.41,-0.41 5.17,-5.33 6.24,-8.31c1,-2.65 1.41,-6.29 -0.22,-8.78a5,5 0 0 0 -7.3,-1.37c-3.28,2.66 -2.71,10.24 -1.35,13.75c0.1,0.27 1.92,3.73 2.43,4.59c-2.49,-1.42 -5,-2.85 -7.33,-4.37a88,88 0 0 1 -9.23,-6.7c0.19,-0.19 5.19,-5.31 6.28,-8.36c0.94,-2.65 1.41,-6.29 -0.22,-8.78a5,5 0 0 0 -7.3,-1.37c-3.28,2.66 -2.71,10.25 -1.35,13.76c0.11,0.27 2.06,4 2.47,4.65l-0.53,-0.41a64.17,64.17 0 0 1 -7.88,-8.28c-1.34,-1.63 -2.52,-3.26 -3.64,-4.88c1,-0.86 5.69,-4.83 7,-7.46s2.09,-6.1 0.74,-8.75a5,5 0 0 0 -7.1,-2.17c-3.55,2.28 -3.82,9.89 -2.86,13.53c0.06,0.2 0.81,2.15 1.39,3.56c-0.5,-0.73 -1,-1.48 -1.48,-2.2c-1.72,-2.68 -3.14,-5.25 -4.37,-7.53c-0.69,-1.3 -1.29,-2.49 -1.84,-3.61c0.57,-1.37 2.8,-6.91 2.73,-9.79s-0.95,-6.38 -3.37,-8.11a5,5 0 0 0 -7.31,1.35c-2.09,3.66 1.17,10.54 3.71,13.32c0.22,0.24 4.08,3.61 4.11,3.54a0.34,0.34 0 0 0 0,-0.08c0.51,1.09 1.06,2.25 1.7,3.51c1.18,2.31 2.55,4.91 4.22,7.64a87.9,87.9 0 0 0 5.86,8.53a65.67,65.67 0 0 0 7.8,8.55l0.11,0.09c-1.13,-0.52 -4.31,-1.86 -4.57,-1.93c-3.62,-1.06 -11.22,-1 -13.59,2.52a5,5 0 0 0 2,7.16c2.61,1.41 6.19,0.61 8.75,-0.54z"/>
   <path id="svg_36" fill="#263238" d="m81.44,293c0.07,0 -1.54,-4.87 -1.68,-5.16c-1.59,-3.42 -6.66,-9.09 -10.85,-8.57a5,5 0 0 0 -4.07,6.21c0.66,2.91 3.61,5.09 6.17,6.25c2.99,1.32 10.42,1.27 10.43,1.27z"/>
   <path id="svg_37" fill="#263238" d="m379.93,72.31c2.25,2.24 8.92,4.68 8.92,4.69s0.27,-4.89 0.25,-5.2c-0.26,-3.6 -2.89,-10.41 -6.82,-11.37a4.78,4.78 0 0 0 -5.76,4.19c-0.4,2.83 1.48,5.79 3.41,7.69z"/>
   <path id="svg_38" fill="#263238" d="m374.72,92.36c2.64,1.51 9.21,2.11 9.73,2.15a84.66,84.66 0 0 0 -0.29,11.31c0.07,2.2 0.22,4.41 0.39,6.62c-0.23,-1 -0.44,-1.89 -0.49,-2c-1.2,-3.41 -5.53,-9.28 -9.58,-9.17a4.79,4.79 0 0 0 -4.45,5.56c0.37,2.84 3,5.19 5.33,6.53s8,2 9.45,2.12c0.08,0.85 0.14,1.7 0.22,2.55c0.38,4.07 0.77,8.13 1,12.12c0.1,1.41 0.14,2.8 0.18,4.19c-0.2,-0.88 -0.38,-1.63 -0.42,-1.74c-1.21,-3.41 -5.54,-9.28 -9.58,-9.16a4.79,4.79 0 0 0 -4.46,5.56c0.37,2.83 3,5.18 5.33,6.52s7.43,1.91 9.19,2.09c0,1.43 0,2.86 -0.05,4.24c-0.06,0.94 -0.06,1.85 -0.18,2.8s-0.18,1.86 -0.28,2.78c-0.24,1.76 -0.48,3.58 -0.76,5.29c-0.19,1.19 -0.39,2.32 -0.59,3.46c-0.08,-1.4 -0.28,-4.14 -0.33,-4.37c-0.67,-3.55 -4.06,-10 -8.08,-10.51a4.78,4.78 0 0 0 -5.24,4.82c-0.07,2.86 2.16,5.58 4.27,7.26c2.33,1.84 8.48,3.39 9.25,3.58c-0.34,1.89 -0.68,3.72 -1,5.45c-0.77,3.81 -1.54,7.19 -2.24,10l2.47,1c0.66,-3 1.4,-6.52 2.12,-10.55c0.35,-1.92 0.68,-4 1,-6.08a54.42,54.42 0 0 0 6.1,-0.41c1.11,2.84 5.09,7.22 5.61,7.78c-1.32,1.4 -2.62,2.73 -3.86,4c-2.6,2.61 -5,4.89 -7.06,6.81l2.67,1c1.84,-1.8 3.89,-3.87 6.1,-6.19c1.35,-1.4 2.76,-2.93 4.19,-4.52c0.65,0.43 6,3.88 8.93,4.33c2.67,0.4 6.18,0.18 8.23,-1.82a4.79,4.79 0 0 0 -0.05,-7.12c-3.1,-2.6 -10.14,-0.68 -13.2,1.25c-0.18,0.11 -2,1.56 -3.13,2.49c0.58,-0.65 1.16,-1.27 1.75,-2c1.18,-1.33 2.31,-2.69 3.54,-4.15l1.72,-2.2c0.59,-0.73 1.12,-1.56 1.69,-2.35c1.29,-1.85 2.5,-3.78 3.68,-5.76c1.16,1 5.36,4.62 7.95,5.43s6.08,1.12 8.4,-0.54a4.79,4.79 0 0 0 1,-7c-2.68,-3 -9.92,-2.21 -13.24,-0.77c-0.2,0.09 -2.47,1.39 -3.69,2.13c0.69,-1.2 1.4,-2.38 2.06,-3.62c1.93,-3.55 3.77,-7.21 5.62,-10.85c0.57,-1.11 1.14,-2.22 1.72,-3.32c0.41,0.37 5.31,4.75 8.21,5.65c2.57,0.81 6.08,1.12 8.4,-0.54a4.79,4.79 0 0 0 1,-7c-2.67,-3 -9.92,-2.21 -13.23,-0.77c-0.25,0.11 -3.5,2 -4.31,2.5c1.27,-2.44 2.55,-4.86 3.91,-7.19a86.18,86.18 0 0 1 6.07,-9.1c0.19,0.18 5.28,4.77 8.25,5.7c2.58,0.8 6.08,1.11 8.41,-0.55a4.79,4.79 0 0 0 1,-7c-2.67,-3 -9.92,-2.2 -13.24,-0.76c-0.26,0.11 -3.75,2.13 -4.36,2.54c0.13,-0.17 0.24,-0.35 0.38,-0.52a61.39,61.39 0 0 1 7.62,-7.87c1.52,-1.34 3,-2.54 4.54,-3.67c0.87,1 4.85,5.27 7.42,6.4s5.93,1.77 8.42,0.38a4.8,4.8 0 0 0 1.8,-6.9c-2.32,-3.31 -9.62,-3.28 -13.07,-2.21c-0.19,0.06 -2,0.86 -3.37,1.46c0.69,-0.5 1.39,-1 2.06,-1.49c2.51,-1.76 4.91,-3.21 7.05,-4.48c1.22,-0.72 2.34,-1.34 3.39,-1.91c1.33,0.5 6.72,2.42 9.48,2.24s6.08,-1.15 7.65,-3.54a4.79,4.79 0 0 0 -1.58,-6.94c-3.59,-1.87 -10.05,1.52 -12.62,4c-0.22,0.22 -3.31,4 -3.24,4.08l0.08,0c-1,0.53 -2.11,1.1 -3.29,1.76c-2.17,1.22 -4.61,2.63 -7.17,4.34a85.58,85.58 0 0 0 -8,5.9a61.71,61.71 0 0 0 -7.9,7.8a1,1 0 0 1 -0.08,0.11c0.45,-1.1 1.61,-4.2 1.67,-4.45c0.88,-3.51 0.51,-10.79 -2.93,-12.93a4.79,4.79 0 0 0 -6.79,2.18c-1.25,2.56 -0.37,6 0.85,8.38c1.38,2.71 6.53,6.84 6.94,7.17a83.85,83.85 0 0 0 -6.49,9.26c-1.15,1.87 -2.25,3.8 -3.32,5.74c0.36,-1 0.67,-1.82 0.7,-2c0.87,-3.5 0.5,-10.79 -2.93,-12.92a4.79,4.79 0 0 0 -6.79,2.18c-1.25,2.56 -0.37,6 0.85,8.37s5.56,6 6.71,7c-0.4,0.75 -0.82,1.49 -1.22,2.25c-1.93,3.6 -3.84,7.2 -5.83,10.68c-0.7,1.23 -1.43,2.41 -2.16,3.59c0.32,-0.85 0.58,-1.57 0.61,-1.68c0.87,-3.51 0.5,-10.8 -2.93,-12.93a4.79,4.79 0 0 0 -6.79,2.18c-1.25,2.56 -0.37,6 0.85,8.38s5.14,5.69 6.5,6.81c-0.78,1.19 -1.56,2.39 -2.37,3.51c-0.58,0.75 -1.08,1.51 -1.69,2.24s-1.19,1.44 -1.77,2.16c-1.18,1.33 -2.38,2.72 -3.56,4c-0.81,0.89 -1.61,1.72 -2.4,2.57c0.71,-1.22 2.05,-3.62 2.14,-3.83a18.56,18.56 0 0 0 1,-9.33a6,6 0 0 0 0.33,-1a4.79,4.79 0 0 0 -4,-5.92c-4,-0.45 -8.83,5 -10.32,8.32c-0.09,0.2 -0.8,2.41 -1.23,3.81c0.12,-0.86 0.26,-1.7 0.38,-2.59c0.24,-1.76 0.44,-3.52 0.66,-5.42c0.07,-0.92 0.15,-1.84 0.22,-2.78s0.08,-1.92 0.12,-2.89c0.05,-2.25 0,-4.54 -0.12,-6.84c1.54,0.22 7,0.9 9.63,0.15s5.69,-2.43 6.71,-5.09a4.78,4.78 0 0 0 -3,-6.45c-3.9,-1.06 -9.49,3.63 -11.46,6.66c-0.12,0.19 -1.29,2.52 -1.91,3.81c-0.07,-1.38 -0.14,-2.76 -0.27,-4.15c-0.35,-4 -0.83,-8.09 -1.3,-12.15c-0.14,-1.24 -0.27,-2.48 -0.4,-3.72c0.55,0.08 7,1 10,0.19c2.59,-0.75 5.68,-2.43 6.7,-5.09a4.78,4.78 0 0 0 -3,-6.45c-3.91,-1.06 -9.49,3.63 -11.46,6.66c-0.15,0.23 -1.83,3.59 -2.21,4.46c-0.29,-2.73 -0.56,-5.46 -0.71,-8.16a84.69,84.69 0 0 1 0,-10.93c0.26,0 7,1.06 10,0.2c2.6,-0.75 5.69,-2.43 6.71,-5.09a4.79,4.79 0 0 0 -3,-6.45c-3.91,-1.06 -9.5,3.63 -11.46,6.66c-0.16,0.24 -2,3.85 -2.24,4.53c0,-0.21 0,-0.43 0,-0.64a61.84,61.84 0 0 1 2,-10.78c0.52,-2 1.13,-3.79 1.76,-5.56c1.24,0.32 6.94,1.72 9.71,1.24s5.92,-1.79 7.23,-4.32a4.8,4.8 0 0 0 -2.3,-6.75c-3.76,-1.48 -9.83,2.57 -12.12,5.37c-0.13,0.15 -1.22,1.83 -2,3.07c0.3,-0.8 0.59,-1.62 0.89,-2.38c1.12,-2.85 2.32,-5.39 3.4,-7.62c0.63,-1.27 1.22,-2.41 1.78,-3.46c1.39,-0.33 6.95,-1.69 9.15,-3.37s4.43,-4.31 4.42,-7.16a4.79,4.79 0 0 0 -5.15,-4.93c-4,0.42 -7.54,6.81 -8.29,10.35c-0.06,0.3 -0.52,5.2 -0.45,5.18l0.09,0c-0.57,1 -1.16,2.09 -1.78,3.29c-1.13,2.22 -2.39,4.74 -3.58,7.57a86.35,86.35 0 0 0 -3.4,9.32a63.33,63.33 0 0 0 -2.13,10.92a0.57,0.57 0 0 1 0,0.13c-0.23,-1.16 -1,-4.39 -1.06,-4.64c-1.2,-3.4 -5.53,-9.28 -9.58,-9.16a4.79,4.79 0 0 0 -4.45,5.56c0.36,2.78 2.97,5.11 5.32,6.47z"/>
   <path id="svg_39" fill="#263238" d="m446.25,100c0,0.06 2.92,-3.92 3.07,-4.2c1.77,-3.15 3.34,-10.27 0.59,-13.24a4.79,4.79 0 0 0 -7.12,0.31c-1.89,2.14 -1.94,5.66 -1.4,8.31c0.61,3.06 4.85,8.82 4.86,8.82z"/>
   <path id="svg_40" fill="#263238" d="m419.22,210.12c1.12,2.34 5.6,6 5.6,6s1.54,-3.69 1.61,-3.94c0.77,-2.84 0.6,-8.8 -2.17,-10.61a3.91,3.91 0 0 0 -5.58,1.66c-1.07,2.11 -0.41,4.9 0.54,6.89z"/>
   <path id="svg_41" fill="#263238" d="m409.76,224.15c1.63,1.88 6.53,4.12 6.92,4.3a70.39,70.39 0 0 0 -3.3,8.63c-0.53,1.71 -1,3.46 -1.49,5.21c0.09,-0.83 0.17,-1.58 0.17,-1.68c0,-3 -1.75,-8.65 -4.89,-9.66a3.9,3.9 0 0 0 -4.94,3.07c-0.49,2.28 0.89,4.81 2.33,6.47s5.61,3.69 6.71,4.2c-0.17,0.68 -0.35,1.35 -0.52,2c-0.82,3.24 -1.62,6.47 -2.5,9.62c-0.31,1.11 -0.65,2.19 -1,3.28c0.09,-0.74 0.15,-1.37 0.15,-1.46c0,-3 -1.75,-8.65 -4.89,-9.66a3.9,3.9 0 0 0 -4.94,3.07c-0.49,2.29 0.89,4.81 2.33,6.47s5.2,3.49 6.51,4.11c-0.38,1.1 -0.77,2.2 -1.19,3.25c-0.3,0.71 -0.55,1.41 -0.89,2.11s-0.65,1.38 -1,2.06c-0.67,1.29 -1.35,2.63 -2,3.87c-0.47,0.87 -0.93,1.69 -1.39,2.51c0.32,-1.1 0.9,-3.27 0.93,-3.45c0.45,-2.92 -0.41,-8.82 -3.37,-10.29a3.91,3.91 0 0 0 -5.35,2.29c-0.83,2.18 0.15,4.88 1.33,6.75c1.29,2.05 5.6,4.92 6.15,5.27c-0.77,1.36 -1.54,2.68 -2.27,3.92c-1.63,2.72 -3.14,5.11 -4.45,7.12l1.64,1.41c1.31,-2.1 2.85,-4.64 4.5,-7.55c0.79,-1.38 1.6,-2.87 2.42,-4.41a44.75,44.75 0 0 0 4.81,1.34c0.08,2.49 2,6.95 2.21,7.52c-1.39,0.71 -2.76,1.39 -4.05,2c-2.71,1.31 -5.17,2.42 -7.29,3.34l1.77,1.53c1.91,-0.89 4.06,-1.92 6.39,-3.11c1.42,-0.72 2.92,-1.51 4.45,-2.35c0.39,0.51 3.56,4.61 5.71,5.76c1.94,1 4.71,1.81 6.83,0.83a3.9,3.9 0 0 0 1.89,-5.5c-1.68,-2.84 -7.63,-3.27 -10.5,-2.62c-0.17,0 -2,0.66 -3.09,1.08l1.87,-1c1.27,-0.71 2.51,-1.45 3.86,-2.24l1.92,-1.23c0.65,-0.4 1.29,-0.9 1.94,-1.35c1.49,-1.08 2.95,-2.24 4.4,-3.44c0.62,1.11 2.87,5 4.65,6.34s4.38,2.51 6.62,1.86a3.9,3.9 0 0 0 2.71,-5.15c-1.23,-3.07 -7.05,-4.39 -10,-4.18c-0.18,0 -2.28,0.4 -3.42,0.63c0.86,-0.73 1.72,-1.45 2.57,-2.22c2.45,-2.21 4.86,-4.53 7.27,-6.84l2.23,-2.09c0.21,0.39 2.8,5.1 4.79,6.58c1.76,1.32 4.38,2.51 6.62,1.86a3.91,3.91 0 0 0 2.71,-5.15c-1.24,-3.06 -7.05,-4.39 -10,-4.18c-0.22,0 -3.24,0.58 -4,0.76c1.64,-1.54 3.29,-3 5,-4.48a69.27,69.27 0 0 1 7.14,-5.36c0.1,0.18 2.78,5.1 4.81,6.62c1.77,1.32 4.38,2.51 6.63,1.86a3.91,3.91 0 0 0 2.7,-5.15c-1.23,-3.06 -7,-4.39 -10,-4.18c-0.24,0 -3.48,0.62 -4.06,0.78l0.43,-0.3a50.36,50.36 0 0 1 8,-4c1.53,-0.62 3,-1.13 4.49,-1.59c0.41,1 2.3,5.37 4,6.94s4.08,3 6.38,2.58a3.92,3.92 0 0 0 3.26,-4.83c-0.89,-3.18 -6.52,-5.13 -9.47,-5.25c-0.16,0 -1.8,0.11 -3,0.21l2,-0.59c2.41,-0.67 4.65,-1.14 6.64,-1.54c1.14,-0.22 2.17,-0.39 3.13,-0.54c0.9,0.74 4.53,3.69 6.7,4.29s5,0.77 6.85,-0.65a3.9,3.9 0 0 0 0.67,-5.78c-2.25,-2.41 -8.15,-1.56 -10.82,-0.3c-0.23,0.11 -3.65,2.22 -3.6,2.26l0,0c-0.93,0.13 -1.93,0.27 -3,0.46c-2,0.35 -4.27,0.78 -6.7,1.4a70,70 0 0 0 -7.75,2.38a51.85,51.85 0 0 0 -8.2,3.87l-0.09,0.06c0.65,-0.72 2.38,-2.8 2.5,-3c1.62,-2.47 3.31,-8.18 1.25,-10.76a3.91,3.91 0 0 0 -5.82,-0.16c-1.67,1.63 -1.91,4.5 -1.62,6.68c0.32,2.47 3.17,7 3.39,7.41a70.51,70.51 0 0 0 -7.51,5.37q-2.09,1.71 -4.12,3.53l1.08,-1.31c1.62,-2.47 3.31,-8.18 1.24,-10.76a3.9,3.9 0 0 0 -5.81,-0.16c-1.67,1.63 -1.91,4.5 -1.63,6.68s2.64,6.17 3.28,7.21l-1.55,1.4c-2.47,2.25 -4.92,4.51 -7.39,6.65c-0.87,0.75 -1.76,1.46 -2.64,2.18c0.48,-0.57 0.87,-1.06 0.93,-1.14c1.62,-2.46 3.31,-8.17 1.24,-10.75a3.9,3.9 0 0 0 -5.82,-0.16c-1.66,1.63 -1.9,4.5 -1.62,6.68s2.42,5.78 3.17,7c-0.93,0.7 -1.86,1.41 -2.79,2.05c-0.64,0.43 -1.23,0.88 -1.9,1.27l-1.95,1.19c-1.27,0.7 -2.58,1.44 -3.83,2.1c-0.87,0.47 -1.7,0.9 -2.54,1.33c0.87,-0.74 2.56,-2.23 2.68,-2.37a15.16,15.16 0 0 0 3.29,-6.92a4.45,4.45 0 0 0 0.52,-0.69a3.91,3.91 0 0 0 -1.45,-5.64c-3,-1.44 -8.17,1.48 -10.21,3.61c-0.12,0.13 -1.28,1.64 -2,2.61c0.33,-0.64 0.66,-1.24 1,-1.9c0.67,-1.29 1.3,-2.59 2,-4l0.93,-2.09c0.32,-0.69 0.58,-1.46 0.87,-2.19c0.65,-1.72 1.23,-3.5 1.77,-5.3c1.13,0.58 5.17,2.6 7.38,2.72s5,-0.32 6.55,-2.1a3.91,3.91 0 0 0 -0.58,-5.79c-2.73,-1.88 -8.3,0.22 -10.64,2c-0.15,0.12 -1.68,1.6 -2.51,2.42c0.32,-1.08 0.64,-2.16 0.92,-3.27c0.82,-3.2 1.55,-6.46 2.3,-9.71c0.22,-1 0.46,-2 0.7,-3c0.4,0.21 5.15,2.71 7.62,2.85c2.2,0.13 5,-0.32 6.55,-2.1a3.91,3.91 0 0 0 -0.58,-5.79c-2.72,-1.88 -8.3,0.22 -10.64,2c-0.17,0.14 -2.38,2.27 -2.91,2.84c0.52,-2.19 1.05,-4.36 1.67,-6.48a66.81,66.81 0 0 1 3,-8.41c0.18,0.1 5.13,2.72 7.67,2.87c2.2,0.13 5,-0.32 6.55,-2.1a3.91,3.91 0 0 0 -0.59,-5.79c-2.72,-1.88 -8.3,0.22 -10.63,2c-0.19,0.14 -2.56,2.44 -3,2.88c0.07,-0.15 0.13,-0.33 0.2,-0.48a50.39,50.39 0 0 1 4.48,-7.75c0.93,-1.37 1.9,-2.62 2.87,-3.81c0.87,0.58 4.88,3.21 7.15,3.59s5,0.23 6.74,-1.37a3.91,3.91 0 0 0 0.05,-5.82c-2.49,-2.16 -8.27,-0.69 -10.79,0.84c-0.14,0.09 -1.44,1.09 -2.38,1.83c0.45,-0.53 0.9,-1.09 1.33,-1.59c1.64,-1.89 3.26,-3.52 4.7,-4.95c0.82,-0.81 1.59,-1.53 2.31,-2.19c1.15,0.13 5.81,0.59 8,-0.11s4.58,-2.12 5.35,-4.32a3.92,3.92 0 0 0 -2.63,-5.19c-3.22,-0.77 -7.66,3.2 -9.2,5.72c-0.13,0.22 -1.81,3.87 -1.75,3.87l0.07,0c-0.71,0.62 -1.46,1.3 -2.26,2.05c-1.48,1.4 -3.13,3 -4.81,4.86a70,70 0 0 0 -5.15,6.26a51.11,51.11 0 0 0 -4.71,7.76l0,0.1c0.14,-1 0.44,-3.65 0.44,-3.86c0,-3 -1.74,-8.65 -4.89,-9.66a3.9,3.9 0 0 0 -4.94,3.07c-0.49,2.53 0.89,5.02 2.33,6.68z"/>
   <path id="svg_42" fill="#263238" d="m462.81,249.42c0,0.05 3.32,-2.23 3.51,-2.4c2.22,-2 5.36,-7 4,-10.05a3.91,3.91 0 0 0 -5.56,-1.69c-2,1.14 -3,3.84 -3.33,6c-0.32,2.58 1.38,8.13 1.38,8.14z"/>
  </g>
  <g id="freepik--Screen--inject-2">
   <rect id="svg_43" fill="#263238" height="312.72" width="326.36" y="128.64" x="93.32"/>
   <path id="svg_44" fill="#263238" d="m419.68,441.86l-326.36,0a0.5,0.5 0 0 1 -0.5,-0.5l0,-312.72a0.5,0.5 0 0 1 0.5,-0.5l326.36,0a0.5,0.5 0 0 1 0.5,0.5l0,312.72a0.5,0.5 0 0 1 -0.5,0.5zm-325.86,-1l325.36,0l0,-311.72l-325.36,0l0,311.72z"/>
   <rect id="svg_45" fill="#fff" height="312.72" width="326.36" y="124.43" x="98.74"/>
   <path id="svg_46" fill="#263238" d="m425.1,437.65l-326.36,0a0.5,0.5 0 0 1 -0.5,-0.5l0,-312.72a0.5,0.5 0 0 1 0.5,-0.5l326.36,0a0.5,0.5 0 0 1 0.5,0.5l0,312.72a0.51,0.51 0 0 1 -0.5,0.5zm-325.86,-1l325.36,0l0,-311.72l-325.36,0l0,311.72z"/>
   <path id="svg_47" fill="#263238" d="m259.06,421.05a0.51,0.51 0 0 1 -0.5,-0.5l0,-281a0.51,0.51 0 0 1 0.5,-0.5a0.5,0.5 0 0 1 0.5,0.5l0,281a0.5,0.5 0 0 1 -0.5,0.5z"/>
  </g>
  <g id="freepik--Bricks--inject-2">
   <g id="svg_48" opacity="0.2">
    <rect id="svg_49" height="9.67" width="21.28" y="183.1" x="276.63"/>
    <rect id="svg_50" height="9.67" width="21.28" y="171.08" x="288.53"/>
    <rect id="svg_51" height="9.67" width="21.28" y="183.1" x="301.48"/>
    <rect id="svg_52" height="9.67" width="21.28" y="149.82" x="338.52"/>
    <rect id="svg_53" height="9.67" width="21.28" y="137.79" x="350.42"/>
    <rect id="svg_54" height="9.67" width="21.28" y="149.82" x="363.37"/>
    <rect id="svg_55" height="9.67" width="21.28" y="213.97" x="301.48"/>
    <rect id="svg_56" height="9.67" width="21.28" y="201.94" x="313.38"/>
    <rect id="svg_57" height="9.67" width="21.28" y="213.97" x="326.33"/>
    <rect id="svg_58" height="9.67" width="21.28" y="304.96" x="368.02"/>
    <rect id="svg_59" height="9.67" width="21.28" y="292.93" x="379.92"/>
    <rect id="svg_60" height="9.67" width="21.28" y="304.96" x="392.87"/>
    <rect id="svg_61" height="9.67" width="21.28" y="405.17" x="368.02"/>
    <rect id="svg_62" height="9.67" width="21.28" y="393.14" x="379.92"/>
    <rect id="svg_63" height="9.67" width="21.28" y="405.17" x="392.87"/>
    <rect id="svg_64" height="9.67" width="21.28" y="327" x="282.24"/>
    <rect id="svg_65" height="9.67" width="21.28" y="314.98" x="294.14"/>
    <rect id="svg_66" height="9.67" width="21.28" y="327" x="307.09"/>
    <rect id="svg_67" height="9.67" width="21.28" y="361.88" x="282.24"/>
    <rect id="svg_68" height="9.67" width="21.28" y="349.85" x="294.14"/>
    <rect id="svg_69" height="9.67" width="21.28" y="361.88" x="307.09"/>
    <rect id="svg_70" height="9.67" width="21.28" y="361.88" x="332.34"/>
    <rect id="svg_71" height="9.67" width="21.28" y="349.85" x="344.24"/>
    <rect id="svg_72" height="9.67" width="21.28" y="361.88" x="357.19"/>
   </g>
  </g>
  <g id="freepik--Information--inject-2">
   <rect id="svg_73" fill="#fff" height="18.09" width="106.69" y="302.67" x="126.30787"/>
   <path id="svg_74" fill="#263238" d="m232.99787,321.26l-106.67,0a0.5,0.5 0 0 1 -0.5,-0.5l0,-18.09a0.5,0.5 0 0 1 0.5,-0.5l106.67,0a0.5,0.5 0 0 1 0.5,0.5l0,18.09a0.5,0.5 0 0 1 -0.5,0.5zm-106.19,-1l105.69,0l0,-17.09l-105.69,0l0,17.09z"/>
   <rect id="svg_75" fill="#fff" height="18.09" width="106.69" y="336.36" x="126.30787"/>
   <path id="svg_76" fill="#263238" d="m232.99787,355l-106.67,0a0.5,0.5 0 0 1 -0.5,-0.5l0,-18.14a0.5,0.5 0 0 1 0.5,-0.5l106.67,0a0.5,0.5 0 0 1 0.5,0.5l0,18.09a0.5,0.5 0 0 1 -0.5,0.55zm-106.19,-1l105.69,0l0,-17.14l-105.69,0l0,17.14z"/>
   <rect id="svg_77" fill="#263238" rx="4.84" height="21.46" width="68.86" y="379.85" x="145.22787"/>
   <path id="svg_78" fill="#263238" d="m209.23787,401.8l-59.17,0a5.34,5.34 0 0 1 -5.34,-5.34l0,-11.77a5.34,5.34 0 0 1 5.34,-5.34l59.17,0a5.35,5.35 0 0 1 5.35,5.34l0,11.77a5.35,5.35 0 0 1 -5.35,5.34zm-59.17,-21.45a4.34,4.34 0 0 0 -4.34,4.34l0,11.77a4.34,4.34 0 0 0 4.34,4.34l59.17,0a4.34,4.34 0 0 0 4.35,-4.34l0,-11.77a4.34,4.34 0 0 0 -4.35,-4.34l-59.17,0z"/>
   <path id="svg_79" fill="#263238" d="m120.96787,253.6l0,-4.46a11.14,11.14 0 0 0 1.88,-0.13a2.47,2.47 0 0 0 1.19,-0.5a2.13,2.13 0 0 0 0.62,-1.06a7.28,7.28 0 0 0 0.19,-1.8l0,-24l6.34,0l0,24.24a12.81,12.81 0 0 1 -0.62,4.29a4.53,4.53 0 0 1 -2.17,2.55a9.14,9.14 0 0 1 -4.36,0.85l-3.07,0.02z"/>
   <path id="svg_80" fill="#263238" d="m144.55787,253.22a10.29,10.29 0 0 1 -5.42,-1.23a6.89,6.89 0 0 1 -2.86,-3.52a15.41,15.41 0 0 1 -0.87,-5.48l0,-11.6a15.23,15.23 0 0 1 0.87,-5.45a6.63,6.63 0 0 1 2.86,-3.46a13,13 0 0 1 10.89,0a6.73,6.73 0 0 1 2.89,3.45a15.37,15.37 0 0 1 0.86,5.44l0,11.63a15.64,15.64 0 0 1 -0.86,5.48a6.85,6.85 0 0 1 -2.89,3.52a10.45,10.45 0 0 1 -5.47,1.22zm0,-4.58a2.5,2.5 0 0 0 1.8,-0.55a2.8,2.8 0 0 0 0.77,-1.5a10,10 0 0 0 0.2,-2l0,-14.74a9.58,9.58 0 0 0 -0.2,-2a2.74,2.74 0 0 0 -0.77,-1.48a2.5,2.5 0 0 0 -1.8,-0.56a2.4,2.4 0 0 0 -1.73,0.56a2.81,2.81 0 0 0 -0.77,1.48a9.6,9.6 0 0 0 -0.19,2l0,14.72a11.7,11.7 0 0 0 0.17,2a2.78,2.78 0 0 0 0.75,1.5a2.47,2.47 0 0 0 1.77,0.57z"/>
   <path id="svg_81" fill="#263238" d="m158.07787,252.79l0,-31.12l6.3,0l0,31.12l-6.3,0z"/>
   <path id="svg_82" fill="#263238" d="m169.14787,252.79l0,-31.12l4.42,0l6.91,16.21l0,-16.21l5.23,0l0,31.12l-4.23,0l-6.91,-17.21l0,17.21l-5.42,0z"/>
   <path id="svg_83" fill="#263238" d="m208.79787,253.22a10.39,10.39 0 0 1 -5.47,-1.22a6.37,6.37 0 0 1 -2.75,-3.49a17.06,17.06 0 0 1 -0.79,-5.55l0,-21.29l6.26,0l0,22.17a14.28,14.28 0 0 0 0.18,2.27a3.53,3.53 0 0 0 0.76,1.8a2.3,2.3 0 0 0 1.83,0.69a2.32,2.32 0 0 0 1.86,-0.69a3.36,3.36 0 0 0 0.75,-1.8a17.08,17.08 0 0 0 0.16,-2.27l0,-22.17l6.26,0l0,21.33a17.06,17.06 0 0 1 -0.79,5.55a6.37,6.37 0 0 1 -2.73,3.45a10.39,10.39 0 0 1 -5.53,1.22z"/>
   <path id="svg_84" fill="#263238" d="m230.32787,253.22a9.92,9.92 0 0 1 -4.81,-1.06a6.74,6.74 0 0 1 -2.9,-3.19a14.73,14.73 0 0 1 -1.13,-5.44l5.45,-0.92a16.37,16.37 0 0 0 0.41,3.21a3.8,3.8 0 0 0 1,1.92a2.33,2.33 0 0 0 1.67,0.63a1.76,1.76 0 0 0 1.67,-0.76a3.57,3.57 0 0 0 0.44,-1.77a5.53,5.53 0 0 0 -0.94,-3.29a15.84,15.84 0 0 0 -2.48,-2.67l-3.23,-2.8a13.17,13.17 0 0 1 -2.82,-3.31a8.73,8.73 0 0 1 -1.09,-4.53a7.59,7.59 0 0 1 2.24,-5.9a8.81,8.81 0 0 1 6.17,-2.05a8.44,8.44 0 0 1 3.84,0.76a5.93,5.93 0 0 1 2.33,2.06a8.46,8.46 0 0 1 1.15,2.81a18.41,18.41 0 0 1 0.4,3l-5.42,0.81c-0.05,-1 -0.13,-1.78 -0.24,-2.5a3.41,3.41 0 0 0 -0.7,-1.69a1.9,1.9 0 0 0 -1.55,-0.61a1.81,1.81 0 0 0 -1.65,0.82a3.27,3.27 0 0 0 -0.54,1.83a4.59,4.59 0 0 0 0.75,2.71a13.09,13.09 0 0 0 2.05,2.2l3.15,2.77a17.9,17.9 0 0 1 3.36,3.86a9.66,9.66 0 0 1 1.41,5.36a8,8 0 0 1 -1,4a7.21,7.21 0 0 1 -2.79,2.77a8.53,8.53 0 0 1 -4.2,0.97z"/>
   <path id="svg_85" fill="#263238" d="m145.13787,275.91l0,-17.35l1.63,0l0,17.35l-1.63,0z"/>
   <path id="svg_86" fill="#263238" d="m151.98787,275.91l0,-16.09l-3.28,0l0,-1.26l8.08,0l0,1.26l-3.17,0l0,16.09l-1.63,0z"/>
   <path id="svg_87" fill="#263238" d="m158.67787,263.46l-0.39,-0.57a1.31,1.31 0 0 0 0.79,-0.73a4.23,4.23 0 0 0 0.2,-1.48l-0.86,0l0,-2.12l1.8,0l0,1.8a5.63,5.63 0 0 1 -0.32,2.09a1.77,1.77 0 0 1 -1.22,1.01z"/>
   <path id="svg_88" fill="#263238" d="m166.12787,276.12a4.38,4.38 0 0 1 -2.35,-0.58a3.77,3.77 0 0 1 -1.4,-1.65a7.59,7.59 0 0 1 -0.58,-2.48l1.44,-0.43a9.67,9.67 0 0 0 0.38,1.94a2.89,2.89 0 0 0 0.88,1.37a2.47,2.47 0 0 0 1.65,0.51a2.54,2.54 0 0 0 1.8,-0.6a2.5,2.5 0 0 0 0.64,-1.91a3.51,3.51 0 0 0 -0.56,-2a10.46,10.46 0 0 0 -1.56,-1.77l-3.06,-2.93a5.68,5.68 0 0 1 -1.2,-1.64a4.4,4.4 0 0 1 -0.39,-1.86a3.51,3.51 0 0 1 1.08,-2.76a4.09,4.09 0 0 1 2.84,-1a5.64,5.64 0 0 1 1.66,0.23a3.09,3.09 0 0 1 1.27,0.76a3.66,3.66 0 0 1 0.82,1.36a8.25,8.25 0 0 1 0.41,2l-1.39,0.36a7.66,7.66 0 0 0 -0.36,-1.87a2.28,2.28 0 0 0 -0.83,-1.19a3.12,3.12 0 0 0 -3.33,0.15a2.09,2.09 0 0 0 -0.66,1.87a3,3 0 0 0 0.27,1.29a4.42,4.42 0 0 0 0.95,1.24l3.07,2.89a11.38,11.38 0 0 1 1.77,2.15a4.82,4.82 0 0 1 0.75,2.65a4.33,4.33 0 0 1 -0.5,2.19a3.3,3.3 0 0 1 -1.4,1.32a4.75,4.75 0 0 1 -2.11,0.39z"/>
   <path id="svg_89" fill="#263238" d="m176.66787,275.91l0,-17.35l6.23,0l0,1.22l-4.57,0l0,6.53l3.83,0l0,1.2l-3.83,0l0,8.4l-1.66,0z"/>
   <path id="svg_90" fill="#263238" d="m184.93787,275.91l0,-17.35l3.92,0a5.26,5.26 0 0 1 2.56,0.52a3.06,3.06 0 0 1 1.34,1.52a6.32,6.32 0 0 1 0.4,2.37a7.63,7.63 0 0 1 -0.21,1.82a3.53,3.53 0 0 1 -0.73,1.46a2.51,2.51 0 0 1 -1.46,0.79l2.66,8.87l-1.59,0l-2.5,-8.53l-2.72,0l0,8.53l-1.67,0zm1.63,-9.73l2.2,0a3.29,3.29 0 0 0 1.69,-0.36a2,2 0 0 0 0.86,-1.07a5.27,5.27 0 0 0 0.26,-1.78a4.21,4.21 0 0 0 -0.56,-2.4a2.55,2.55 0 0 0 -2.21,-0.79l-2.24,0l0,6.4z"/>
   <path id="svg_91" fill="#263238" d="m195.87787,275.91l0,-17.35l6.28,0l0,1.26l-4.63,0l0,6.52l3.8,0l0,1.19l-3.8,0l0,7.16l4.67,0l0,1.22l-6.32,0z"/>
   <path id="svg_92" fill="#263238" d="m204.40787,275.91l0,-17.35l6.28,0l0,1.26l-4.63,0l0,6.52l3.77,0l0,1.19l-3.77,0l0,7.16l4.67,0l0,1.22l-6.32,0z"/>
   <path id="svg_93" fill="#263238" d="m212.73787,275.91l0,-1.86l1.67,0l0,1.86l-1.67,0zm0.56,-3.73l-0.54,-13.62l1.67,0l-0.57,13.62l-0.56,0z"/>
   <path id="svg_94" fill="#ccc" d="m162.32787,316.33a2.23,2.23 0 0 1 -1.34,-0.35a1.69,1.69 0 0 1 -0.63,-1a5.82,5.82 0 0 1 -0.17,-1.47l0,-5.31l1.14,0l0,5.36a5.53,5.53 0 0 0 0.07,0.94a1.3,1.3 0 0 0 0.3,0.67a1,1 0 0 0 0.7,0.25a0.93,0.93 0 0 0 0.7,-0.25a1.3,1.3 0 0 0 0.3,-0.67a6.79,6.79 0 0 0 0.07,-0.94l0,-5.36l1,0l0,5.31a5.4,5.4 0 0 1 -0.14,1.49a1.73,1.73 0 0 1 -0.62,1a2.19,2.19 0 0 1 -1.38,0.33z"/>
   <path id="svg_95" fill="#ccc" d="m167.54787,316.33a2.07,2.07 0 0 1 -1.15,-0.3a1.92,1.92 0 0 1 -0.69,-0.82a3.42,3.42 0 0 1 -0.28,-1.22l1,-0.26a4.52,4.52 0 0 0 0.13,0.82a1.41,1.41 0 0 0 0.34,0.64a0.87,0.87 0 0 0 0.66,0.26a0.83,0.83 0 0 0 0.66,-0.25a1,1 0 0 0 0.22,-0.69a1.48,1.48 0 0 0 -0.24,-0.88a4.8,4.8 0 0 0 -0.63,-0.66l-1.34,-1.19a2.24,2.24 0 0 1 -0.58,-0.75a2.41,2.41 0 0 1 -0.19,-1a1.82,1.82 0 0 1 0.5,-1.36a1.93,1.93 0 0 1 1.38,-0.48a2.64,2.64 0 0 1 0.83,0.12a1.54,1.54 0 0 1 0.61,0.38a1.8,1.8 0 0 1 0.38,0.65a3.32,3.32 0 0 1 0.19,0.91l-0.95,0.26a3.87,3.87 0 0 0 -0.11,-0.73a1.06,1.06 0 0 0 -0.32,-0.53a0.87,0.87 0 0 0 -0.63,-0.2a0.9,0.9 0 0 0 -0.65,0.22a0.87,0.87 0 0 0 -0.23,0.65a1.35,1.35 0 0 0 0.12,0.61a1.85,1.85 0 0 0 0.4,0.48l1.36,1.19a4.1,4.1 0 0 1 0.8,0.94a2.4,2.4 0 0 1 0.34,1.3a2,2 0 0 1 -0.25,1a1.64,1.64 0 0 1 -0.67,0.66a2.14,2.14 0 0 1 -1.01,0.23z"/>
   <path id="svg_96" fill="#ccc" d="m170.32787,316.24l0,-8l3.1,0l0,0.83l-2,0l0,2.65l1.61,0l0,0.79l-1.61,0l0,2.94l2,0l0,0.8l-3.1,-0.01z"/>
   <path id="svg_97" fill="#ccc" d="m174.32787,316.24l0,-8l1.61,0a3.58,3.58 0 0 1 1.33,0.22a1.47,1.47 0 0 1 0.77,0.68a2.56,2.56 0 0 1 0.25,1.23a3.12,3.12 0 0 1 -0.1,0.84a1.64,1.64 0 0 1 -0.31,0.65a1.33,1.33 0 0 1 -0.57,0.38l1.13,4l-1.08,0l-1,-3.76l-0.87,0l0,3.76l-1.16,0zm1.12,-4.56l0.42,0a2,2 0 0 0 0.77,-0.12a0.75,0.75 0 0 0 0.44,-0.4a1.91,1.91 0 0 0 0.14,-0.8a1.57,1.57 0 0 0 -0.26,-1a1.28,1.28 0 0 0 -1,-0.32l-0.49,0l-0.02,2.64z"/>
   <path id="svg_98" fill="#ccc" d="m179.48787,316.24l0,-8l0.76,0l2.27,5.32l0,-5.32l0.93,0l0,8l-0.71,0l-2.3,-5.47l0,5.47l-0.95,0z"/>
   <path id="svg_99" fill="#ccc" d="m184.26787,316.24l1.7,-8l1.08,0l1.71,8l-1.06,0l-0.37,-2l-1.63,0l-0.38,2l-1.05,0zm1.58,-2.82l1.34,0l-0.68,-3.6l-0.66,3.6z"/>
   <path id="svg_100" fill="#ccc" d="m189.54787,316.24l0.14,-8l1.1,0l1.41,6.5l1.43,-6.5l1.08,0l0.15,8l-0.9,0l-0.09,-5.81l-1.35,5.81l-0.63,0l-1.35,-5.81l-0.08,5.81l-0.91,0z"/>
   <path id="svg_101" fill="#ccc" d="m196.08787,316.24l0,-8l3.1,0l0,0.83l-2,0l0,2.65l1.61,0l0,0.79l-1.61,0l0,2.94l2,0l0,0.8l-3.1,-0.01z"/>
   <path id="svg_102" fill="#ccc" d="m159.52787,349.34l0,-8l2,0a2.23,2.23 0 0 1 1.15,0.26a1.52,1.52 0 0 1 0.63,0.76a3.26,3.26 0 0 1 0.2,1.19a2.48,2.48 0 0 1 -0.22,1.1a1.64,1.64 0 0 1 -0.66,0.72a2.12,2.12 0 0 1 -1.09,0.25l-0.88,0l0,3.72l-1.13,0zm1.11,-4.52l0.52,0a2.22,2.22 0 0 0 0.76,-0.11a0.69,0.69 0 0 0 0.39,-0.38a2,2 0 0 0 0.12,-0.77a3.77,3.77 0 0 0 -0.08,-0.87a0.62,0.62 0 0 0 -0.35,-0.43a2.17,2.17 0 0 0 -0.83,-0.12l-0.53,0l0,2.68z"/>
   <path id="svg_103" fill="#ccc" d="m163.45787,349.34l1.7,-8l1.08,0l1.71,8l-1.06,0l-0.37,-2l-1.63,0l-0.38,2l-1.05,0zm1.58,-2.81l1.29,0l-0.67,-3.61l-0.62,3.61z"/>
   <path id="svg_104" fill="#ccc" d="m170.63787,349.43a2.16,2.16 0 0 1 -1.15,-0.29a1.87,1.87 0 0 1 -0.7,-0.82a3.47,3.47 0 0 1 -0.27,-1.22l1,-0.26a4.52,4.52 0 0 0 0.13,0.82a1.46,1.46 0 0 0 0.34,0.64a1,1 0 0 0 1.32,0a1,1 0 0 0 0.22,-0.69a1.39,1.39 0 0 0 -0.25,-0.88a4.68,4.68 0 0 0 -0.62,-0.67l-1.33,-1.17a2.18,2.18 0 0 1 -0.58,-0.76a2.33,2.33 0 0 1 -0.19,-1a1.8,1.8 0 0 1 0.5,-1.36a1.89,1.89 0 0 1 1.38,-0.49a2.37,2.37 0 0 1 0.83,0.13a1.44,1.44 0 0 1 0.6,0.38a1.92,1.92 0 0 1 0.39,0.64a3.82,3.82 0 0 1 0.19,0.92l-0.95,0.25a3.86,3.86 0 0 0 -0.12,-0.72a1.12,1.12 0 0 0 -0.31,-0.54a1.08,1.08 0 0 0 -1.28,0a0.86,0.86 0 0 0 -0.23,0.66a1.31,1.31 0 0 0 0.12,0.6a1.69,1.69 0 0 0 0.4,0.49l1.35,1.18a4.12,4.12 0 0 1 0.8,1a2.38,2.38 0 0 1 0.35,1.3a2,2 0 0 1 -0.25,1a1.7,1.7 0 0 1 -0.67,0.66a2.14,2.14 0 0 1 -1.02,0.2z"/>
   <path id="svg_105" fill="#ccc" d="m175.32787,349.43a2.17,2.17 0 0 1 -1.16,-0.29a1.92,1.92 0 0 1 -0.69,-0.82a3.47,3.47 0 0 1 -0.28,-1.22l1,-0.26a4.52,4.52 0 0 0 0.13,0.82a1.57,1.57 0 0 0 0.34,0.64a0.87,0.87 0 0 0 0.67,0.25a0.85,0.85 0 0 0 0.65,-0.24a1,1 0 0 0 0.22,-0.69a1.46,1.46 0 0 0 -0.24,-0.88a5.35,5.35 0 0 0 -0.62,-0.67l-1.35,-1.18a2.18,2.18 0 0 1 -0.58,-0.76a2.33,2.33 0 0 1 -0.19,-1a1.8,1.8 0 0 1 0.5,-1.36a1.89,1.89 0 0 1 1.38,-0.49a2.37,2.37 0 0 1 0.83,0.13a1.54,1.54 0 0 1 0.61,0.38a1.76,1.76 0 0 1 0.38,0.64a3.4,3.4 0 0 1 0.19,0.92l-1,0.25a3.2,3.2 0 0 0 -0.11,-0.72a1.2,1.2 0 0 0 -0.31,-0.54a1,1 0 0 0 -0.64,-0.2a0.94,0.94 0 0 0 -0.65,0.22a0.9,0.9 0 0 0 -0.23,0.66a1.31,1.31 0 0 0 0.12,0.6a1.87,1.87 0 0 0 0.4,0.49l1.36,1.18a4.38,4.38 0 0 1 0.8,1a2.38,2.38 0 0 1 0.34,1.3a2.08,2.08 0 0 1 -0.24,1a1.79,1.79 0 0 1 -0.68,0.66a2.12,2.12 0 0 1 -0.95,0.18z"/>
   <path id="svg_106" fill="#ccc" d="m179.13787,349.34l-1.31,-8l0.93,0l0.86,5.75l1.08,-5.72l0.79,0l1.09,5.75l0.84,-5.78l0.91,0l-1.29,8l-0.81,0l-1.12,-5.92l-1.12,5.92l-0.85,0z"/>
   <path id="svg_107" fill="#ccc" d="m187.00821,349.43a2.32,2.32 0 0 1 -1.29,-0.31a1.74,1.74 0 0 1 -0.7,-0.91a4.35,4.35 0 0 1 -0.2,-1.37l0,-3a3.93,3.93 0 0 1 0.21,-1.36a1.71,1.71 0 0 1 0.69,-0.87a2.41,2.41 0 0 1 1.29,-0.3a2.35,2.35 0 0 1 1.28,0.31a1.67,1.67 0 0 1 0.69,0.87a3.83,3.83 0 0 1 0.21,1.35l0,3a4,4 0 0 1 -0.21,1.37a1.75,1.75 0 0 1 -0.69,0.9a2.19,2.19 0 0 1 -1.28,0.32zm0,-0.88a1.05,1.05 0 0 0 0.67,-0.18a0.94,0.94 0 0 0 0.31,-0.51a3.53,3.53 0 0 0 0.08,-0.78l0,-3.5a3.37,3.37 0 0 0 -0.08,-0.77a0.85,0.85 0 0 0 -0.31,-0.49a1.05,1.05 0 0 0 -0.67,-0.18a1.1,1.1 0 0 0 -0.68,0.18a0.81,0.81 0 0 0 -0.31,0.49a3.37,3.37 0 0 0 -0.08,0.77l0,3.5a3.53,3.53 0 0 0 0.08,0.78a0.89,0.89 0 0 0 0.31,0.51a1.1,1.1 0 0 0 0.68,0.18z"/>
   <path id="svg_108" fill="#ccc" d="m190.54787,349.34l0,-8l1.61,0a3.58,3.58 0 0 1 1.32,0.21a1.51,1.51 0 0 1 0.78,0.69a2.56,2.56 0 0 1 0.25,1.23a3.12,3.12 0 0 1 -0.1,0.84a1.59,1.59 0 0 1 -0.31,0.64a1.23,1.23 0 0 1 -0.58,0.38l1.14,4l-1.08,0l-1,-3.75l-0.87,0l0,3.75l-1.16,0.01zm1.12,-4.55l0.42,0a2.07,2.07 0 0 0 0.77,-0.12a0.82,0.82 0 0 0 0.44,-0.4a1.93,1.93 0 0 0 0.13,-0.8a1.63,1.63 0 0 0 -0.25,-1a1.32,1.32 0 0 0 -1,-0.31l-0.49,0l-0.02,2.63z"/>
   <path id="svg_109" fill="#ccc" d="m195.67787,349.34l0,-8l1.74,0a3,3 0 0 1 1.4,0.27a1.56,1.56 0 0 1 0.74,0.82a3.52,3.52 0 0 1 0.23,1.35l0,3a4,4 0 0 1 -0.23,1.43a1.62,1.62 0 0 1 -0.72,0.88a2.58,2.58 0 0 1 -1.34,0.3l-1.82,-0.05zm1.11,-0.8l0.64,0a1.25,1.25 0 0 0 0.86,-0.23a1.07,1.07 0 0 0 0.32,-0.69c0,-0.31 0.05,-0.67 0.05,-1.1l0,-2.6a5.49,5.49 0 0 0 -0.08,-1a0.87,0.87 0 0 0 -0.34,-0.56a1.54,1.54 0 0 0 -0.84,-0.18l-0.61,0l0,6.36z"/>
   <text transform="matrix(1.03423 0 0 1 -5.87791 0)" stroke="null" xml:space="preserve" text-anchor="start" font-family="Noto Sans JP" font-size="8" stroke-width="0" id="svg_196" y="393.58981" x="164.71144" fill="#DDDDDD">Register</text>
  </g>
  <g id="freepik--Mail--inject-2">
   <rect id="svg_116" fill="#0C62CC" height="39.96" width="60.12" y="169.83" x="147.94"/>
   <path id="svg_117" fill="#263238" d="m208.06,210.29l-60.12,0a0.5,0.5 0 0 1 -0.5,-0.5l0,-40a0.5,0.5 0 0 1 0.5,-0.5l60.12,0a0.5,0.5 0 0 1 0.5,0.5l0,40a0.5,0.5 0 0 1 -0.5,0.5zm-59.62,-1l59.12,0l0,-39l-59.12,0l0,39z"/>
   <polygon id="svg_118" fill="#263238" points="208.06 169.83 178 189.81 147.94 169.83 208.06 169.83"/>
   <path id="svg_119" fill="#263238" d="m178,190.31a0.57,0.57 0 0 1 -0.28,-0.08l-30.06,-20a0.51,0.51 0 0 1 -0.2,-0.56a0.5,0.5 0 0 1 0.48,-0.35l60.12,0a0.5,0.5 0 0 1 0.28,0.91l-30.06,20a0.57,0.57 0 0 1 -0.28,0.08zm-28.41,-20l28.41,18.9l28.4,-18.88l-56.81,-0.02z"/>
   <polygon id="svg_120" fill="#fff" points="155.91 175.35 155.91 149.53 200.03 149.53 200.03 175.14 178 189.81 155.91 175.35"/>
   <path id="svg_121" fill="#263238" d="m178,190.31a0.57,0.57 0 0 1 -0.28,-0.08l-22.08,-14.46a0.52,0.52 0 0 1 -0.23,-0.42l0,-25.82a0.5,0.5 0 0 1 0.5,-0.5l44.09,0a0.5,0.5 0 0 1 0.5,0.5l0,25.61a0.5,0.5 0 0 1 -0.22,0.42l-22,14.67a0.57,0.57 0 0 1 -0.28,0.08zm-21.59,-15.23l21.59,14.13l21.53,-14.33l0,-24.88l-43.12,0l0,25.08z"/>
   <path id="svg_122" fill="#263238" d="m190.88,159l-26.63,0a0.5,0.5 0 0 1 -0.5,-0.5a0.5,0.5 0 0 1 0.5,-0.5l26.63,0a0.5,0.5 0 0 1 0.5,0.5a0.5,0.5 0 0 1 -0.5,0.5z"/>
   <path id="svg_123" fill="#263238" d="m190.88,165.68l-26.63,0a0.5,0.5 0 0 1 -0.5,-0.5a0.5,0.5 0 0 1 0.5,-0.5l26.63,0a0.5,0.5 0 0 1 0.5,0.5a0.5,0.5 0 0 1 -0.5,0.5z"/>
   <path id="svg_124" fill="#263238" d="m190.88,172.39l-26.63,0a0.5,0.5 0 0 1 0,-1l26.63,0a0.5,0.5 0 0 1 0,1z"/>
   <polygon id="svg_125" fill="#0C62CC" points="147.94 209.79 178.07 184.7 208.06 209.79 147.94 209.79"/>
   <path id="svg_126" fill="#263238" d="m208.06,210.29l-60.12,0a0.5,0.5 0 0 1 -0.32,-0.88l30.13,-25.1a0.5,0.5 0 0 1 0.64,0l30,25.09a0.5,0.5 0 0 1 -0.32,0.88l-0.01,0.01zm-58.74,-1l57.36,0l-28.61,-23.94l-28.75,23.94z"/>
  </g>
  <g id="freepik--Character--inject-2">
   <path id="svg_127" fill="#fff" d="m325.68,287s-3.29,17.94 -3.79,23.25s-1,26.91 2.78,41.56a137.57,137.57 0 0 0 9.33,25.53s2.52,10.36 4,13.14s14.15,24.26 14.15,24.26s-0.76,8.84 -1.26,10.36s-2.28,10.86 -1.77,13.64s1.26,4.55 0.5,8.09s-1.77,7.07 0,10.11s6.07,3.28 7.33,1.51a13.77,13.77 0 0 0 2.78,-10.36c-0.76,-5 -3.29,-11.62 -2.78,-14.4a29.63,29.63 0 0 1 2.27,-6.32s9.61,19.71 10.11,21.23s1.52,7.83 2,9.85s3.29,-0.76 4.3,-2s4.8,-6.57 4,-10.11s-3,-9.85 -3,-9.85l3.77,5a0.56,0.56 0 0 0 1,-0.49c-0.71,-2.43 -1.67,-5.65 -2,-6.26c-0.51,-1 -0.76,-4.3 -2.78,-7.07s-7.58,-0.26 -7.58,-0.26l-4.3,-13.64s7.84,-25.77 6.32,-34.37s-2.27,-14.9 -1.77,-16.67s10.11,-28.43 10.11,-34s0.25,-18.95 -2.78,-26.28a126.29,126.29 0 0 0 -7.08,-14.14l-43.86,-1.31z"/>
   <path id="svg_128" fill="#263238" d="m354.34,460.06l-0.26,0a6,6 0 0 1 -4.83,-2.86c-1.71,-2.94 -1,-6.3 -0.26,-9.55l0.2,-0.92a12.88,12.88 0 0 0 -0.18,-6.31c-0.11,-0.5 -0.22,-1 -0.33,-1.58c-0.52,-2.9 1.28,-12.35 1.79,-13.89a101.38,101.38 0 0 0 1.23,-10.08c-1.09,-1.85 -12.64,-21.5 -14.08,-24.14s-3.85,-12.29 -4.07,-13.2a140,140 0 0 1 -9.37,-25.53c-3.72,-14.41 -3.34,-35.94 -2.79,-41.74c0.5,-5.27 3.76,-23.11 3.8,-23.29l0.07,-0.42l0.43,0l44.24,1.27l0.14,0.24a128.91,128.91 0 0 1 7.11,14.21c2.87,6.94 2.84,19.32 2.82,25.27l0,1.2c0,4.6 -6.32,23 -9,30.82c-0.6,1.73 -1,3 -1.12,3.31c-0.26,0.9 -0.37,4.25 1.78,16.45c1.48,8.36 -5.58,32.12 -6.28,34.45l4.08,13c1.5,-0.58 5.8,-1.94 7.67,0.63a16.16,16.16 0 0 1 2.42,5.78a8.79,8.79 0 0 0 0.41,1.37c0.25,0.51 0.93,2.64 2,6.34a1.05,1.05 0 0 1 -1.85,0.93l-1.89,-2.49c0.71,2.13 1.6,5 2,7c0.89,4.17 -3.94,10.27 -4.14,10.52s-2.64,3.24 -4.21,2.9a1.28,1.28 0 0 1 -1,-1.07c-0.22,-0.88 -0.53,-2.54 -0.86,-4.3c-0.41,-2.2 -0.88,-4.68 -1.15,-5.51c-0.38,-1.13 -6.22,-13.22 -9.63,-20.23a25.28,25.28 0 0 0 -1.79,5.25c-0.28,1.55 0.49,4.54 1.31,7.71a64.2,64.2 0 0 1 1.47,6.53a14.17,14.17 0 0 1 -2.86,10.72a3.71,3.71 0 0 1 -3.02,1.21zm-28.25,-172.54c-0.5,2.74 -3.25,18 -3.7,22.79c-0.55,5.75 -0.93,27.1 2.76,41.39a139,139 0 0 0 9.31,25.42l0,0.1c0,0.11 2.53,10.33 4,13s14,24 14.14,24.25l0.08,0.13l0,0.16c0,0.37 -0.77,8.92 -1.29,10.48s-2.24,10.69 -1.75,13.39c0.1,0.55 0.21,1.06 0.31,1.55a13.87,13.87 0 0 1 0.19,6.73l-0.2,0.92c-0.71,3.21 -1.37,6.23 0.14,8.83a4.94,4.94 0 0 0 4,2.37a2.86,2.86 0 0 0 2.48,-0.89a13.21,13.21 0 0 0 2.7,-10c-0.31,-2 -0.89,-4.26 -1.45,-6.43c-0.85,-3.28 -1.65,-6.37 -1.33,-8.14a28.84,28.84 0 0 1 2.32,-6.45l0.45,-0.91l0.44,0.91c0.4,0.81 9.63,19.76 10.14,21.29c0.29,0.89 0.74,3.31 1.18,5.65c0.33,1.74 0.63,3.38 0.85,4.24c0.05,0.2 0.12,0.31 0.2,0.33c0.53,0.11 2.06,-1.1 3.22,-2.54c1.64,-2.06 4.58,-6.72 3.94,-9.69c-0.74,-3.47 -3,-9.73 -3,-9.79l-1.11,-3.08l5.75,7.59l0.58,-0.19l-0.48,0.14c-1.39,-4.77 -1.81,-5.92 -1.94,-6.18a8.32,8.32 0 0 1 -0.48,-1.57a15.28,15.28 0 0 0 -2.26,-5.43c-1.75,-2.42 -6.91,-0.12 -7,-0.09l-0.51,0.23l-4.51,-14.33l0,-0.15c0.08,-0.25 7.79,-25.75 6.31,-34.13c-1.67,-9.45 -2.26,-15.14 -1.76,-16.9c0.1,-0.34 0.51,-1.54 1.13,-3.35c2.45,-7.13 9,-26.07 9,-30.5l0,-1.2c0,-5.88 0.05,-18.13 -2.74,-24.88a125.84,125.84 0 0 0 -6.91,-13.85l-43.2,-1.22z"/>
   <path id="svg_129" fill="#263238" d="m368.23,424.47l-3.39,-10.74s7.84,-25.77 6.32,-34.37s-2.27,-14.9 -1.77,-16.67s9.22,-28.5 10.11,-34a47.5,47.5 0 0 0 -2.78,-26.28a126.29,126.29 0 0 0 -7.08,-14.14l-44,-1.27s-3.29,17.94 -3.79,23.25s-1,26.91 2.78,41.56a137.57,137.57 0 0 0 9.37,25.53s2.52,10.36 4,13.14s14.15,24.26 14.15,24.26s-0.44,5.08 -0.87,8.2a13.28,13.28 0 0 0 5.92,2.41l2,2s5.8,2.55 9.03,-2.88z"/>
   <path id="svg_130" fill="#263238" d="m362.36,428.45a9.18,9.18 0 0 1 -3.28,-0.62l-0.15,-0.1l-1.89,-1.9a14,14 0 0 1 -6,-2.48l-0.27,-0.17l0.05,-0.31c0.38,-2.76 0.77,-7.13 0.85,-8c-1.09,-1.85 -12.64,-21.5 -14.08,-24.14s-3.85,-12.29 -4.07,-13.2a140,140 0 0 1 -9.34,-25.53c-3.72,-14.41 -3.34,-35.94 -2.79,-41.74c0.5,-5.27 3.76,-23.11 3.8,-23.29l0.07,-0.42l0.43,0l44.24,1.27l0.14,0.24a128.91,128.91 0 0 1 7.11,14.21a48.24,48.24 0 0 1 2.82,26.51c-0.71,4.41 -6.26,21.85 -8.92,30.24c-0.65,2.05 -1.1,3.45 -1.2,3.81c-0.26,0.9 -0.37,4.25 1.78,16.45c1.48,8.36 -5.58,32.12 -6.28,34.45l3.4,10.81l-0.11,0.19a7,7 0 0 1 -6.31,3.72zm-2.79,-1.5c0.7,0.28 5.33,1.91 8.11,-2.54l-3.36,-10.68l0,-0.15c0.08,-0.25 7.79,-25.75 6.31,-34.13c-1.67,-9.45 -2.26,-15.14 -1.76,-16.9c0.1,-0.36 0.55,-1.77 1.21,-3.83c2.45,-7.71 8.18,-25.77 8.89,-30.1a47.28,47.28 0 0 0 -2.75,-26a124.87,124.87 0 0 0 -6.91,-13.85l-43.26,-1.25c-0.5,2.74 -3.25,18 -3.7,22.79c-0.55,5.75 -0.93,27.1 2.76,41.39a139,139 0 0 0 9.31,25.42l0,0.1c0,0.11 2.53,10.33 4,13s14,24 14.14,24.25l0.08,0.13l0,0.16c0,0.05 -0.42,4.8 -0.83,7.91a12.3,12.3 0 0 0 5.42,2.16l0.18,0l2.16,2.12z"/>
   <path id="svg_131" fill="#fff" d="m361.7,403.64a0.49,0.49 0 0 1 -0.48,-0.37c-1.15,-4.42 -2.72,-10.37 -3.68,-13.66c-1.74,-6 -7.26,-21.29 -7.32,-21.45a0.5,0.5 0 0 1 0,-0.12l-4.53,-45.87l-8.39,-5.43a0.5,0.5 0 0 1 -0.15,-0.69a0.52,0.52 0 0 1 0.7,-0.15l8.59,5.56a0.5,0.5 0 0 1 0.22,0.37l4.54,46.05c0.38,1.05 5.62,15.63 7.32,21.45c1,3.3 2.53,9.26 3.68,13.69a0.5,0.5 0 0 1 -0.35,0.61l-0.15,0.01z"/>
   <path id="svg_132" fill="#fff" d="m363.58,410.94a0.51,0.51 0 0 1 -0.49,-0.37s-0.37,-1.48 -0.94,-3.7a0.5,0.5 0 1 1 1,-0.25c0.57,2.22 0.94,3.7 0.94,3.7a0.5,0.5 0 0 1 -0.36,0.61l-0.15,0.01z"/>
   <path id="svg_133" fill="#fff" d="m348.67,323.39l-0.16,0a0.5,0.5 0 0 1 -0.31,-0.64c1,-2.87 3.09,-6.92 6.35,-12a0.5,0.5 0 1 1 0.84,0.53a60.87,60.87 0 0 0 -6.24,11.82a0.5,0.5 0 0 1 -0.48,0.29z"/>
   <path id="svg_134" fill="#fff" d="m357.08,308.25a0.47,0.47 0 0 1 -0.28,-0.09a0.5,0.5 0 0 1 -0.14,-0.69c1.43,-2.12 2.46,-3.55 2.47,-3.57a0.5,0.5 0 1 1 0.81,0.59s-1,1.43 -2.45,3.54a0.5,0.5 0 0 1 -0.41,0.22z"/>
   <path id="svg_135" fill="#263238" d="m379.5,434.7c-0.51,-1 -0.76,-4.3 -2.78,-7.07a3.32,3.32 0 0 0 -2.52,-1.28c1.72,4.35 0.12,7.83 1,11.13c1,3.79 1.77,7.07 0.26,9.85s-5.31,4.3 -5.31,4.3l-0.07,0c0.47,2.44 1,5.51 1.33,6.81c0.51,2 3.29,-0.76 4.3,-2s4.8,-6.57 4,-10.11s-3,-9.85 -3,-9.85l4.38,5.78a0.37,0.37 0 0 0 0.65,-0.32c-0.74,-2.46 -1.89,-6.54 -2.24,-7.24z"/>
   <path id="svg_136" fill="#263238" d="m372.16,459.67a1.24,1.24 0 0 1 -0.27,0a1.28,1.28 0 0 1 -1,-1.07c-0.22,-0.88 -0.53,-2.54 -0.86,-4.29c-0.16,-0.86 -0.32,-1.74 -0.48,-2.54l-0.1,-0.5l0.5,-0.09l0,0s3.62,-1.47 5,-4.06s0.75,-5.54 -0.3,-9.48a14.32,14.32 0 0 1 -0.24,-4.49a14.57,14.57 0 0 0 -0.75,-6.58l-0.3,-0.76l0.81,0.07a3.79,3.79 0 0 1 2.88,1.48a16.16,16.16 0 0 1 2.42,5.78a8.79,8.79 0 0 0 0.41,1.37l0,0c0.27,0.56 1,3 2.28,7.31a0.87,0.87 0 0 1 -1.53,0.76l-2.49,-3.29c0.71,2.13 1.6,5 2,7c0.89,4.17 -3.94,10.27 -4.14,10.52s-2.29,2.86 -3.84,2.86zm-1.51,-7.67c0.13,0.69 0.27,1.42 0.4,2.14c0.33,1.73 0.63,3.38 0.85,4.23c0.05,0.2 0.12,0.31 0.2,0.33c0.53,0.11 2.06,-1.1 3.22,-2.54c1.64,-2.06 4.58,-6.72 3.94,-9.69c-0.74,-3.47 -3,-9.73 -3,-9.79l-0.82,-2.29a10.27,10.27 0 0 0 0.26,3c1.07,4 1.77,7.35 0.2,10.22c-1.35,2.39 -4.28,3.91 -5.25,4.39zm4.79,-18l5.62,7.41c-1.05,-3.65 -1.78,-6 -2,-6.45l0,0a8.32,8.32 0 0 1 -0.48,-1.57a15.28,15.28 0 0 0 -2.26,-5.43a2.44,2.44 0 0 0 -1.32,-0.96a16.88,16.88 0 0 1 0.52,6.17c-0.06,0.26 -0.07,0.53 -0.08,0.83z"/>
   <path id="svg_137" fill="#263238" d="m359.85,448.64c-0.37,1.2 -0.85,2.68 -1.32,4c-1,2.78 -4.3,3 -6.57,0.51a10.56,10.56 0 0 1 -2.28,-6.32c-0.76,3.54 -1.77,7.07 0,10.11s6.07,3.28 7.33,1.51a13.84,13.84 0 0 0 2.84,-9.81z"/>
   <path id="svg_138" fill="#263238" d="m354.34,460.06l-0.26,0a6,6 0 0 1 -4.83,-2.86c-1.71,-2.94 -1,-6.3 -0.26,-9.55l1.18,-5.48l0,4.67a10.11,10.11 0 0 0 2.15,6a4,4 0 0 0 3.67,1.53a2.77,2.77 0 0 0 2.06,-1.87c0.4,-1.1 0.84,-2.44 1.32,-4l0.71,-2.3l0.26,2.4a14.29,14.29 0 0 1 -2.93,10.15a3.71,3.71 0 0 1 -3.07,1.31zm-4.75,-10.43c-0.5,2.54 -0.71,4.94 0.52,7.05a4.94,4.94 0 0 0 4,2.37a2.86,2.86 0 0 0 2.48,-0.89a14.37,14.37 0 0 0 2.69,-6.18l-0.29,0.83a3.77,3.77 0 0 1 -2.81,2.51a5,5 0 0 1 -4.61,-1.84a9.49,9.49 0 0 1 -1.98,-3.85z"/>
   <path id="svg_139" fill="#0C62CC" d="m321.91,224.87s-3.84,1.34 -3.68,1.84s-6.13,32 -6.13,32s-4.47,11.6 -4,15.74s4,9.11 7.95,9.11a7,7 0 0 0 6.29,-3.64c0.83,-1.16 3.65,-6.63 3.65,-6.63s-1,10.44 -1.33,11.43s-2,3.64 -1.16,4.47a13.92,13.92 0 0 0 4.31,2.49a107.4,107.4 0 0 0 25.34,2.15c11.27,-0.66 18.06,-3.64 18.06,-3.64a33.52,33.52 0 0 1 1.33,-3.65c0.33,-0.5 1,-1.32 1,-1.32s10.6,-1.16 11.26,-1.83s2.49,-3.47 2.32,-7.95s1.49,-43.23 0.67,-44.06a33.81,33.81 0 0 0 -4.71,-2.8l-19.19,-10.73l-28.62,3.76l-13.36,3.26z"/>
   <path id="svg_140" fill="#263238" d="m349.2,294.41a112.54,112.54 0 0 1 -21.5,-2.28a14.38,14.38 0 0 1 -4.52,-2.61c-0.87,-0.87 0,-2.63 0.62,-4a10.17,10.17 0 0 0 0.42,-1c0.18,-0.56 0.66,-4.91 1,-8.76c-0.88,1.66 -2,3.72 -2.49,4.41l-0.15,0.21a7.36,7.36 0 0 1 -6.55,3.64c-4.18,0 -7.91,-5 -8.45,-9.55c-0.51,-4.22 3.82,-15.5 4,-16c2.39,-12 6,-30.31 6.09,-31.71c-0.11,-0.39 0,-1 4,-2.39l0.05,0l13.38,-3.29l28.67,-3.76a0.46,0.46 0 0 1 0.31,0.06l19.19,10.72a32.2,32.2 0 0 1 4.82,2.89c0.51,0.51 0.56,4.57 -0.17,28.95c-0.22,7.4 -0.41,13.8 -0.35,15.44c0.18,4.64 -1.72,7.58 -2.46,8.33s-7.31,1.49 -11.36,1.94c-0.2,0.26 -0.61,0.78 -0.84,1.13a31.39,31.39 0 0 0 -1.26,3.52a0.52,0.52 0 0 1 -0.28,0.3c-0.28,0.13 -7,3 -18.23,3.69c-1.25,0.09 -2.59,0.12 -3.94,0.12zm-23.2,-21.65l0.14,0a0.51,0.51 0 0 1 0.36,0.53c-0.11,1.07 -1,10.52 -1.35,11.54c-0.1,0.27 -0.27,0.64 -0.46,1.06c-0.36,0.75 -1.2,2.53 -0.82,2.9a13.47,13.47 0 0 0 4.09,2.36a106.68,106.68 0 0 0 25.18,2.13a59,59 0 0 0 17.68,-3.52a26.83,26.83 0 0 1 1.31,-3.55c0.34,-0.5 1,-1.32 1,-1.36a0.48,0.48 0 0 1 0.34,-0.18c4.94,-0.54 10.4,-1.33 11,-1.7c0.59,-0.59 2.3,-3.3 2.14,-7.56c-0.06,-1.68 0.13,-8.09 0.35,-15.51c0.32,-10.67 0.8,-26.72 0.4,-28.28a35.38,35.38 0 0 0 -4.52,-2.65l-19.06,-10.65l-28.45,3.73l-13.31,3.28a16.65,16.65 0 0 0 -3.34,1.48c-0.1,1 -0.91,5.9 -6.12,31.95c-0.07,0.2 -4.44,11.61 -4,15.58s3.85,8.67 7.46,8.67a6.39,6.39 0 0 0 5.73,-3.21l0.16,-0.23c0.79,-1.11 3.58,-6.51 3.6,-6.56a0.5,0.5 0 0 1 0.49,-0.25zm-7.31,-46.2a0.73,0.73 0 0 1 0,0.23a0.36,0.36 0 0 0 0.02,-0.23l-0.02,0z"/>
   <path id="svg_141" fill="#263238" d="m326,243.63c-0.84,-3.93 -4.25,-10.21 -4.28,-10.28l0.88,-0.47c0.14,0.26 3.51,6.47 4.38,10.54l-0.98,0.21z"/>
   <path id="svg_142" fill="#263238" d="m321,264.64a0.53,0.53 0 0 1 -0.41,-0.2c-1.58,-2.21 -5.87,-2.78 -5.92,-2.79a0.5,0.5 0 1 1 0.13,-1c0.19,0 4.77,0.63 6.61,3.19a0.5,0.5 0 0 1 -0.12,0.7a0.52,0.52 0 0 1 -0.29,0.1z"/>
   <path id="svg_143" fill="#263238" d="m322.3,263.58a0.5,0.5 0 0 1 -0.46,-0.29a6.67,6.67 0 0 0 -2.47,-2a0.5,0.5 0 0 1 0.46,-0.89c0.25,0.13 2.39,1.27 2.93,2.46a0.51,0.51 0 0 1 -0.25,0.66a0.52,0.52 0 0 1 -0.21,0.06z"/>
   <path id="svg_144" fill="#263238" d="m326,273.76a0.51,0.51 0 0 1 -0.17,0a0.49,0.49 0 0 1 -0.3,-0.64l0.92,-2.62l-2.69,-5.53l-1.9,0.67a0.48,0.48 0 0 1 -0.45,-0.05s-3.84,-2.53 -6.42,-2.08s-4.27,3.84 -4.28,3.87a0.5,0.5 0 0 1 -0.9,-0.44c0.08,-0.16 2,-3.88 5,-4.41c2.63,-0.47 6.05,1.53 6.94,2.09l2.09,-0.75a0.51,0.51 0 0 1 0.62,0.26l3,6.12a0.48,0.48 0 0 1 0,0.39l-1,2.82a0.51,0.51 0 0 1 -0.46,0.3z"/>
   <path id="svg_145" fill="#263238" d="m376.94,243.12a0.43,0.43 0 0 1 -0.19,0a0.51,0.51 0 0 1 -0.27,-0.66c0.79,-1.84 3.28,-7.48 3.28,-7.48l0.92,0.41s-2.49,5.63 -3.28,7.47a0.49,0.49 0 0 1 -0.46,0.26z"/>
   <path id="svg_146" fill="#263238" d="m373.56,285.69a0.49,0.49 0 0 1 -0.34,-0.14l-9.64,-9.1a0.5,0.5 0 0 1 0,-0.71a0.49,0.49 0 0 1 0.7,0l9.64,9.1a0.5,0.5 0 0 1 -0.34,0.87l-0.02,-0.02z"/>
   <path id="svg_147" fill="#263238" d="m369.78,284.34a0.5,0.5 0 0 1 -0.23,0l-9.65,-5a0.5,0.5 0 1 1 0.46,-0.89l9.65,5a0.5,0.5 0 0 1 -0.23,0.94l0,-0.05z"/>
   <path id="svg_148" fill="#263238" d="m332.53,292.62a0.49,0.49 0 0 1 -0.49,-0.45a0.5,0.5 0 0 1 0.44,-0.55l25.52,-2.75a0.49,0.49 0 0 1 0.55,0.44a0.5,0.5 0 0 1 -0.44,0.55l-25.52,2.76l-0.06,0z"/>
   <path id="svg_149" fill="#263238" d="m350.64,262.61l-0.05,0a0.5,0.5 0 0 1 -0.45,-0.55c0.17,-1.53 3.08,-30.06 3.11,-30.35a0.5,0.5 0 1 1 1,0.1c0,0.29 -2.93,28.82 -3.1,30.36a0.51,0.51 0 0 1 -0.51,0.44z"/>
   <path id="svg_150" fill="#263238" d="m348.23,283.31l-0.05,0a0.5,0.5 0 0 1 -0.45,-0.55l0.86,-9.48a0.51,0.51 0 0 1 0.54,-0.45a0.5,0.5 0 0 1 0.46,0.54l-0.87,9.48a0.5,0.5 0 0 1 -0.49,0.46z"/>
   <polygon id="svg_151" fill="#fff" points="365.7 213.04 363.16 219.47 354.79 229.03 347.32 219.17 347.93 206.71 357.33 215.28 365.7 213.04"/>
   <path id="svg_152" fill="#263238" d="m354.76,229.83l-7.95,-10.5l0,-0.18l0.67,-13.52l10,9.1l9.06,-2.43l-3,7.5l-8.78,10.03zm-6.93,-10.83l7,9.23l7.91,-9l2.14,-5.42l-7.67,2.06l-8.82,-8l-0.56,11.13z"/>
   <path id="svg_153" fill="#263238" d="m358.09,173.58s-14.73,5.33 -16.76,9.52a64.81,64.81 0 0 0 -3.93,12.31c0,0.51 -7,3.31 -8.38,5.46s0.12,8.51 0,10.29s-6.6,3.81 -7.24,7.74a12.79,12.79 0 0 0 0.13,6l11.3,-1.78s7.36,2.92 11.3,1.4s4.31,-9.14 4.06,-11.68s-0.64,-6.1 -0.64,-6.1l5.21,-14.74l11.8,-3.56l7.49,7l-6.88,18.08s-2.17,4.39 -1.79,5.53s3.85,2.29 3.85,2.29l15.49,7.24a8.47,8.47 0 0 0 0.38,-3.68c-0.25,-2 -3.56,-6.35 -3.56,-7.62s4.32,-6.22 2.29,-10.66s-4.19,-6.86 -5.33,-9.14s1,-6.61 -1.27,-12.19s-9.78,-10.41 -11.81,-11.55s-5.71,-0.16 -5.71,-0.16z"/>
   <path id="svg_154" fill="#263238" d="m383.37,229.23l-16,-7.46c-0.57,-0.19 -3.68,-1.28 -4.11,-2.59s1.28,-4.84 1.82,-5.91l6.74,-17.72l-7,-6.56l-11.29,3.4l-5.08,14.38c0.07,0.63 0.4,3.71 0.62,6c0.22,2.13 0.1,10.46 -4.37,12.19c-3.83,1.48 -10.49,-0.95 -11.54,-1.35l-11.57,1.82l-0.14,-0.38a13.18,13.18 0 0 1 -0.15,-6.22c0.41,-2.53 2.91,-4.26 4.93,-5.65c1.06,-0.73 2.26,-1.56 2.3,-2a19.34,19.34 0 0 0 -0.22,-2.64c-0.34,-2.78 -0.76,-6.24 0.3,-7.88c0.94,-1.46 4,-3.08 6.3,-4.26a22,22 0 0 0 2,-1.12a65.38,65.38 0 0 1 4,-12.34c2.1,-4.32 16.43,-9.55 17,-9.77l0,0c0.15,0 3.9,-1.06 6.09,0.17c0.09,0 9.38,5.33 12,11.8a17.85,17.85 0 0 1 1,8.62a7.47,7.47 0 0 0 0.23,3.53a29.31,29.31 0 0 0 1.77,2.71a44.31,44.31 0 0 1 3.64,6.37c1.57,3.42 -0.36,7.07 -1.51,9.25a7.31,7.31 0 0 0 -0.73,1.62a12.22,12.22 0 0 0 1.48,3a15.21,15.21 0 0 1 2.07,4.54a8.74,8.74 0 0 1 -0.41,3.92l-0.17,0.53zm-18.29,-41.36l7.94,7.41l-7,18.39c-1,2.06 -2,4.61 -1.79,5.19s2,1.46 3.54,2l15,7a8.06,8.06 0 0 0 0.19,-2.92a15.49,15.49 0 0 0 -2,-4.16c-1,-1.73 -1.61,-2.82 -1.61,-3.52a5.59,5.59 0 0 1 0.85,-2.08c1.13,-2.15 2.84,-5.4 1.48,-8.38a43.62,43.62 0 0 0 -3.56,-6.23a30,30 0 0 1 -1.76,-2.89a8.15,8.15 0 0 1 -0.32,-4a17.06,17.06 0 0 0 -1,-8.17c-2.52,-6.15 -11.5,-11.26 -11.59,-11.31c-1.76,-1 -5.05,-0.15 -5.32,-0.08c-0.61,0.22 -14.57,5.37 -16.46,9.26a64.22,64.22 0 0 0 -3.88,12.11c0,0.46 -0.4,0.69 -2.54,1.8s-5.12,2.67 -5.92,3.92s-0.43,4.87 -0.15,7.21a19,19 0 0 1 0.23,2.83c-0.07,1 -1.25,1.78 -2.74,2.81c-1.85,1.28 -4.16,2.87 -4.51,5a14.32,14.32 0 0 0 0,5.32l11,-1.73l0.13,0.05c0.07,0 7.23,2.83 10.94,1.4s4,-8.67 3.74,-11.16s-0.63,-6.09 -0.63,-6.09l0,-0.12l0,-0.1l5.29,-15l12.45,-3.76zm-28.18,7.5l0,0z"/>
   <path id="svg_155" fill="#fff" d="m363.42,183.86s-11.42,5.08 -12.31,7.49s-3.3,13.59 -3.18,15.36s7.75,10.92 9.27,11.18s9.35,-4.28 10.75,-5.3s6,-16.29 5.88,-18.7s-9.14,-9.89 -10.41,-10.03z"/>
   <path id="svg_156" fill="#263238" d="m357.3,218.39l-0.18,0c-1.76,-0.29 -9.54,-9.64 -9.69,-11.63s2.35,-13.25 3.21,-15.57c0.93,-2.54 11.39,-7.25 12.58,-7.77l0.12,-0.06l0.13,0c1.42,0.14 10.71,7.68 10.86,10.5c0.13,2.49 -4.5,18 -6.09,19.13c-1.01,0.75 -8.79,5.4 -10.94,5.4zm6.17,-34c-4.36,2 -11.31,5.54 -11.89,7.14c-0.91,2.45 -3.27,13.46 -3.15,15.15c0.11,1.53 7.47,10.44 8.85,10.71c1.16,0.2 8.58,-3.9 10.37,-5.2c1.14,-0.86 5.81,-15.89 5.68,-18.27c-0.11,-2.09 -8.48,-9 -9.86,-9.53z"/>
   <path id="svg_157" fill="#263238" d="m374.19,196.14c-4.57,-1.37 -9.39,-9 -10.8,-11.34c-1.37,1.9 -5.69,7.26 -12.27,9l-0.26,-1c7.51,-2 12.09,-9.18 12.14,-9.25l0.45,-0.72l0.41,0.74c0.05,0.1 5.69,10.09 10.62,11.57l-0.29,1z"/>
   <path id="svg_158" fill="#263238" d="m348.23,194.6l-0.19,-1c3.72,-0.75 14.95,-10.05 15.06,-10.14l0.64,0.77c-0.47,0.41 -11.54,9.57 -15.51,10.37z"/>
   <path id="svg_159" fill="#263238" d="m360.93,208.09a3.51,3.51 0 0 1 -0.93,-0.09a0.5,0.5 0 0 1 0.28,-1a4,4 0 0 0 3.11,-0.8a0.5,0.5 0 0 1 0.61,0.79a5.51,5.51 0 0 1 -3.07,1.1z"/>
   <path id="svg_160" fill="#263238" d="m360.23,210.9a6.5,6.5 0 0 1 -4.82,-2.23a0.5,0.5 0 0 1 0.79,-0.61a5.43,5.43 0 0 0 6.64,1.24a0.5,0.5 0 1 1 0.4,0.92a7.36,7.36 0 0 1 -3.01,0.68z"/>
   <path id="svg_161" fill="#263238" d="m360.12,196.68a0.49,0.49 0 0 1 -0.28,-0.09s-3,-2 -5.73,-0.72a0.5,0.5 0 0 1 -0.42,-0.91c3.27,-1.49 6.57,0.71 6.71,0.8a0.5,0.5 0 0 1 0.13,0.7a0.49,0.49 0 0 1 -0.41,0.22z"/>
   <path id="svg_162" fill="#263238" d="m371.17,197.69a0.54,0.54 0 0 1 -0.36,-0.14c-1.4,-1.4 -4.63,-0.16 -4.67,-0.15a0.5,0.5 0 0 1 -0.36,-0.93c0.15,-0.06 3.88,-1.49 5.74,0.37a0.51,0.51 0 0 1 0,0.71a0.54,0.54 0 0 1 -0.35,0.14z"/>
   <path id="svg_163" fill="#263238" d="m357.83,200c-0.08,0.77 -0.63,1.34 -1.22,1.28a1.28,1.28 0 0 1 -0.93,-1.51c0.09,-0.76 0.63,-1.33 1.23,-1.27a1.27,1.27 0 0 1 0.92,1.5z"/>
   <path id="svg_164" fill="#263238" d="m367.86,201.5a1.12,1.12 0 1 1 -2.15,-0.23c0.08,-0.77 0.63,-1.34 1.22,-1.28a1.28,1.28 0 0 1 0.93,1.51z"/>
   <polygon id="svg_165" fill="#0C62CC" points="343.13 224.7 347.62 232.62 353.3 226.94 347.32 219.17 343.13 224.7"/>
   <path id="svg_166" fill="#263238" d="m347.62,233.12l-0.07,0a0.53,0.53 0 0 1 -0.37,-0.25l-4.48,-7.87a0.5,0.5 0 0 1 0,-0.55l4.19,-5.53a0.54,0.54 0 0 1 0.4,-0.2a0.47,0.47 0 0 1 0.39,0.2l6,7.77a0.49,0.49 0 0 1 0,0.66l-5.68,5.65a0.5,0.5 0 0 1 -0.38,0.12zm-3.89,-8.38l4,7.06l4.9,-4.9l-5.31,-6.9l-3.59,4.74z"/>
   <polygon id="svg_167" fill="#0C62CC" points="356.88 227.24 360.92 233.07 367.61 221.31 363.91 217.82 356.88 227.24"/>
   <path id="svg_168" fill="#263238" d="m360.92,233.57a0.51,0.51 0 0 1 -0.41,-0.21l-4,-5.83a0.53,0.53 0 0 1 0,-0.59l7,-9.41a0.46,0.46 0 0 1 0.36,-0.2a0.45,0.45 0 0 1 0.38,0.13l3.75,3.54a0.5,0.5 0 0 1 0.1,0.61l-6.7,11.76a0.49,0.49 0 0 1 -0.41,0.25l-0.07,-0.05zm-3.42,-6.32l3.38,4.88l6.1,-10.72l-3,-2.84l-6.48,8.68z"/>
   <polygon id="svg_169" fill="#fff" points="337.97 266.75 329.18 266.75 328.08 246.41 339.07 246.41 337.97 266.75"/>
   <path id="svg_170" fill="#263238" d="m338.44,267.25l-9.73,0l-1.16,-21.34l12,0l-1.11,21.34zm-8.79,-1l7.84,0l1.05,-19.34l-9.93,0l1.04,19.34z"/>
   <rect id="svg_171" fill="#263238" height="3.08" width="13.11" y="244.68" x="326.92"/>
   <path id="svg_172" fill="#263238" d="m340.53,248.26l-14.11,0l0,-4.08l14.11,0l0,4.08zm-13.11,-1l12.11,0l0,-2.08l-12.11,0l0,2.08z"/>
   <rect id="svg_173" fill="#263238" height="1.45" width="9.64" y="243.23" x="328.76"/>
   <path id="svg_174" fill="#263238" d="m338.89,245.18l-10.63,0l0,-2.45l10.63,0l0,2.45zm-9.63,-1l8.63,0l0,-0.45l-8.63,0l0,0.45z"/>
   <path id="svg_175" fill="#fff" d="m327.66,268.57c0,0.05 0,0.1 0,0.12a4.11,4.11 0 0 1 -3.57,2.75a3.14,3.14 0 0 1 -2.41,-0.78a3.81,3.81 0 0 1 -1,-2.37a4.94,4.94 0 0 1 1.42,-4.54c0.42,-0.5 2,-1.79 2.12,-2.43l0.89,-7s8.72,-2 9.47,-1.89a1,1 0 0 1 0.76,1.42c-0.19,0.57 -1.51,0.85 -1.8,0.94s-4.55,1.14 -4.55,1.14l-1.51,1.8a18.58,18.58 0 0 1 2.27,-0.95c0.29,0 5,-0.66 5.59,-0.75a1,1 0 0 1 0.95,1.42c-0.38,0.76 -0.66,0.94 -0.95,0.94s-5,0.86 -5,0.86l-2.65,2.27s3.6,-1.14 4,-1.14s3.69,-0.09 3.79,0.48a1.19,1.19 0 0 1 -0.76,1.42c-0.66,0.19 -3.22,0.57 -3.22,0.57l-2.85,1.51l2.75,0s2.66,0.86 3.22,1s1,0.38 0.19,1.23s-6.65,0.17 -6.65,0.17s-0.4,1.35 -0.5,1.81z"/>
   <path id="svg_176" fill="#263238" d="m323.75,272a3.5,3.5 0 0 1 -2.45,-0.93a4.22,4.22 0 0 1 -1.17,-2.68a5.42,5.42 0 0 1 1.54,-4.92c0.13,-0.15 0.37,-0.39 0.65,-0.65a7.06,7.06 0 0 0 1.35,-1.51l0.94,-7.37l0.34,-0.08c2.06,-0.47 8.85,-2 9.65,-1.9a1.36,1.36 0 0 1 1,0.63a1.74,1.74 0 0 1 0.15,1.45c-0.25,0.73 -1.36,1 -2,1.21l-0.16,0.05c-0.27,0.09 -3.45,0.87 -4.43,1.11l0,0a1.46,1.46 0 0 1 0.51,-0.13c0.34,0 4.91,-0.65 5.51,-0.75a1.51,1.51 0 0 1 1.48,2.14c-0.31,0.61 -0.71,1.23 -1.4,1.23c-0.26,0 -3,0.5 -4.8,0.82l-0.73,0.62a12.85,12.85 0 0 1 1.84,-0.45l0.15,0c3.35,0 4,0.28 4.13,0.9a1.67,1.67 0 0 1 -1.11,2c-0.63,0.18 -2.74,0.5 -3.2,0.57l-1,0.53l0.91,0c1,0.34 2.76,0.86 3.15,0.93a1.13,1.13 0 0 1 1,0.66c0.19,0.53 -0.2,1.05 -0.5,1.4c-0.84,0.94 -5.23,0.54 -6.66,0.38c0,0.17 -0.07,0.38 -0.12,0.59s-0.13,0.67 -0.18,0.85l0,0a0.84,0.84 0 0 1 -0.05,0.18a4.61,4.61 0 0 1 -4,3.08l-0.34,0.04zm1.76,-17.24l-0.85,6.68c-0.07,0.58 -0.73,1.24 -1.65,2.11a8,8 0 0 0 -0.58,0.57a4.44,4.44 0 0 0 -1.3,4.16a3.3,3.3 0 0 0 0.86,2.07a2.66,2.66 0 0 0 2,0.64a3.61,3.61 0 0 0 3.14,-2.42l0.51,0.05l-0.49,-0.12c0,-0.17 0.11,-0.5 0.17,-0.82c0.27,-1.32 0.31,-1.48 0.78,-1.43c2.6,0.3 5.8,0.37 6.23,0a2,2 0 0 0 0.27,-0.37l-0.17,0c-0.55,-0.1 -2.72,-0.79 -3.22,-1l-4.66,0l4.76,-2.51c0.71,-0.1 2.64,-0.4 3.16,-0.55a0.65,0.65 0 0 0 0.42,-0.71a11.34,11.34 0 0 0 -3.15,-0.21l-0.16,0c-0.27,0 -2.16,0.58 -3.83,1.11l-2.34,0.74l4.62,-4l0.13,0c1.79,-0.33 4.83,-0.86 5.11,-0.86c0.06,0 0.24,-0.15 0.5,-0.68a0.44,0.44 0 0 0 -0.05,-0.48a0.47,0.47 0 0 0 -0.37,-0.22c-0.29,0.05 -5.29,0.76 -5.67,0.76c-0.17,0 -1.21,0.5 -2.06,0.9l-2.08,1l3.11,-3.7l0.15,0c1.63,-0.4 4.3,-1.06 4.52,-1.13l0.2,-0.06c1.06,-0.3 1.25,-0.5 1.28,-0.57a0.74,0.74 0 0 0 0,-0.59a0.38,0.38 0 0 0 -0.31,-0.18c-0.49,-0.05 -4.96,0.86 -8.98,1.77l0,0.05z"/>
   <path id="svg_177" fill="#0C62CC" d="m373.62,264.49l-1.88,2.51s0,15 0.59,16.25s5.18,4.71 7.65,4.71s7.31,-5.65 7.54,-6.59s-6.12,-19.2 -6,-19.67s-0.58,-1.06 -1.41,-1.06s-6.49,3.85 -6.49,3.85z"/>
   <path id="svg_178" fill="#263238" d="m380,288.43c-2.72,0 -7.45,-3.55 -8.11,-5s-0.63,-13.95 -0.63,-16.46a0.45,0.45 0 0 1 0.1,-0.3l1.88,-2.48l0.12,-0.11c2.16,-1.48 5.91,-4 6.76,-4a2.16,2.16 0 0 1 1.67,0.75a1.13,1.13 0 0 1 0.25,0.84c0.1,0.55 1.18,3.85 2.23,7.05c3.16,9.66 3.9,12.15 3.76,12.71c-0.32,1.23 -5.31,7 -8.03,7zm-7.74,-21.29c0,7.15 0.19,15.1 0.54,15.88c0.54,1.18 5,4.41 7.2,4.41s6.8,-5.29 7.06,-6.21c0,-0.72 -2.25,-7.6 -3.74,-12.16c-2.28,-6.94 -2.34,-7.24 -2.27,-7.51a1.07,1.07 0 0 0 -0.93,-0.44a42.78,42.78 0 0 0 -6.13,3.75l-1.73,2.28z"/>
   <path id="svg_179" fill="#fff" d="m380.15,255.56l0.3,6.34s-0.35,2.59 -2,3.65a8.23,8.23 0 0 1 -3.89,1.06l-1.06,-2.12l-1.64,-1.65l8.29,-7.28z"/>
   <path id="svg_180" fill="#263238" d="m374.56,267.11l-0.3,0l-1.17,-2.32l-2,-2l9.47,-8.32l0.35,7.38c0,0.2 -0.41,2.92 -2.23,4.1a8.68,8.68 0 0 1 -4.12,1.16zm-2,-4.24l1.36,1.4l0.92,1.83a7.38,7.38 0 0 0 3.31,-1c1.44,-0.92 1.78,-3.27 1.78,-3.3l-0.26,-5.21l-7.11,6.28z"/>
   <polygon id="svg_181" fill="#263238" points="382.06 246.94 370.13 244.45 362.66 264.38 372.75 266.21 382.06 246.94"/>
   <path id="svg_182" fill="#263238" d="m373,266.77l-11,-2l7.83,-20.88l13,2.71l-9.83,20.17zm-9.66,-2.77l9.12,1.66l8.87,-18.35l-10.88,-2.31l-7.11,19z"/>
   <path id="svg_183" fill="#fff" d="m380.42,252s-8,0.36 -8.09,1s0.18,1.42 0.45,1.51s7.37,1.07 7.37,1.07s2,-0.45 1.86,-2.05a1.5,1.5 0 0 0 -1.59,-1.53z"/>
   <path id="svg_184" fill="#263238" d="m380.17,256.07l-0.09,0c-2.67,-0.36 -7.19,-1 -7.46,-1.08c-0.63,-0.21 -0.88,-1.36 -0.78,-2.06c0.06,-0.43 0.15,-1 8.55,-1.4a2.16,2.16 0 0 1 1.48,0.5a2.06,2.06 0 0 1 0.64,1.48a2.67,2.67 0 0 1 -2.25,2.55l-0.09,0.01zm-7.17,-2.07c0.61,0.11 4.58,0.67 7.12,1c0.32,-0.09 1.45,-0.5 1.4,-1.51a1,1 0 0 0 -1.08,-1l0,-0.5l0,0.5a49.76,49.76 0 0 0 -7.62,0.75a1.75,1.75 0 0 0 0.18,0.76zm0,0z"/>
   <path id="svg_185" fill="#fff" d="m375.89,255.11s-7,-0.8 -7.37,-0.35s-0.71,1.06 0.35,1.51a81.83,81.83 0 0 0 8,2.22a3.36,3.36 0 0 0 2.49,-1.33a1.72,1.72 0 0 0 0.18,-1.43l-3.65,-0.62z"/>
   <path id="svg_186" fill="#263238" d="m376.86,259a75.28,75.28 0 0 1 -8.18,-2.26a1.53,1.53 0 0 1 -1,-1a1.57,1.57 0 0 1 0.44,-1.33c0.18,-0.23 0.52,-0.66 7.81,0.17l0,0l3.89,0.67l0.11,0.22a2.12,2.12 0 0 1 -0.17,1.87a3.85,3.85 0 0 1 -2.9,1.66zm-8,-3.83c-0.19,0.26 -0.18,0.35 -0.18,0.37s0.11,0.15 0.4,0.28c1.12,0.46 7.28,2.14 7.81,2.18a2.88,2.88 0 0 0 2,-1.06a1.67,1.67 0 0 0 0.21,-0.76l-3.29,-0.56a46.21,46.21 0 0 0 -6.97,-0.46l0.02,0.01z"/>
   <path id="svg_187" fill="#fff" d="m372.25,257.42s-5.33,-1.06 -5.6,-0.53s-0.35,1.42 0.18,1.78s7.64,2.3 8.08,2.48s1.51,-0.35 1.86,-1.06a2.44,2.44 0 0 0 0.09,-1.6l-4.61,-1.07z"/>
   <path id="svg_188" fill="#263238" d="m375.11,261.69a1.23,1.23 0 0 1 -0.39,-0.07c-0.13,-0.06 -1.13,-0.35 -2.11,-0.63a50.47,50.47 0 0 1 -6.06,-1.91a1.9,1.9 0 0 1 -0.35,-2.41c0.17,-0.33 0.44,-0.88 6.14,0.26l0,0l4.9,1.14l0.08,0.27a2.89,2.89 0 0 1 -0.12,2a2.67,2.67 0 0 1 -2.09,1.35zm-8.11,-4.44c-0.14,0.37 -0.15,0.86 0.06,1c0.39,0.22 3.91,1.24 5.79,1.78c1.37,0.4 2,0.59 2.21,0.66a1.47,1.47 0 0 0 1.34,-1.79l-4.3,-1a25.8,25.8 0 0 0 -5.1,-0.65z"/>
   <path id="svg_189" fill="#fff" d="m372.42,260.53s-4,-0.8 -4.17,-0.35s-0.27,1.42 0.53,1.68s5.42,2.13 6.22,1.6s0.53,-1.95 0.53,-1.95l-3.11,-0.98z"/>
   <path id="svg_190" fill="#263238" d="m374.53,264.05a19.31,19.31 0 0 1 -5.29,-1.49l-0.62,-0.22a1.38,1.38 0 0 1 -0.83,-0.74a2.13,2.13 0 0 1 0,-1.61c0.13,-0.35 0.33,-0.83 4.73,0.05l0.05,0l3.4,1.07l0,0.3c0,0.17 0.3,1.76 -0.74,2.46a1.41,1.41 0 0 1 -0.7,0.18zm-5.87,-3.51a1.12,1.12 0 0 0 0,0.63a0.39,0.39 0 0 0 0.25,0.22l0.65,0.23c3.73,1.38 4.86,1.53 5.15,1.42s0.35,-0.77 0.33,-1.15l-2.74,-0.89a21,21 0 0 0 -3.64,-0.46z"/>
  </g>
  <g id="freepik--speech-bubble--inject-2">
   <path id="svg_191" fill="#263238" d="m396.28,143.67l36.27,0a6.14,6.14 0 0 1 6.14,6.14l0,24.58a6.14,6.14 0 0 1 -6.14,6.14l-21.3,0l-9.74,13.72l0,-13.72l-5.23,0a6.14,6.14 0 0 1 -6.15,-6.14l0,-24.58a6.14,6.14 0 0 1 6.15,-6.14z"/>
   <path id="svg_192" fill="#263238" d="m401.51,194.75a0.4,0.4 0 0 1 -0.15,0a0.49,0.49 0 0 1 -0.35,-0.47l0,-13.28l-4.73,0a6.65,6.65 0 0 1 -6.65,-6.64l0,-24.55a6.65,6.65 0 0 1 6.65,-6.64l36.27,0a6.65,6.65 0 0 1 6.64,6.64l0,24.58a6.65,6.65 0 0 1 -6.64,6.64l-21,0l-9.59,13.51a0.52,0.52 0 0 1 -0.45,0.21zm-5.23,-50.58a5.65,5.65 0 0 0 -5.65,5.64l0,24.58a5.65,5.65 0 0 0 5.65,5.64l5.23,0a0.5,0.5 0 0 1 0.5,0.5l0,12.15l8.84,-12.44a0.49,0.49 0 0 1 0.4,-0.21l21.3,0a5.65,5.65 0 0 0 5.64,-5.64l0,-24.58a5.65,5.65 0 0 0 -5.64,-5.64l-36.27,0z"/>
   <path id="svg_193" fill="#0C62CC" d="m412.12,174.43l-0.12,0a3.5,3.5 0 0 1 -2.73,-1.5l-6.59,-9.45a3.5,3.5 0 1 1 5.74,-4l4,5.67l13.86,-16.85a3.5,3.5 0 0 1 5.41,4.44l-16.79,20.42a3.51,3.51 0 0 1 -2.78,1.27z"/>
   <path id="svg_194" fill="#263238" d="m428.91,147a3.44,3.44 0 0 1 2.22,0.8a3.49,3.49 0 0 1 0.49,4.92l-16.79,20.42a3.51,3.51 0 0 1 -2.71,1.28l-0.12,0a3.5,3.5 0 0 1 -2.73,-1.5l-6.59,-9.45a3.5,3.5 0 1 1 5.74,-4l4,5.67l13.86,-16.85a3.46,3.46 0 0 1 2.7,-1.28m0,-2a5.48,5.48 0 0 0 -4.25,2l-12.18,14.81l-2.44,-3.5a5.5,5.5 0 0 0 -9,6.29l6.59,9.46a5.54,5.54 0 0 0 4.29,2.35l0.22,0a5.5,5.5 0 0 0 4.25,-2l16.7,-20.42a5.5,5.5 0 0 0 -4.25,-9l0.07,0.01z"/>
  </g>
 </g>

</svg>