<svg width="500" height="500" xmlns="http://www.w3.org/2000/svg">

 <g>
  <title>Layer 1</title>
  <g id="freepik--background-simple--inject-9">
   <path id="svg_1" fill="#f0f0f0" d="m359.37,131.38c-36.62,-32 -86.19,0 -134.35,67.34s-71.06,39 -112,68.68s-51.89,151.26 92.35,139.44s249.73,-191.92 154,-275.46z"/>
  </g>
  <g id="freepik--Floor--inject-9">
   <path id="svg_2" fill="#263238" d="m403.84,453.13c0,0.14 -69.44,0.26 -155.07,0.26s-155.1,-0.12 -155.1,-0.26s69.43,-0.26 155.1,-0.26s155.07,0.13 155.07,0.26z"/>
  </g>
  <g id="freepik--Plant--inject-9">
   <path id="svg_3" fill="#0C62CC" d="m336.18,330.71c-15.45,-10.79 -18.95,-30.82 -18.34,-48.83c0.1,-3 -0.23,-6.18 1.2,-8.81s4.77,-4.44 7.46,-3.18c2.23,1.05 3.2,3.65 4.45,5.8a17.56,17.56 0 0 0 7.05,6.73c1.91,1 4.28,1.6 6.17,0.56c2.6,-1.43 2.9,-5 2.88,-8q0,-8.37 -0.1,-16.72a27.83,27.83 0 0 1 0.9,-8.88c0.93,-2.84 3,-5.47 5.83,-6.27s6.36,0.85 7,3.77a28.8,28.8 0 0 1 0.09,3.72c0.08,1.25 0.66,2.62 1.83,3s2.39,-0.49 3.29,-1.37c3.08,-3 5.18,-6.91 7.13,-10.77s3.86,-7.83 6.66,-11.12s6.67,-5.9 11,-6.15s8.84,2.41 9.92,6.61s-1.37,8.49 -4,11.9a66.87,66.87 0 0 1 -13.89,13.25a5.44,5.44 0 0 0 -2.33,2.49c-0.65,2 1.24,4 3.21,4.63c2.23,0.74 4.65,0.51 7,0.79s4.85,1.3 5.74,3.5c1.22,3.06 -1.34,6.26 -3.85,8.36a57.38,57.38 0 0 1 -16.92,9.77c-2.2,0.8 -4.51,1.51 -6.29,3.05s-2.84,4.23 -1.77,6.34s3.82,2.78 6.13,2.35s4.36,-1.67 6.56,-2.5c4.11,-1.55 9.41,-1.27 12,2.28a9.46,9.46 0 0 1 1,8.37a21.83,21.83 0 0 1 -4.53,7.39a57.63,57.63 0 0 1 -24.66,17.23c-9.53,3.3 -18.36,4.2 -27.83,0.73"/>
   <path id="svg_4" fill="#263238" d="m396.2,226.66s-0.09,0.1 -0.29,0.28l-0.89,0.79c-0.78,0.7 -1.93,1.72 -3.38,3.07a111.61,111.61 0 0 0 -11.42,12.33c-2.23,2.77 -4.54,5.91 -7,9.32s-5,7.09 -7.52,11a135.66,135.66 0 0 0 -7.37,12.78c-1.16,2.29 -2.18,4.68 -3.23,7.12l-3.1,7.45a274.85,274.85 0 0 0 -10.66,28.77a134,134 0 0 0 -5,24.53a97.54,97.54 0 0 0 -0.28,16.89c0.16,2 0.31,3.53 0.45,4.57c0.06,0.5 0.1,0.9 0.14,1.19l0,0.41a2.09,2.09 0 0 1 -0.09,-0.4c-0.05,-0.29 -0.11,-0.68 -0.19,-1.18c-0.18,-1 -0.37,-2.58 -0.55,-4.58a92.93,92.93 0 0 1 0.1,-16.94a131.81,131.81 0 0 1 4.89,-24.64a268.42,268.42 0 0 1 10.63,-28.84l3.18,-7.42c1.05,-2.43 2.08,-4.84 3.25,-7.14a133.92,133.92 0 0 1 7.43,-12.81c2.56,-4 5.14,-7.62 7.57,-11s4.78,-6.54 7,-9.3a106.31,106.31 0 0 1 11.57,-12.24c1.48,-1.33 2.66,-2.33 3.46,-3l0.93,-0.75a2.18,2.18 0 0 1 0.37,-0.26z"/>
   <path id="svg_5" fill="#263238" d="m358,276a6.19,6.19 0 0 1 -0.29,-1.27c-0.16,-0.83 -0.34,-2 -0.55,-3.52c-0.43,-3 -0.87,-7.11 -1.34,-11.66s-1,-8.67 -1.44,-11.64c-0.23,-1.48 -0.43,-2.67 -0.57,-3.5a5.4,5.4 0 0 1 -0.17,-1.3a5.53,5.53 0 0 1 0.37,1.25c0.22,0.82 0.47,2 0.75,3.49c0.57,3 1.13,7.08 1.6,11.64s0.87,8.56 1.18,11.67c0.15,1.4 0.28,2.59 0.38,3.54a5.54,5.54 0 0 1 0.08,1.3z"/>
   <path id="svg_6" fill="#263238" d="m396.48,268.82a8,8 0 0 1 -1.48,0.18c-1,0.09 -2.42,0.21 -4.18,0.41c-3.52,0.38 -8.36,1.08 -13.67,2.08s-10.08,2.13 -13.51,3c-1.71,0.44 -3.09,0.84 -4,1.11a7.3,7.3 0 0 1 -1.5,0.36a8.71,8.71 0 0 1 1.44,-0.57c0.94,-0.33 2.3,-0.79 4,-1.28c3.41,-1 8.18,-2.19 13.51,-3.21a136.16,136.16 0 0 1 13.65,-1.9c1.77,-0.15 3.2,-0.21 4.2,-0.23a7.69,7.69 0 0 1 1.54,0.05z"/>
   <path id="svg_7" fill="#263238" d="m341.3,318.72a2.08,2.08 0 0 1 -0.26,-0.47l-0.66,-1.39c-0.57,-1.21 -1.34,-3 -2.26,-5.19c-1.86,-4.4 -4.23,-10.56 -6.75,-17.4s-4.84,-13 -6.6,-17.45c-0.86,-2.16 -1.57,-3.93 -2.1,-5.25l-0.56,-1.43a1.93,1.93 0 0 1 -0.16,-0.52a2.08,2.08 0 0 1 0.26,0.47l0.66,1.39c0.56,1.21 1.34,3 2.26,5.19c1.86,4.4 4.23,10.56 6.75,17.4s4.84,13 6.6,17.45c0.86,2.16 1.57,3.93 2.09,5.25c0.23,0.57 0.42,1 0.57,1.43a1.93,1.93 0 0 1 0.16,0.52z"/>
   <path id="svg_8" fill="#263238" d="m392.38,302.25a2.12,2.12 0 0 1 -0.51,0.21l-1.48,0.5l-5.47,1.77c-4.62,1.5 -11,3.64 -18,6s-13.41,4.46 -18.06,5.86c-2.32,0.71 -4.21,1.25 -5.52,1.61l-1.51,0.39a2.59,2.59 0 0 1 -0.54,0.11a2.12,2.12 0 0 1 0.51,-0.21l1.48,-0.5l5.47,-1.77c4.62,-1.5 11,-3.64 18,-6s13.4,-4.46 18.05,-5.86c2.33,-0.71 4.21,-1.25 5.53,-1.61l1.51,-0.39a2.59,2.59 0 0 1 0.54,-0.11z"/>
  </g>
  <g id="freepik--Padlock--inject-9">
   <path id="svg_9" fill="#0C62CC" d="m371.54,59.68l-5.15,1.84l-2.21,-6.73c-4.06,-12.41 -17,-19 -28.89,-14.81s-18.22,17.8 -14.16,30.21l2.21,6.73l-5.17,1.85a8.22,8.22 0 0 0 -4.82,10.28l14.33,43.79a7.73,7.73 0 0 0 9.86,5.11l53.37,-19.09a8.26,8.26 0 0 0 4.87,-10.38l-14.34,-43.79a7.71,7.71 0 0 0 -9.9,-5.01zm-40.68,7a13.19,13.19 0 0 1 7.76,-16.55a12.36,12.36 0 0 1 15.83,8.11l2.2,6.73l-23.59,8.44l-2.2,-6.73zm30,38.86l3.66,11.18a0.91,0.91 0 0 1 -0.57,1.12l-5.13,1.83a0.82,0.82 0 0 1 -1,-0.54l-3.69,-11.13a10,10 0 0 1 -9,-7a10.51,10.51 0 0 1 6.19,-13.18a9.85,9.85 0 0 1 12.61,6.46a10.68,10.68 0 0 1 -3.06,11.29l-0.01,-0.03z"/>
   <path id="svg_10" fill="#263238" d="m366.16,61.4c0,0.14 -9.55,3.73 -21.43,8s-21.57,7.7 -21.62,7.6s9.55,-3.72 21.44,-8s21.56,-7.73 21.61,-7.6z"/>
   <path id="svg_11" fill="#263238" d="m377.5,63.24a1.75,1.75 0 0 1 0.11,0.27c0.08,0.2 0.17,0.46 0.29,0.78c0.26,0.73 0.62,1.74 1.07,3l3.84,11.18c1.6,4.74 3.51,10.36 5.63,16.6c1,3.13 2.18,6.39 3.28,9.82a15,15 0 0 1 0.75,5.49a7.37,7.37 0 0 1 -0.81,2.77a7.64,7.64 0 0 1 -1.89,2.23a18,18 0 0 1 -5.08,2.59l-5.15,1.85l-9.75,3.49l-16.51,5.88l-11.15,3.92l-3,1l-0.8,0.26a0.85,0.85 0 0 1 -0.27,0.07s0.08,0 0.25,-0.12l0.78,-0.31l3,-1.13l11.09,-4.08l16.48,-6l9.73,-3.52l5.15,-1.86a17.13,17.13 0 0 0 4.93,-2.51a7.11,7.11 0 0 0 1.76,-2.07a6.58,6.58 0 0 0 0.75,-2.57a14.39,14.39 0 0 0 -0.72,-5.29c-1.08,-3.4 -2.22,-6.69 -3.25,-9.82c-2.08,-6.25 -4,-11.89 -5.52,-16.63s-2.8,-8.55 -3.68,-11.23c-0.42,-1.31 -0.74,-2.33 -1,-3.07l-0.24,-0.8a0.93,0.93 0 0 1 -0.07,-0.19z"/>
   <path id="svg_12" fill="#263238" d="m349.34,49.45s-0.53,-0.26 -1.51,-0.66a13.32,13.32 0 0 0 -4.37,-0.88a15,15 0 0 0 -6.46,1.22a14.4,14.4 0 0 0 -6.11,5.11a13.52,13.52 0 0 0 -2.35,7.59a23.39,23.39 0 0 0 1,6.55c0.52,1.82 1.06,3.27 1.42,4.28a11.17,11.17 0 0 1 0.52,1.58a8.78,8.78 0 0 1 -0.71,-1.51c-0.41,-1 -1,-2.42 -1.58,-4.25a22.74,22.74 0 0 1 -1.15,-6.65a13.71,13.71 0 0 1 2.4,-7.88a14.63,14.63 0 0 1 6.35,-5.26a14.88,14.88 0 0 1 6.65,-1.14a12.59,12.59 0 0 1 4.43,1.05a8.26,8.26 0 0 1 1.08,0.6a1.49,1.49 0 0 1 0.39,0.25z"/>
   <path id="svg_13" fill="#263238" d="m349.8,88.58a3.45,3.45 0 0 1 0.5,-0.25a9.93,9.93 0 0 1 1.55,-0.55a11.09,11.09 0 0 1 2.59,-0.44a8.78,8.78 0 0 1 3.51,0.53c2.56,0.9 4.91,3.51 6.07,7a10.08,10.08 0 0 1 0,5.74a13,13 0 0 1 -3.22,5.39l0.06,-0.27c1.33,3.65 2.78,7.61 4.28,11.74l0.09,0.25l-0.25,0.09l-2.29,0.76l-5,1.67l-0.25,0.08l-0.08,-0.25c-1.37,-4.14 -2.87,-8 -4,-11.79l0.22,0.17a10,10 0 0 1 -5.36,-2.11a12.1,12.1 0 0 1 -3.35,-4a9.14,9.14 0 0 1 -1.06,-4.5a10.86,10.86 0 0 1 4.19,-8.26a6.36,6.36 0 0 1 1.73,-1a19.27,19.27 0 0 0 -1.64,1.09a10.63,10.63 0 0 0 -3.09,4.39a9.46,9.46 0 0 0 0.31,8.07a11.74,11.74 0 0 0 3.27,3.84a9.52,9.52 0 0 0 5.11,2l0.17,0l0.05,0.15c1.1,3.72 2.61,7.61 4,11.77l-0.33,-0.16l5,-1.67l2.28,-0.77l-0.16,0.34c-1.49,-4.13 -2.93,-8.1 -4.25,-11.75l0,-0.15l0.12,-0.12a12.74,12.74 0 0 0 3.16,-5.17a9.67,9.67 0 0 0 0,-5.49c-1.09,-3.36 -3.34,-5.91 -5.78,-6.81a8.59,8.59 0 0 0 -3.39,-0.57a11.46,11.46 0 0 0 -2.56,0.35c-1.49,0.37 -2.19,0.71 -2.2,0.66z"/>
  </g>
  <g id="freepik--Device--inject-9">
   <path id="svg_14" fill="#455a64" d="m318.89,377.32l-99.89,-0.46a21.77,21.77 0 0 1 -21.65,-21.86l1.06,-250.41a21.75,21.75 0 0 1 21.86,-21.66l99.88,0.46a21.77,21.77 0 0 1 21.66,21.85l-1.06,250.4a21.77,21.77 0 0 1 -21.86,21.68z"/>
   <path id="svg_15" fill="#fff" d="m320,92l-19.36,0a4.81,4.81 0 0 0 -4.72,4.9l0,3.51a4.8,4.8 0 0 1 -4.72,4.89l-37.74,-0.17a4.82,4.82 0 0 1 -4.69,-4.94l0,-3.51a4.82,4.82 0 0 0 -4.68,-4.94l-6.81,0l-16.95,-0.08a15.24,15.24 0 0 0 -15.33,15.09l-1,244.42a15.23,15.23 0 0 0 15.16,15.3l99.68,0.46a15.24,15.24 0 0 0 15.31,-15.17l1,-244.42a15.25,15.25 0 0 0 -15.15,-15.34z"/>
   <path id="svg_16" fill="#0C62CC" d="m306.59,334.32l-74.12,-0.32c-0.77,0 -1.39,-0.84 -1.38,-1.86l0.08,-19.39c0,-1 0.63,-1.86 1.4,-1.86l74.12,0.34a1.68,1.68 0 0 1 1.38,1.87l-0.07,19.37c0,1.03 -0.64,1.86 -1.41,1.85z"/>
   <text x="5.02939" y="0.58824" id="svg_17" font-family="Montserrat-Regular, Montserrat" fill="#e8e8e3" font-size="8.29896px" transform="matrix(0.96 0 0 1 252.59 324.95)">Sign In</text>
   <rect id="svg_18" transform="rotate(0.26 0.77 -1.08)" fill="#0C62CC" height="4.72" width="25.72" y="162.73" x="222.28"/>
   <rect id="svg_19" transform="rotate(0.26 0.77 -1.08)" opacity="0.1" height="4.72" width="25.72" y="162.73" x="222.28"/>
   <path id="svg_20" fill="#e0e0e0" d="m322.65,192.83a2.3,2.3 0 0 0 0.59,-0.14a1.58,1.58 0 0 0 1,-1.35c0,-1.59 0,-3.91 0,-6.89c0,-1.49 0,-3.16 0,-5c0,-0.45 0,-0.92 0,-1.39a1.94,1.94 0 0 0 -0.28,-1.31a1.5,1.5 0 0 0 -1.19,-0.61l-1.56,0l-14.45,0l-83.64,-0.31a1.33,1.33 0 0 0 -1.1,0.55a1.91,1.91 0 0 0 -0.26,1.31c0,1 0,2 0,3q0,3 0,6c0,1 0,2 0,3a7.89,7.89 0 0 0 0,1.4a1.35,1.35 0 0 0 0.78,0.9a1.56,1.56 0 0 0 0.62,0.11l5.09,0l22.21,0.12l37.6,0.23l25.35,0.2l6.89,0.08l1.79,0c0.41,0 0.61,0 0.61,0l-0.61,0l-1.79,0l-6.89,0l-25.35,0l-37.6,-0.12l-22.21,-0.09l-5.09,0a2,2 0 0 1 -0.82,-0.14a1.88,1.88 0 0 1 -1.08,-1.25a2.83,2.83 0 0 1 -0.06,-0.8l0,-0.74c0,-1 0,-2 0,-3q0,-3 0,-6c0,-1 0,-2 0,-3a5.6,5.6 0 0 1 0,-0.8a1.7,1.7 0 0 1 0.33,-0.81a1.84,1.84 0 0 1 1.52,-0.77l83.64,0.46l14.45,0.1l1.56,0a1.71,1.71 0 0 1 1.4,0.73a2.13,2.13 0 0 1 0.32,1.47c0,0.47 0,0.94 0,1.39c0,1.82 0,3.49 0,5c0,3 -0.07,5.3 -0.09,6.9a1.62,1.62 0 0 1 -1.05,1.39a1.2,1.2 0 0 1 -0.63,0.18z"/>
   <rect id="svg_21" fill="#0C62CC" transform="matrix(1, 0, 0, 1, 0.85, -1.16)" height="4.41" width="47.04" y="182.01" x="228.41"/>
   <rect id="svg_22" opacity="0.2" fill="#fff" transform="matrix(1, 0, 0, 1, 0.85, -1.16)" height="4.41" width="47.04" y="182.01" x="228.41"/>
   <rect id="svg_23" transform="rotate(0.26 0.97 -1.08)" fill="#0C62CC" height="4.72" width="25.72" y="205.79" x="222.3"/>
   <rect id="svg_24" transform="rotate(0.26 0.97 -1.08)" opacity="0.1" height="4.72" width="25.72" y="205.79" x="222.3"/>
   <path id="svg_25" fill="#e0e0e0" d="m322,235.89a5.17,5.17 0 0 0 0.6,-0.11a2.05,2.05 0 0 0 1.26,-1.14a2.8,2.8 0 0 0 0.18,-1.27c0,-0.48 0,-1 0,-1.58c0,-1.16 0,-2.48 0,-4l0,-6.35a2.15,2.15 0 0 0 -0.29,-1.32a1.94,1.94 0 0 0 -1.09,-0.85a6.13,6.13 0 0 0 -1.51,-0.08l-14.39,0l-83.35,-0.31a1.85,1.85 0 0 0 -1.83,1.61c0,0.95 0,2 0,3q0,3 0,6c0,1 0,2 0,3a5.74,5.74 0 0 0 0.06,1.4a1.9,1.9 0 0 0 0.73,1a2.08,2.08 0 0 0 1.24,0.32l1.39,0l2.89,0l22.13,0.11l37.47,0.23l25.26,0.2l6.87,0.08l1.79,0l0.6,0l-0.6,0l-1.79,0l-6.87,0l-25.26,0l-37.49,-0.04l-22.13,-0.08l-4.35,0a2.51,2.51 0 0 1 -1.53,-0.41a2.4,2.4 0 0 1 -0.94,-1.31a6.3,6.3 0 0 1 -0.08,-1.54c0,-1 0,-2 0,-3q0,-3 0,-6c0,-1 0,-2 0,-3a2.37,2.37 0 0 1 2.35,-2.07l83.35,0.46l14.39,0.11a6.19,6.19 0 0 1 1.6,0.11a2.21,2.21 0 0 1 1.23,1a2.41,2.41 0 0 1 0.32,1.46c0,0.47 0,0.93 0,1.39c0,1.81 0,3.47 0,5s0,2.82 0,4c0,0.57 0,1.1 0,1.59a2.79,2.79 0 0 1 -0.21,1.31a2.12,2.12 0 0 1 -1.35,1.14a1.88,1.88 0 0 1 -0.65,-0.06z"/>
   <rect id="svg_26" transform="rotate(0.26 1.17 -1.07)" fill="#0C62CC" height="4.72" width="25.72" y="250.72" x="222.31"/>
   <rect id="svg_27" transform="rotate(0.26 1.17 -1.07)" opacity="0.1" height="4.72" width="25.72" y="250.72" x="222.31"/>
   <path id="svg_28" fill="#e0e0e0" d="m321.8,280.8a4.78,4.78 0 0 0 0.6,-0.11a2.06,2.06 0 0 0 1.26,-1.13a2.82,2.82 0 0 0 0.18,-1.27c0,-0.49 0,-1 0,-1.59c0,-1.15 0,-2.48 0,-4l0,-6.35a2.15,2.15 0 0 0 -0.29,-1.32a2,2 0 0 0 -1.09,-0.84a6.11,6.11 0 0 0 -1.51,-0.09l-14.39,0l-83.35,-0.31a1.85,1.85 0 0 0 -1.83,1.61c0,1 0,2 0,3c0,2 0,4 0,6c0,1 0,2 0,3a5.66,5.66 0 0 0 0.06,1.39a1.83,1.83 0 0 0 0.73,1a2,2 0 0 0 1.24,0.32l4.35,0l22.13,0.12l37.47,0.23l25.26,0.2l6.87,0.08l1.79,0c0.4,0 0.6,0 0.6,0s-0.2,0 -0.6,0l-1.79,0l-6.87,0l-25.26,0l-37.47,-0.11l-22.13,-0.09l-4.35,0a2.45,2.45 0 0 1 -1.53,-0.41a2.4,2.4 0 0 1 -0.94,-1.31a6.3,6.3 0 0 1 -0.08,-1.54c0,-1 0,-2 0,-3q0,-3 0,-6c0,-1 0,-2 0,-3.05a2.36,2.36 0 0 1 2.34,-2.07l83.35,0.46l14.39,0.11a6.19,6.19 0 0 1 1.6,0.11a2.21,2.21 0 0 1 1.23,1a2.41,2.41 0 0 1 0.32,1.46c0,0.47 0,0.94 0,1.39c0,1.81 0,3.47 0,5s0,2.82 0,4c0,0.57 0,1.1 0,1.59a2.74,2.74 0 0 1 -0.21,1.31a2.12,2.12 0 0 1 -1.35,1.14a1.58,1.58 0 0 1 -0.73,0.07z"/>
   <rect id="svg_29" transform="rotate(0.26 1.05 -1.16)" fill="#0C62CC" height="4.41" width="47.04" y="223.91" x="229.28"/>
   <rect id="svg_30" transform="rotate(0.26 1.05 -1.16)" opacity="0.2" fill="#fff" height="4.41" width="47.04" y="223.91" x="229.28"/>
   <path id="svg_31" fill="#0C62CC" d="m232.51,272.64a2.06,2.06 0 1 1 -2,-2.21a2.12,2.12 0 0 1 2,2.21z"/>
   <path id="svg_32" fill="#0C62CC" d="m238.88,272.67a2.06,2.06 0 1 1 -4.11,0a2.06,2.06 0 1 1 4.11,0z"/>
   <path id="svg_33" fill="#0C62CC" d="m245.26,272.7a2.06,2.06 0 1 1 -2,-2.21a2.13,2.13 0 0 1 2,2.21z"/>
   <path id="svg_34" fill="#0C62CC" d="m251.63,272.73a2.06,2.06 0 1 1 -2,-2.21a2.13,2.13 0 0 1 2,2.21z"/>
   <path id="svg_35" fill="#0C62CC" d="m258,272.75a2.06,2.06 0 1 1 -2,-2.2a2.13,2.13 0 0 1 2,2.2z"/>
   <path id="svg_36" fill="#0C62CC" d="m264.38,272.78a2.06,2.06 0 1 1 -2.05,-2.2a2.13,2.13 0 0 1 2.05,2.2z"/>
   <path id="svg_37" fill="#0C62CC" d="m270.75,272.81a2.06,2.06 0 1 1 -4.11,0a2.06,2.06 0 1 1 4.11,0z"/>
   <path id="svg_38" fill="#0C62CC" d="m277.12,272.84a2.06,2.06 0 1 1 -2.05,-2.2a2.13,2.13 0 0 1 2.05,2.2z"/>
   <path id="svg_39" fill="#0C62CC" d="m283.49,272.87a2.06,2.06 0 1 1 -2,-2.2a2.13,2.13 0 0 1 2,2.2z"/>
   <g id="svg_40" opacity="0.2">
    <path id="svg_41" fill="#fff" d="m232.51,272.64a2.06,2.06 0 1 1 -2,-2.21a2.12,2.12 0 0 1 2,2.21z"/>
    <path id="svg_42" fill="#fff" d="m238.88,272.67a2.06,2.06 0 1 1 -4.11,0a2.06,2.06 0 1 1 4.11,0z"/>
    <path id="svg_43" fill="#fff" d="m245.26,272.7a2.06,2.06 0 1 1 -2,-2.21a2.13,2.13 0 0 1 2,2.21z"/>
    <path id="svg_44" fill="#fff" d="m251.63,272.73a2.06,2.06 0 1 1 -2,-2.21a2.13,2.13 0 0 1 2,2.21z"/>
    <path id="svg_45" fill="#fff" d="m258,272.75a2.06,2.06 0 1 1 -2,-2.2a2.13,2.13 0 0 1 2,2.2z"/>
    <path id="svg_46" fill="#fff" d="m264.38,272.78a2.06,2.06 0 1 1 -2.05,-2.2a2.13,2.13 0 0 1 2.05,2.2z"/>
    <path id="svg_47" fill="#fff" d="m270.75,272.81a2.06,2.06 0 1 1 -4.11,0a2.06,2.06 0 1 1 4.11,0z"/>
    <path id="svg_48" fill="#fff" d="m277.12,272.84a2.06,2.06 0 1 1 -2.05,-2.2a2.13,2.13 0 0 1 2.05,2.2z"/>
    <path id="svg_49" fill="#fff" d="m283.49,272.87a2.06,2.06 0 1 1 -2,-2.2a2.13,2.13 0 0 1 2,2.2z"/>
   </g>
   <path id="svg_50" fill="#0C62CC" d="m274.44,128.51a3.87,3.87 0 0 0 2.31,-3.59a3.64,3.64 0 1 0 -7.27,0a3.88,3.88 0 0 0 2.32,3.63c-5.6,0.84 -5.35,6.92 -5.35,6.92l13.24,0.06s0.31,-6.19 -5.25,-7.02z"/>
   <path id="svg_51" opacity="0.1" d="m274.44,128.51a3.87,3.87 0 0 0 2.31,-3.59a3.64,3.64 0 1 0 -7.27,0a3.88,3.88 0 0 0 2.32,3.63c-5.6,0.84 -5.35,6.92 -5.35,6.92l13.24,0.06s0.31,-6.19 -5.25,-7.02z"/>
   <rect id="svg_52" transform="rotate(0.26 0.66 -1.26)" fill="#0C62CC" height="5.64" width="47.19" y="138.11" x="249.4"/>
   <rect id="svg_53" transform="rotate(0.26 0.66 -1.26)" opacity="0.2" fill="#fff" height="5.64" width="47.19" y="138.11" x="249.4"/>
  </g>
  <g id="freepik--Character--inject-9">
   <path id="svg_54" fill="#0C62CC" d="m171.15,448.34l0,-8.55l-15.33,-0.11l-0.13,12.93l0.95,0.07c4.23,0.27 21.52,0.67 24.36,-0.21c3.16,-0.98 -9.85,-4.13 -9.85,-4.13z"/>
   <path id="svg_55" fill="#263238" d="m181.36,451.67c0,0.14 -5.74,0.26 -12.81,0.26s-12.81,-0.12 -12.81,-0.26s5.74,-0.26 12.81,-0.26s12.81,0.12 12.81,0.26z"/>
   <path id="svg_56" fill="#263238" d="m171.42,450.09c-0.13,-0.07 0,-0.52 0.31,-1s0.73,-0.68 0.83,-0.58s-0.11,0.48 -0.41,0.89s-0.6,0.76 -0.73,0.69z"/>
   <path id="svg_57" fill="#263238" d="m172.4,450.65c-0.14,0 -0.07,-0.56 0.23,-1.09s0.7,-0.85 0.81,-0.77s-0.07,0.53 -0.35,1s-0.56,0.91 -0.69,0.86z"/>
   <path id="svg_58" fill="#263238" d="m160.36,451.63c-0.06,0 -0.29,-0.18 -0.62,-0.56a9.91,9.91 0 0 0 -1.34,-1.34a3.53,3.53 0 0 0 -1.66,-0.73c-0.47,-0.06 -0.77,0 -0.8,-0.06s0.26,-0.27 0.81,-0.31a3.09,3.09 0 0 1 2,0.68a5.64,5.64 0 0 1 1.32,1.55c0.23,0.44 0.35,0.73 0.29,0.77z"/>
   <path id="svg_59" fill="#263238" d="m171.47,448.48c0.07,0.12 -0.19,0.42 -0.63,0.58s-0.83,0.1 -0.85,0s0.29,-0.31 0.67,-0.45s0.73,-0.25 0.81,-0.13z"/>
   <path id="svg_60" fill="#263238" d="m171.23,447.65c0,0.15 -0.4,0.27 -0.92,0.28s-0.93,-0.11 -0.92,-0.25s0.42,-0.27 0.92,-0.28s0.9,0.11 0.92,0.25z"/>
   <path id="svg_61" fill="#0C62CC" d="m208.9,448.34l0,-8.55l-15.33,-0.11l-0.13,12.8l0.95,0.07c4.23,0.27 21.53,0.8 24.36,-0.08c3.16,-0.98 -9.85,-4.13 -9.85,-4.13z"/>
   <path id="svg_62" fill="#263238" d="m219.11,451.69c0,0.14 -5.73,0.26 -12.81,0.26s-12.8,-0.12 -12.8,-0.26s5.73,-0.26 12.8,-0.26s12.81,0.12 12.81,0.26z"/>
   <path id="svg_63" fill="#263238" d="m209.17,450.09c-0.12,-0.07 0,-0.52 0.31,-1s0.73,-0.68 0.83,-0.58s-0.11,0.48 -0.41,0.89s-0.6,0.76 -0.73,0.69z"/>
   <path id="svg_64" fill="#263238" d="m210.15,450.65c-0.13,0 -0.07,-0.56 0.24,-1.09s0.7,-0.85 0.81,-0.77s-0.08,0.53 -0.36,1s-0.55,0.91 -0.69,0.86z"/>
   <path id="svg_65" fill="#263238" d="m198.11,451.63c-0.06,0 -0.28,-0.18 -0.62,-0.56a9.91,9.91 0 0 0 -1.34,-1.34a3.53,3.53 0 0 0 -1.66,-0.73c-0.46,-0.06 -0.77,0 -0.8,-0.06s0.26,-0.27 0.81,-0.31a3.09,3.09 0 0 1 2,0.68a5.47,5.47 0 0 1 1.32,1.55c0.23,0.44 0.35,0.73 0.29,0.77z"/>
   <path id="svg_66" fill="#263238" d="m209.22,448.48c0.07,0.12 -0.19,0.42 -0.63,0.58s-0.83,0.1 -0.85,0s0.29,-0.31 0.67,-0.45s0.73,-0.25 0.81,-0.13z"/>
   <path id="svg_67" fill="#263238" d="m209,447.65c0,0.15 -0.4,0.27 -0.92,0.28s-0.92,-0.11 -0.91,-0.25s0.41,-0.27 0.91,-0.28s0.92,0.11 0.92,0.25z"/>
   <path id="svg_68" fill="#ffbe9d" d="m265.38,194.44c-0.4,-0.41 -1.39,-0.21 -1.39,-0.21a5.12,5.12 0 0 0 0,-1.74c-0.18,-0.56 -1.44,-0.45 -1.44,-0.45a5.81,5.81 0 0 1 0,-1.42a0.51,0.51 0 0 0 -0.29,-0.51a4.62,4.62 0 0 0 -1.88,-0.34c-0.77,-0.55 2.35,-4.92 3.51,-6.32s0.95,-2.49 -0.08,-2.49c-0.71,0 -4.35,4.2 -5.47,5.61s-4.09,5.33 -4.19,2.2s-1.36,-5.49 -2.15,-5.89s-1.63,0.54 -1.2,1.41a11.19,11.19 0 0 1 0.7,3.08a7.36,7.36 0 0 1 -0.11,2.52a30.22,30.22 0 0 1 -1.35,4.52l-0.08,0s-21.82,20.93 -23.4,22.42c-1.41,1.34 -29.77,-1.59 -35.46,-2.19a38.09,38.09 0 0 0 -5.84,-0.4c-2.47,0.11 -2.91,0.46 -5.37,0.49a121.62,121.62 0 0 0 -18.54,1.63a15.37,15.37 0 0 0 -12.06,10.46c-5.73,17.9 -18.71,60.27 -21,84.07a101,101 0 0 0 -4.68,9.67c-1.61,4.38 -1.22,4.53 -0.68,4.63c1.46,0.27 3.12,-7.59 3.74,-5.69s-3.15,9.37 -1.62,9.59c2,0.28 3.59,-8 3.78,-8.66s1.18,-0.45 1,0.17c-0.29,0.88 -3.1,10.21 -1.14,10.51c1.08,0.16 1.2,-1.81 1.2,-1.81s2,-8.93 2.91,-8.75s-0.06,5.45 -0.52,7.21s0.18,2.65 1.12,2.22c0.64,-0.3 2.17,-5.65 2.59,-7.39s1.47,-6.56 2.88,-3.77s3.55,4.41 4.43,4.45a1,1 0 0 0 0.49,-1.79a11.33,11.33 0 0 1 -1.93,-2.5a7.37,7.37 0 0 1 -1,-2.34a25.37,25.37 0 0 1 -0.7,-5.06l-0.16,-1c2.24,-11.09 8.69,-43.64 18,-64.43l3.82,7.86l1.66,5.82l-10.18,25.13l43.42,-0.57l-6.48,-24.94l7.87,-26l0,0c8.51,0.19 30.36,0.51 34,-1.14c4.58,-2 28.27,-31.92 28.27,-31.92l0,0a54.72,54.72 0 0 0 4.43,-3.84s1.44,-1.21 0.57,-2.11z"/>
   <path id="svg_69" fill="#0C62CC" d="m151.39,266.39c1.26,-4.3 7.73,-25.56 7.73,-25.56s3.18,17.33 2.34,19.42a37,37 0 0 1 -2.73,5.16c-7.34,11.17 -6.38,16.76 -6.38,16.76l44.35,-1.35c0.1,-6.2 -3.57,-20.62 -4.33,-22.92s1.77,-9.83 1.77,-9.83s5,-5.09 4.82,-7.71a42.38,42.38 0 0 0 -0.87,-7l27,1l-0.85,-18.3l-38.78,-3.88c-1.35,3.81 -13.56,1.94 -13.56,1.94c-13.18,0.44 -14,2.86 -19.48,7.12s-14.55,40.82 -14.55,40.82l13.52,4.33z"/>
   <path id="svg_70" fill="#263238" d="m177.61,262.06a9.33,9.33 0 0 1 -2.33,0.12c-1.45,0 -3.44,-0.1 -5.63,-0.32s-4.17,-0.53 -5.58,-0.81a9.62,9.62 0 0 1 -2.27,-0.58a12.5,12.5 0 0 1 2.33,0.22c1.42,0.18 3.39,0.43 5.57,0.65s4.16,0.37 5.59,0.47a12.34,12.34 0 0 1 2.32,0.25z"/>
   <path id="svg_71" fill="#263238" d="m180.65,258.29a10.25,10.25 0 0 1 -2.42,0.83a44.46,44.46 0 0 1 -12.23,1.45a10.09,10.09 0 0 1 -2.54,-0.24a17.09,17.09 0 0 1 2.54,-0.13c1.57,-0.05 3.73,-0.16 6.11,-0.44s4.5,-0.68 6,-1a16.58,16.58 0 0 1 2.54,-0.47z"/>
   <path id="svg_72" fill="#263238" d="m195.57,241.47a10.41,10.41 0 0 1 -0.31,2.26c-0.26,1.39 -0.66,3.29 -1.17,5.37s-1,4 -1.44,5.3a10,10 0 0 1 -0.78,2.15a10.18,10.18 0 0 1 0.42,-2.24c0.38,-1.56 0.81,-3.36 1.29,-5.33s0.94,-3.77 1.32,-5.33a9.54,9.54 0 0 1 0.67,-2.18z"/>
   <path id="svg_73" fill="#263238" d="m151.86,263.84a46.48,46.48 0 0 1 -6.83,-1.59a47.46,47.46 0 0 1 -6.7,-2.1a48.09,48.09 0 0 1 6.83,1.59a46.93,46.93 0 0 1 6.7,2.1z"/>
   <path id="svg_74" fill="#263238" d="m198.57,233.14a3.36,3.36 0 0 1 -1.14,0a11.85,11.85 0 0 1 -3.05,-0.73a12.53,12.53 0 0 1 -7.24,-7.11a12.92,12.92 0 0 1 -0.89,-5.63a8.75,8.75 0 0 1 1.37,-4.46a4.63,4.63 0 0 1 2.53,-1.87a3.06,3.06 0 0 1 0.85,-0.11c0.2,0 0.3,0 0.3,0s-0.42,0 -1.09,0.27a4.55,4.55 0 0 0 -2.29,1.87c-1.36,2.14 -1.74,6.05 -0.29,9.7a12.22,12.22 0 0 0 3.09,4.52a13.13,13.13 0 0 0 3.79,2.44a19.26,19.26 0 0 0 4.06,1.11z"/>
   <path id="svg_75" fill="#263238" d="m221.88,234a83.32,83.32 0 0 1 -0.24,-9.22a82.49,82.49 0 0 1 0.28,-9.21a83.06,83.06 0 0 1 0.24,9.21a80,80 0 0 1 -0.28,9.22z"/>
   <path id="svg_76" fill="#ffbe9d" d="m185.2,213.3c0.11,-2.23 0.34,-4.75 0.34,-4.75s5.52,-0.61 5.85,-6.31s0,-18.85 0,-18.85l-10,-5.12l-11.1,8.73l1.71,28.5l10.18,0.65a2.94,2.94 0 0 0 3.02,-2.85z"/>
   <path id="svg_77" fill="#eb996e" d="m186.19,197.73s0,0.11 -0.09,0.24a0.74,0.74 0 0 1 -0.63,0.28c-0.64,0 -1.26,-0.74 -1.48,-1.6a2.61,2.61 0 0 1 0,-1.27a1.1,1.1 0 0 1 0.6,-0.86a0.55,0.55 0 0 1 0.42,0a0.51,0.51 0 0 1 0.23,0.23c0.07,0.17 0,0.28 0,0.27s0,-0.1 -0.1,-0.2a0.36,0.36 0 0 0 -0.47,-0.1a0.85,0.85 0 0 0 -0.41,0.71a2.56,2.56 0 0 0 0,1.13c0.2,0.78 0.74,1.41 1.22,1.47a0.69,0.69 0 0 0 0.53,-0.15c0.12,-0.08 0.16,-0.16 0.18,-0.15z"/>
   <path id="svg_78" fill="#263238" d="m194.82,180.31c-0.77,-2.62 -3.56,-3.92 -6.1,-4.64c-3.87,-1.1 -8.05,-1.58 -11.83,-0.19s-8.32,3.83 -8.32,8c-2.23,-0.18 -3.51,1.77 -4.39,4.19a15.7,15.7 0 0 0 -1,4.6l0,0c-0.28,5.46 -1.81,13 -5.35,17c-2,2.23 -4.77,3.77 -5.91,6.55c-1,2.41 -0.48,5.27 -1.41,7.71c-0.83,2.15 -2.66,3.68 -4,5.55a14.88,14.88 0 0 0 -0.95,14.39a18.22,18.22 0 0 0 10.89,9.4a25.47,25.47 0 0 0 14.35,0.14a24,24 0 0 0 9.62,-4.77a16.06,16.06 0 0 0 5.58,-9.24c0.71,-4.08 -0.43,-8.23 -1.28,-12.29c-2.66,-12.83 -1.9,-13.5 1.46,-25.41c0.08,-0.21 0.12,-0.43 0.18,-0.64s0.09,-0.31 0.13,-0.47l0,0a7.54,7.54 0 0 0 0.15,-1.43a2.75,2.75 0 0 1 -2.89,-0.62a3,3 0 0 1 -0.68,-3a4.36,4.36 0 0 1 2.58,-2.43c1.11,-0.46 2.3,-0.7 3.39,-1.21c2.31,-1.1 3.91,-3.38 5,-5.77a7.92,7.92 0 0 0 0.78,-5.42z"/>
   <path id="svg_79" fill="#0C62CC" d="m186.59,198a4.89,4.89 0 0 1 0.52,1c0.3,0.63 0.7,1.52 1.14,2.55l0.08,0.19l-0.21,0l-1,0.09c-0.69,0 -1.27,0.13 -1.95,0.12a0.36,0.36 0 0 1 -0.26,-0.23a0.45,0.45 0 0 1 0,-0.28a4,4 0 0 1 0.09,-0.4l0.18,-0.71a6.77,6.77 0 0 1 0.42,-1.38a6.75,6.75 0 0 1 -0.21,1.43l-0.14,0.71c-0.05,0.24 -0.14,0.61 0,0.58c0.5,0 1.21,-0.11 1.87,-0.15l1,-0.09l-0.13,0.22c-0.43,-1 -0.79,-1.94 -1,-2.59a3.9,3.9 0 0 1 -0.4,-1.06z"/>
   <path id="svg_80" fill="#263238" d="m152.35,282.17l44.35,-1.35l19.3,75.34l-3.55,86.42l-23.45,0l2.87,-84.58l-17.15,-52.45l2.64,140.38l-23.7,0.35l-2.49,-131.95c-0.11,-3.67 -1.31,-11.94 -0.86,-15.58l2.04,-16.58z"/>
   <path id="svg_81" fill="#455a64" d="m180.62,306.62a8.88,8.88 0 0 1 -2.17,-0.13c-1.34,-0.16 -3.17,-0.44 -5.18,-0.84s-3.81,-0.86 -5.11,-1.23a8.25,8.25 0 0 1 -2,-0.72c0,-0.15 3.26,0.63 7.26,1.44s7.22,1.33 7.2,1.48z"/>
   <path id="svg_82" fill="#455a64" d="m212.21,437.84c0,0.14 -5.31,0.26 -11.86,0.26s-11.87,-0.12 -11.87,-0.26s5.31,-0.26 11.87,-0.26s11.86,0.11 11.86,0.26z"/>
   <path id="svg_83" fill="#455a64" d="m177.15,442.28c0,0.15 -5.16,0.26 -11.52,0.26s-11.51,-0.11 -11.51,-0.26s5.16,-0.26 11.51,-0.26s11.52,0.12 11.52,0.26z"/>
   <path id="svg_84" fill="#455a64" d="m174.09,441.92c-0.14,0 -0.76,-30.67 -1.39,-68.5s-1,-68.52 -0.87,-68.52s0.77,30.66 1.39,68.51s1.02,68.51 0.87,68.51z"/>
   <path id="svg_85" fill="#455a64" d="m209.06,437.84a2.56,2.56 0 0 1 0,-0.41l0,-1.2c0,-1.08 0.08,-2.63 0.14,-4.6c0.14,-4 0.34,-9.81 0.59,-16.93c0.54,-14.32 1.3,-34.06 2.13,-55.85c0,-0.21 0,-0.41 0,-0.59l0,0.07c-5.25,-21 -10,-40.06 -13.45,-53.85l-4,-16.31c-0.46,-1.91 -0.81,-3.4 -1.06,-4.44c-0.12,-0.49 -0.2,-0.87 -0.27,-1.16a1.73,1.73 0 0 1 -0.07,-0.4a2.21,2.21 0 0 1 0.12,0.39c0.08,0.28 0.18,0.66 0.32,1.14c0.27,1 0.66,2.52 1.16,4.42c1,3.86 2.41,9.42 4.17,16.27c3.48,13.78 8.28,32.79 13.6,53.82l0,0.07c0,0.18 0,0.39 0,0.59c-0.89,21.79 -1.7,41.52 -2.29,55.84c-0.31,7.13 -0.57,12.9 -0.75,16.92c-0.1,2 -0.18,3.52 -0.23,4.6c0,0.51 -0.06,0.91 -0.07,1.2a1.91,1.91 0 0 1 -0.04,0.41z"/>
   <path id="svg_86" fill="#455a64" d="m201.41,356.5a26.79,26.79 0 0 1 -5.18,1.15c-2.16,0.37 -4,0.63 -4.83,0.67l0,-0.2c0.27,0.08 0.41,0.13 0.41,0.17s-0.17,0 -0.45,0l-0.6,0l0.6,-0.18c0.78,-0.23 2.62,-0.61 4.78,-1a27,27 0 0 1 5.27,-0.61z"/>
   <path id="svg_87" fill="#455a64" d="m201,359.37a25.8,25.8 0 0 1 -4.67,-0.21a26.38,26.38 0 0 1 -4.65,-0.51a29.61,29.61 0 0 1 9.32,0.72z"/>
   <path id="svg_88" opacity="0.2" d="m152.16,283.76a6.08,6.08 0 0 0 4.38,2.33a19.73,19.73 0 0 0 5.37,-0.1c11.45,-1.27 23.58,-2.44 34.79,-5.17c-14.51,0.81 -29.84,0.54 -44.35,1.35l-0.15,1.24"/>
   <g id="svg_89" opacity="0.2">
    <polygon id="svg_90" points="167.11 304.21 175.29 335.95 174.72 305.55 167.11 304.21"/>
   </g>
  </g>
 </g>
</svg>