<svg width="540" height="1000" xmlns="http://www.w3.org/2000/svg" version="1.1">


 <g>
  <title>Layer 1</title>
  <rect id="svg_1" fill="#ffffff" height="1000" width="540" y="0" x="0"/>
  <g stroke="null" id="svg_2">
   <path stroke="null" id="svg_3" fill="#0c62cc" d="m257.00002,1000c3.81145,-33.22727 7.6229,-66.5404 21.53468,-97.62121c13.91178,-30.99495 37.9239,-59.92929 67.46262,-77.18687c29.44343,-17.34343 64.50875,-23.18182 97.76363,-34.60101c33.25488,-11.41919 64.69932,-28.50505 96.23905,-45.59091l0,254.99999l-282.99998,0z"/>
  </g>
  <g stroke="null" id="svg_4">
   <path stroke="null" id="svg_5" fill="#0c62cc" d="m305.00001,0c-17.86869,34.28956 -35.63468,68.57912 -47.85522,106.1441c-12.22054,37.56498 -18.89562,78.30303 -41.48822,108.80538c-22.59259,30.50236 -61.1027,50.87138 -99.71549,63.97306c-38.6128,13.20404 -77.22559,19.14074 -115.94108,25.07744l0,-303.99999l305.00001,0z"/>
  </g>
 </g>
</svg>