<svg id="visual" viewBox="0 0 540 960" width="540" height="960" xmlns="http://www.w3.org/2000/svg" xmlns:xlink="http://www.w3.org/1999/xlink" version="1.1"><rect x="0" y="0" width="540" height="960" fill="#ffffff"></rect><defs><linearGradient id="grad1_0" x1="0%" y1="100%" x2="100%" y2="0%"><stop offset="30%" stop-color="#ffffff" stop-opacity="1"></stop><stop offset="70%" stop-color="#ffffff" stop-opacity="1"></stop></linearGradient></defs><defs><linearGradient id="grad2_0" x1="0%" y1="100%" x2="100%" y2="0%"><stop offset="30%" stop-color="#ffffff" stop-opacity="1"></stop><stop offset="70%" stop-color="#ffffff" stop-opacity="1"></stop></linearGradient></defs><g transform="translate(540, 960)"><path d="M-297 0C-265.1 -26.2 -233.2 -52.3 -224.5 -93C-215.8 -133.7 -230.2 -188.8 -210 -210C-189.8 -231.2 -134.9 -218.4 -94.1 -227.3C-53.4 -236.1 -26.7 -266.6 0 -297L0 0Z" fill="#0c62cc"></path></g><g transform="translate(0, 0)"><path d="M297 0C293.7 39.3 290.4 78.6 274.4 113.7C258.4 148.7 229.6 179.4 198 198C166.4 216.6 131.8 223 98.3 237.4C64.9 251.9 32.4 274.5 0 297L0 0Z" fill="#0c62cc"></path></g></svg>